<svg xmlns="http://www.w3.org/2000/svg" viewBox="0 0 1046.79 891.81"><defs><style>.cls-1{isolation:isolate;}.cls-2{fill:#175079;}.cls-3{fill:#ee344b;}.cls-4{fill:#78909c;}.cls-5,.cls-8{fill:#b1bac3;}.cls-6{fill:#788f9b;}.cls-7{fill:#25bdbe;}.cls-8{opacity:0.54;mix-blend-mode:overlay;}.cls-9{fill:#f1f1f1;opacity:0.34;}</style></defs><g class="cls-1"><g id="Layer_2" data-name="Layer 2"><g id="Layer_1-2" data-name="Layer 1"><g id="_14" data-name="14"><path class="cls-2" d="M843,200.55l-5.21-57.81-43.53-3.42c-3.25-9.38,13.5-46.62,8.23-55.45l4-7.36L765.35,35.57,730.18,60.65a149.61,149.61,0,0,0-27.84-12.93L698.79,4.94,641,0l-10.7,41.48a148.55,148.55,0,0,0-30,8.09l-30-30.23-1.36,1L522.83,52.73l18.39,38.56a151.67,151.67,0,0,0-17.67,25.55L481.11,113l-14.88,56.07,39.14,17.83a147.54,147.54,0,0,0,2.92,30.68L473,242l24.66,52.52L539.54,283a146.86,146.86,0,0,0,21.59,21.25L549.71,346.1l52.65,24.4,24.86-36.14a151.38,151.38,0,0,0,29.85,2.42L675.4,376.5l56-15.14L729.27,339l-2.09-21.52c4.16-2.39,8.29-5,12.28-7.75,4.21-3,8.21-6.13,12-9.42L791.22,319l33.16-47.62L793,240.55a149.13,149.13,0,0,0,7.65-28.83ZM707.18,263.88A94.71,94.71,0,0,1,695,271a92.47,92.47,0,0,1-94.35-158.45A93.62,93.62,0,0,1,612,105.82a92.48,92.48,0,0,1,95.17,158.06Z"/><path id="_7" data-name="7" class="cls-3" d="M970.41,328.22l-4.62-51.3-38.62-3a130.78,130.78,0,0,0-11.36-24.26L938,218.14l-36.5-36.32-31.2,22.25a132.73,132.73,0,0,0-24.71-11.46l-3.15-38-51.31-4.38-9.51,36.8a131.84,131.84,0,0,0-26.58,7.19l-26.61-26.84-1.2.86-40.93,28.78,16.32,34.21A134.33,134.33,0,0,0,687,253.94l-37.65-3.43-13.2,49.77,34.74,15.82a130.88,130.88,0,0,0,2.57,27.22L642.1,365,664,411.64l37.16-10.29a131.36,131.36,0,0,0,19.17,18.87l-10.14,37.15L756.89,479,779,447a134.28,134.28,0,0,0,26.48,2.15l16.29,35.25,49.7-13.43-1.92-19.85L867.65,432c3.7-2.12,7.35-4.41,10.9-6.88q5.6-4,10.67-8.36l35.26,16.63,29.43-42.26-27.86-27.39a132.23,132.23,0,0,0,6.79-25.58ZM849.9,384.42a86.09,86.09,0,0,1-10.76,6.28,81.44,81.44,0,1,1,10.76-6.28Z"/><path class="cls-4" d="M46.81,263.83H71.38V419.64H36.7V288.44c-3.82,2.41-9.19,4.28-16.16,5.61A109.28,109.28,0,0,1,0,296V283.3a93.3,93.3,0,0,0,27.2-6.1Q40.06,272.16,46.81,263.83Z"/><path class="cls-4" d="M117.69,303.21q0-20.7,12.38-30.93t47.14-10.21q34.75,0,47.39,10.17t12.63,31v74.41q0,21.5-12.2,32.67t-47.65,11.2q-35.44,0-47.57-11.1t-12.12-32.77Zm84.85-1q0-22.65-18.33-24.33c-1.92-.18-4.67-.28-8.26-.28a48.3,48.3,0,0,0-10.35,1.08c-3.32.7-6.34,2.79-9.11,6.28s-4.12,9.19-4.12,17.15v76.62q0,21.06,9.94,25.12A31.36,31.36,0,0,0,174.52,406c4.76,0,8.17-.12,10.19-.35a20.24,20.24,0,0,0,6.9-1.78q10.95-4.42,10.93-25.2V302.24Z"/><path class="cls-4" d="M271.75,303.21q0-20.7,12.38-30.93t47.14-10.21q34.75,0,47.39,10.17t12.63,31v74.41q0,21.5-12.2,32.67t-47.65,11.2q-35.44,0-47.58-11.1t-12.11-32.77Zm84.85-1q0-22.65-18.35-24.33c-1.9-.18-4.65-.28-8.24-.28a48.62,48.62,0,0,0-10.37,1.08q-5,1.05-9.08,6.28t-4.14,17.15v76.62q0,21.06,9.95,25.12A31.4,31.4,0,0,0,328.58,406c4.75,0,8.16-.12,10.17-.35a20.28,20.28,0,0,0,6.92-1.78q10.95-4.42,10.93-25.2V302.24Z"/><path class="cls-4" d="M463.51,263.83h24.6V419.64H453.42V288.44q-5.73,3.62-16.16,5.61a109.2,109.2,0,0,1-20.54,2V283.3a93,93,0,0,0,27.18-6.1Q456.79,272.16,463.51,263.83Z"/><path class="cls-4" d="M534.38,303.21q0-20.7,12.4-30.93t47.13-10.21q34.74,0,47.4,10.17t12.62,31v74.41q0,21.5-12.19,32.67t-47.67,11.2q-35.43,0-47.56-11.1t-12.13-32.77Zm84.87-1q0-22.65-18.35-24.33c-1.92-.18-4.65-.28-8.26-.28a48.57,48.57,0,0,0-10.35,1.08c-3.32.7-6.34,2.79-9.09,6.28s-4.14,9.19-4.14,17.15v76.62q0,21.06,9.94,25.12A31.43,31.43,0,0,0,591.21,406q7.15,0,10.19-.35a20.24,20.24,0,0,0,6.9-1.78q11-4.42,11-25.2V302.24Z"/><path class="cls-4" d="M688.44,303.21q0-20.7,12.39-30.93T748,262.07q34.74,0,47.37,10.17t12.63,31v74.41q0,21.5-12.2,32.67t-47.65,11.2q-35.43,0-47.56-11.1t-12.13-32.77Zm84.86-1q0-22.65-18.34-24.33c-1.92-.18-4.67-.28-8.26-.28a48.57,48.57,0,0,0-10.35,1.08c-3.32.7-6.34,2.79-9.1,6.28s-4.12,9.19-4.12,17.15v76.62q0,21.06,9.93,25.12A31.4,31.4,0,0,0,745.27,406q7.15,0,10.19-.35a20.24,20.24,0,0,0,6.9-1.78q10.95-4.42,10.94-25.2V302.24Z"/><path class="cls-4" d="M25.62,517.59q0-20.7,12.38-30.91t47.14-10.23q34.76,0,47.39,10.18t12.63,31V592q0,21.48-12.2,32.69T85.31,635.88q-35.45,0-47.58-11.11T25.62,592Zm84.85-1q0-22.65-18.33-24.33c-1.92-.18-4.67-.26-8.26-.26a48.47,48.47,0,0,0-10.36,1.06c-3.31.7-6.33,2.8-9.09,6.28s-4.12,9.19-4.12,17.16v76.61q0,21.06,9.93,25.14a31.59,31.59,0,0,0,12.21,2.12A99.15,99.15,0,0,0,92.64,620a20.64,20.64,0,0,0,6.9-1.76q11-4.42,10.93-25.22V516.62Z"/><path class="cls-4" d="M179.67,517.59q0-20.7,12.39-30.91t47.14-10.23q34.74,0,47.39,10.18t12.63,31V592q0,21.48-12.2,32.69t-47.66,11.19q-35.43,0-47.57-11.11T179.67,592Zm84.87-1q0-22.65-18.35-24.33c-1.92-.18-4.66-.26-8.26-.26a48.44,48.44,0,0,0-10.35,1.06c-3.32.7-6.34,2.8-9.09,6.28s-4.14,9.19-4.14,17.16v76.61q0,21.06,10,25.14a31.52,31.52,0,0,0,12.21,2.12,98.78,98.78,0,0,0,10.18-.36,20.7,20.7,0,0,0,6.91-1.76q10.93-4.42,10.94-25.22V516.62Z"/><path class="cls-4" d="M371.45,478.21H396V634H361.36V502.82q-5.75,3.63-16.16,5.61a109.63,109.63,0,0,1-20.55,2V497.68a92.53,92.53,0,0,0,27.19-6.1Q364.73,486.54,371.45,478.21Z"/><path class="cls-4" d="M480.05,478.21h24.57V634H470V502.82q-5.74,3.63-16.16,5.61a109.63,109.63,0,0,1-20.55,2V497.68a92.53,92.53,0,0,0,27.19-6.1Q473.31,486.54,480.05,478.21Z"/><path class="cls-4" d="M550.92,517.59q0-20.7,12.38-30.91t47.15-10.23q34.74,0,47.39,10.18t12.61,31V592q0,21.48-12.19,32.69T610.6,635.88q-35.42,0-47.56-11.11T550.92,592Zm84.85-1q0-22.65-18.34-24.33c-1.92-.18-4.66-.26-8.26-.26a48.58,48.58,0,0,0-10.35,1.06c-3.32.7-6.34,2.8-9.1,6.28s-4.12,9.19-4.12,17.16v76.61q0,21.06,9.93,25.14a31.59,31.59,0,0,0,12.21,2.12,98.74,98.74,0,0,0,10.19-.36,20.59,20.59,0,0,0,6.9-1.76q10.95-4.42,10.94-25.22V516.62Z"/><path class="cls-4" d="M757.79,478.21h24.58V634H747.69V502.82q-5.73,3.63-16.16,5.61a109.36,109.36,0,0,1-20.54,2V497.68a92.53,92.53,0,0,0,27.19-6.1Q751.05,486.54,757.79,478.21Z"/><path class="cls-4" d="M64.1,692.61H88.67V848.4H54V717.2q-5.74,3.63-16.16,5.61a109.52,109.52,0,0,1-20.54,2V712.06A92.53,92.53,0,0,0,44.49,706Q57.38,700.92,64.1,692.61Z"/><path class="cls-4" d="M135,732q0-20.7,12.38-30.92t47.15-10.22q34.74,0,47.4,10.18t12.61,31v74.41q0,21.48-12.2,32.69t-47.65,11.19q-35.43,0-47.56-11.1T135,806.38Zm84.87-1q0-22.65-18.35-24.34-2.88-.25-8.26-.25a49.9,49.9,0,0,0-10.35,1.06c-3.32.7-6.34,2.8-9.1,6.28s-4.13,9.2-4.13,17.16v76.61q0,21.06,9.94,25.14a31.59,31.59,0,0,0,12.21,2.12,98.88,98.88,0,0,0,10.19-.36,20.64,20.64,0,0,0,6.9-1.76q10.95-4.42,10.95-25.23V731Z"/><path class="cls-4" d="M326.76,692.61h24.58V848.4H316.65V717.2q-5.73,3.63-16.16,5.61a109.2,109.2,0,0,1-20.54,2V712.06a92.59,92.59,0,0,0,27.2-6.1Q320,700.92,326.76,692.61Z"/><path class="cls-4" d="M397.64,732q0-20.7,12.38-30.92t47.14-10.22q34.75,0,47.39,10.18t12.63,31v74.41q0,21.48-12.2,32.69t-47.65,11.19q-35.43,0-47.56-11.1t-12.13-32.78Zm84.85-1q0-22.65-18.33-24.34-2.88-.25-8.26-.25a49.62,49.62,0,0,0-10.35,1.06c-3.32.7-6.34,2.8-9.1,6.28s-4.13,9.2-4.13,17.16v76.61q0,21.06,9.94,25.14a31.59,31.59,0,0,0,12.21,2.12,98.88,98.88,0,0,0,10.19-.36,20.64,20.64,0,0,0,6.9-1.76q10.95-4.42,10.93-25.23V731Z"/><path class="cls-4" d="M574.33,732q0-20.7,12.38-30.92c8.25-6.81,1.32-10.22,24.49-10.22s61.63,3.4,70,10.18,12.63,17.11,12.63,31v74.41q0,21.48-12.2,32.69T634,850.26q-35.43,0-47.56-11.1t-12.13-32.78Zm84.86-1q0-22.65-18.34-24.34-2.88-.25-8.26-.25a49.9,49.9,0,0,0-10.35,1.06c-3.32.7-6.34,2.8-9.1,6.28S609,723,609,730.91v76.61q0,21.06,9.93,25.14a31.59,31.59,0,0,0,12.21,2.12,98.74,98.74,0,0,0,10.19-.36,20.64,20.64,0,0,0,6.9-1.76q10.95-4.42,10.94-25.23V731Z"/><path class="cls-4" d="M766.11,692.61h24.58V848.4H756V717.2q-5.73,3.63-16.16,5.61a109.2,109.2,0,0,1-20.54,2V712.06a92.59,92.59,0,0,0,27.2-6.1Q759.37,700.92,766.11,692.61Z"/><g id="_8" data-name="8"><path class="cls-5" d="M652.74,674.33l23.71-43.53c1.07-2,4.18-2.43,6.94-1l132.76,67.36c3.67,1.86,5.67,5.25,4.43,7.54L793,755.32c-1.25,2.29-5.18,2.46-8.73.38l-128.61-75C653,679.17,651.67,676.29,652.74,674.33Z"/><path class="cls-6" d="M771.45,750.05l33-60.62c1.13-2.07,5.14-2.1,8.89-.06l38.61,21c3.75,2,5.91,5.42,4.76,7.51l-33,60.62c-1.14,2.08-5.14,2.1-8.91.06l-38.59-21C772.47,755.52,770.32,752.14,771.45,750.05Z"/><path class="cls-7" d="M777.62,758.63,815,690c1.69-3.09,8.33-2.88,14.82.49L1034.23,795c8.63,4.49,14.12,11.13,12.16,14.73l-43.51,79.92c-2,3.6-10.54,2.58-19-2.23L786.08,770.82C779.72,767.2,775.94,761.73,777.62,758.63Z"/><polygon class="cls-6" points="725.24 651.03 696.22 704.35 702.38 707.95 749.56 735.48 755.73 739.09 786.72 682.19 725.24 651.03"/><path class="cls-7" d="M697.49,717l39-71.7c1.35-2.46,5.27-2.94,8.72-1.06l35.4,19.28c3.45,1.88,5.18,5.43,3.84,7.89l-39,71.7c-1.34,2.46-5.27,2.93-8.72,1l-35.39-19.28C697.88,723,696.16,719.42,697.49,717Z"/><polygon class="cls-8" points="674.5 634.38 1034.53 831.51 1017.45 862.87 657.41 665.74 674.5 634.38"/><path class="cls-5" d="M542.79,775.74c150-63.32,220.17-236.23,156.85-386.19S463.4,169.39,313.46,232.72,93.28,468.94,156.61,618.89,392.85,839.07,542.79,775.74Zm-16.54-39.16C397.93,790.77,250,730.68,195.77,602.36S201.67,326.07,330,271.88s276.29,5.9,330.48,134.22S654.58,682.39,526.25,736.58Z"/><path class="cls-6" d="M523,728.78c124-52.37,182.09-195.37,129.71-319.39S457.3,227.31,333.29,279.68,151.2,475.05,203.57,599.07,398.94,781.16,523,728.78Zm3.71,23.85c-132.45,55.92-285.25-6.3-341.29-139S191.28,328,323.72,272.09,609,278.39,665,411.08,659.11,696.69,526.67,752.63Z"/></g><path id="_9" data-name="9" class="cls-9" d="M250.94,655.85c-33.08-38.3-54.4-86.51-56.37-138-2.08-54.39,5.5-107.57,39-151.49a226.13,226.13,0,0,1,54.67-51.11,220.3,220.3,0,0,1,32-17.54c8.34-3.7,25.89-5.68,32.39-11.32C319,315.58,288.78,350.32,273.35,392c-19.51,52.8-10.9,113.47,18.48,160.92,14.55,23.49,34.27,43.86,57.93,58.24,26.17,15.91,57.36,15.72,83.18,30.52,16.85,9.67,32.35,22.58,39.56,41.16,21.23,54.72-50.77,60.66-86.6,53.37C333.77,725.65,285.82,696.24,250.94,655.85Z"/></g></g></g></g></svg>