<?xml version="1.0" encoding="utf-8"?>
<!-- Generator: Adobe Illustrator 25.1.0, SVG Export Plug-In . SVG Version: 6.00 Build 0)  -->
<svg version="1.1" id="Layer_1" xmlns="http://www.w3.org/2000/svg" xmlns:xlink="http://www.w3.org/1999/xlink" x="0px" y="0px"
	 viewBox="0 0 846 764.4" style="enable-background:new 0 0 846 764.4;" xml:space="preserve">
<style type="text/css">
	.st0{fill:#162E66;}
	.st1{opacity:0.4;}
	.st2{fill:#B8E1FF;}
	.st3{fill:#E3F4FF;}
	.st4{fill:#A4DCFF;}
	.st5{fill:#77CFF2;}
	.st6{fill:#FFFFFF;}
	.st7{fill:#7A32C6;}
	.st8{fill:none;}
	.st9{fill:#60BCEA;}
	.st10{fill:#E2E2E2;}
	.st11{fill:#EFEFEF;}
	.st12{fill:#4BB3DB;}
	.st13{fill:#107F99;}
	.st14{fill:#279FC4;}
	.st15{fill:url(#SVGID_1_);}
	.st16{fill:url(#SVGID_2_);}
	.st17{fill:url(#SVGID_3_);}
	.st18{fill:url(#SVGID_4_);}
	.st19{fill:#FF7694;}
	.st20{fill:#FF5A85;}
	.st21{fill:#FF9FB8;}
	.st22{fill:#49A3DB;}
	.st23{fill:#2F96C9;}
	.st24{fill:#7DD6F9;}
	.st25{fill:#B26ABF;}
	.st26{fill:#CC75DB;}
	.st27{fill:#DA8CE5;}
	.st28{fill:#4CC194;}
	.st29{fill:#33AA79;}
	.st30{fill:#58E0A9;}
	.st31{fill:#A7FCDF;}
	.st32{fill:#81EAC2;}
	.st33{fill:#CAFFEB;}
	.st34{fill:#FCFCFC;}
	.st35{font-family:'ArialMT';}
	.st36{font-size:1.6947px;}
	.st37{fill:#25A57A;}
	.st38{fill:#9CD1D5;}
	.st39{fill:url(#SVGID_5_);}
	.st40{fill:#FFC952;}
	.st41{fill:#FFEA50;}
	.st42{fill:#59BFC1;}
	.st43{fill:#71E7EA;}
	.st44{fill:#FB3972;}
	.st45{fill:#FF6492;}
	.st46{opacity:0.8;fill:#B8E1FF;enable-background:new    ;}
	.st47{fill:#5424A0;}
	.st48{fill:#6426B5;}
	.st49{fill:#8D4BE2;}
	.st50{fill:url(#SVGID_6_);}
	.st51{fill:url(#SVGID_7_);}
	.st52{fill:url(#SVGID_8_);}
	.st53{fill:url(#SVGID_9_);}
	.st54{font-size:2.9555px;}
	.st55{fill:#F5A856;}
	.st56{fill:#FF1F85;}
	.st57{font-size:5.9231px;}
	.st58{font-size:3.4551px;}
	.st59{font-size:3.1202px;}
	.st60{fill:#BCBCBC;}
	.st61{fill:#109B4B;}
	.st62{fill:#2030C4;}
	.st63{fill:url(#SVGID_10_);}
	.st64{fill:#5D4EE6;}
	.st65{font-size:34.7701px;}
	.st66{fill:#EAEAEA;}
	.st67{fill:#313CE3;}
	.st68{fill:url(#SVGID_11_);}
	.st69{font-size:4.6659px;}
	.st70{fill:url(#SVGID_12_);}
	.st71{fill:url(#SVGID_13_);}
	.st72{fill:none;stroke:#B8E1FF;stroke-miterlimit:10;}
	.st73{opacity:0.4;fill:url(#SVGID_14_);enable-background:new    ;}
	.st74{fill:#2D2D2D;}
	.st75{fill:url(#SVGID_15_);}
	.st76{fill:#220296;}
	.st77{fill:#2807A0;}
	.st78{fill:#E8E8E8;}
	.st79{fill:url(#SVGID_16_);}
	.st80{fill:url(#SVGID_17_);}
	.st81{fill:#E8621F;}
	.st82{fill:url(#SVGID_18_);}
	.st83{fill:url(#SVGID_19_);}
	.st84{fill:url(#SVGID_20_);}
	.st85{fill:#FEC7A9;}
	.st86{fill:url(#SVGID_21_);}
	.st87{fill:#F9BB9D;}
	.st88{fill:url(#SVGID_22_);}
	.st89{fill:url(#SVGID_23_);}
	.st90{fill:#220689;}
	.st91{fill:url(#SVGID_24_);}
	.st92{fill:#1F0382;}
	.st93{fill:#BF2BB5;}
	.st94{fill:url(#SVGID_25_);}
	.st95{fill:#F2E941;}
	.st96{fill:#6B79FC;}
	.st97{fill:#F438B1;}
	.st98{fill:url(#SVGID_26_);}
	.st99{fill:url(#SVGID_27_);}
	.st100{fill:#E8A318;}
	.st101{fill:#FFDD15;}
	.st102{fill:url(#SVGID_28_);}
	.st103{fill:#D8D8D8;}
</style>
<ellipse class="st0" cx="479.3" cy="417.8" rx="324.3" ry="219"/>
<g>
	<g>
		<g class="st1">
			<polygon class="st2" points="757.9,308.7 734.4,340.7 735.5,340.7 759,308.7 733,281 759.2,258.3 739,242.6 753.5,220.3 
				753.6,220.1 743.6,201.6 742.8,202 752.6,220 737.8,242.8 757.8,258.3 731.7,280.9 			"/>
		</g>
		<g>
			<polygon class="st3" points="735.5,239.7 730.4,247.4 739.6,247.9 744.6,240.2 			"/>
			<polygon class="st4" points="731.9,232.6 726.9,240.3 730.4,247.4 735.5,239.7 			"/>
			<polygon class="st5" points="731.9,232.6 741.1,233.2 744.6,240.2 735.5,239.7 			"/>
		</g>
		<g>
			<polygon class="st3" points="742.4,197.3 737.4,205 746.5,205.5 751.6,197.8 			"/>
			<polygon class="st4" points="738.8,190.2 733.8,197.9 737.4,205 742.4,197.3 			"/>
			<polygon class="st5" points="738.8,190.2 748,190.7 751.6,197.8 742.4,197.3 			"/>
		</g>
		<g>
			<polygon class="st3" points="754,221.4 744.8,221.7 749.7,229.5 758.9,229.2 			"/>
			<polygon class="st4" points="757.7,214.4 748.6,214.7 744.8,221.7 754,221.4 			"/>
			<polygon class="st5" points="757.7,214.4 762.6,222.2 758.9,229.2 754,221.4 			"/>
		</g>
		<g>
			<polygon class="st3" points="733.7,280.3 724.6,280.6 729.4,288.4 738.6,288.1 			"/>
			<polygon class="st4" points="737.5,273.3 728.3,273.6 724.6,280.6 733.8,280.3 			"/>
			<polygon class="st5" points="737.5,273.3 742.3,281.1 738.6,288.1 733.7,280.3 			"/>
		</g>
		<g>
			<polygon class="st3" points="758.1,308.6 748.9,308.9 753.8,316.7 763,316.4 			"/>
			<polygon class="st4" points="761.9,301.7 752.7,302 748.9,308.9 758.1,308.6 			"/>
			<polygon class="st5" points="761.8,301.7 766.7,309.5 763,316.4 758.1,308.6 			"/>
		</g>
		<g>
			<polygon class="st3" points="758.7,259.6 752.3,266.3 761.3,268.5 767.6,261.8 			"/>
			<polygon class="st4" points="756.5,252.1 750.1,258.7 752.3,266.3 758.7,259.6 			"/>
			<polygon class="st5" points="756.5,252.1 765.4,254.3 767.6,261.8 758.7,259.6 			"/>
		</g>
	</g>
	<g>
		<g class="st1">
			<polygon class="st2" points="497.8,142.5 474.3,174.4 475.4,174.4 499,142.4 472.9,114.7 499.1,92 478.9,76.4 493.4,54 
				493.6,53.8 483.5,35.3 482.8,35.7 492.6,53.8 477.7,76.6 497.7,92.1 471.7,114.7 			"/>
		</g>
		<g>
			<polygon class="st3" points="475.4,73.4 470.4,81.1 479.5,81.6 484.6,73.9 			"/>
			<polygon class="st4" points="471.8,66.4 466.8,74.1 470.4,81.1 475.4,73.4 			"/>
			<polygon class="st5" points="471.8,66.4 481,66.9 484.6,73.9 475.4,73.4 			"/>
		</g>
		<g>
			<polygon class="st3" points="482.3,31 477.3,38.7 486.5,39.2 491.5,31.5 			"/>
			<polygon class="st4" points="478.8,24 473.7,31.7 477.3,38.7 482.3,31 			"/>
			<polygon class="st5" points="478.8,24 487.9,24.5 491.5,31.5 482.3,31 			"/>
		</g>
		<g>
			<polygon class="st3" points="493.9,55.1 484.8,55.4 489.6,63.2 498.8,62.9 			"/>
			<polygon class="st4" points="497.7,48.2 488.5,48.5 484.8,55.4 494,55.1 			"/>
			<polygon class="st5" points="497.7,48.2 502.5,56 498.8,62.9 493.9,55.1 			"/>
		</g>
		<g>
			<polygon class="st3" points="473.7,114 464.5,114.4 469.3,122.2 478.5,121.9 			"/>
			<polygon class="st4" points="477.4,107.1 468.2,107.4 464.5,114.4 473.7,114.1 			"/>
			<polygon class="st5" points="477.4,107.1 482.2,114.9 478.5,121.9 473.7,114 			"/>
		</g>
		<g>
			<polygon class="st3" points="498.1,142.4 488.9,142.7 493.7,150.5 502.9,150.2 			"/>
			<polygon class="st4" points="501.8,135.4 492.6,135.7 488.9,142.7 498.1,142.4 			"/>
			<polygon class="st5" points="501.8,135.4 506.6,143.2 502.9,150.2 498.1,142.4 			"/>
		</g>
		<g>
			<polygon class="st3" points="498.6,93.4 492.3,100 501.2,102.2 507.5,95.6 			"/>
			<polygon class="st4" points="496.4,85.8 490.1,92.4 492.3,100 498.6,93.4 			"/>
			<polygon class="st5" points="496.4,85.8 505.3,88 507.5,95.6 498.6,93.4 			"/>
		</g>
	</g>
	<g>
		<g>
			<g>
				<g>
					<polygon class="st3" points="533.3,137.7 535.8,139.2 533.5,140.3 					"/>
					<polygon class="st5" points="456,235.3 453.5,233.8 455.7,232.3 					"/>
					<g>
						<g>
							<path class="st6" d="M533.7,186.4c0,0.9-0.7,2-1.6,2.6l-77.3,44.6c-0.9,0.5-1.6,0.2-1.6-0.7V185c0-0.9,0.7-2,1.6-2.6
								l77.3-44.6c0.9-0.5,1.6-0.2,1.6,0.7V186.4z"/>
							<path class="st5" d="M453.1,185v47.9c0,0.9,0.7,1.2,1.6,0.7l41.6-24l-42.8-26C453.3,184,453.1,184.5,453.1,185z"/>
							<path class="st3" d="M532,137.8l-77.3,44.6c-0.4,0.3-0.8,0.7-1.1,1.1l42.8,26l35.7-20.6c0.9-0.5,1.6-1.7,1.6-2.6v-47.9
								C533.7,137.6,532.9,137.3,532,137.8z"/>
							<path class="st4" d="M536.1,188c0,0.9-0.7,2-1.6,2.6l-77.3,44.6c-0.9,0.5-1.6,0.2-1.6-0.7v-47.9c0-0.9,0.7-2,1.6-2.6
								l77.3-44.6c0.9-0.5,1.6-0.2,1.6,0.7V188L536.1,188z"/>
							<polygon class="st7" points="533.4,185.5 458.3,228.9 458.3,189 533.4,145.6 							"/>
							<polygon class="st3" points="532,146.4 532,184.7 458.3,227.3 458.3,228.9 533.4,185.5 533.4,145.6 							"/>
							<line class="st8" x1="533.4" y1="145.6" x2="533.4" y2="185.5"/>
							<path class="st6" d="M497.2,163.8c0,0.7-0.6,1.7-1.3,2.1c-0.7,0.4-1.3,0.2-1.3-0.6c0-0.7,0.6-1.7,1.3-2.1
								C496.6,162.8,497.2,163.1,497.2,163.8z"/>
						</g>
					</g>
				</g>
				<g>
					<polygon class="st9" points="577.9,216.1 580.3,217.5 580.3,214.7 					"/>
					<polygon class="st10" points="457.1,238.5 457.1,235.8 460.9,235.8 					"/>
					<g>
						<path class="st11" d="M499.2,263.2c0.8,0.4,2.1,0.4,3-0.1l77.3-44.6c0.9-0.5,1-1.3,0.2-1.8l-41.5-24c-0.8-0.4-2.1-0.4-3,0.1
							l-77.3,44.6c-0.9,0.5-1,1.3-0.2,1.8L499.2,263.2z"/>
						<path class="st9" d="M579.8,216.7l-41.5-24c-0.8-0.4-2.1-0.4-3,0.1l-34.7,20v50.6c0.6,0,1.2-0.1,1.7-0.4l77.3-44.6
							C580.4,217.9,580.5,217.2,579.8,216.7z"/>
						<path class="st5" d="M457.9,237.5c-0.9,0.5-1,1.3-0.2,1.8l41.5,24c0.4,0.2,0.9,0.3,1.4,0.3V213L457.9,237.5z"/>
						<path class="st3" d="M499.2,260.4c0.8,0.4,2.1,0.4,3-0.1l77.3-44.6c0.9-0.5,1-1.3,0.2-1.8l-41.5-24c-0.8-0.4-2.1-0.4-3,0.1
							l-77.3,44.6c-0.9,0.5-1,1.3-0.2,1.8L499.2,260.4z"/>
						<g>
							<path class="st12" d="M547.9,228.3l1.6,0.9c0.5,0.3,0.4,0.8-0.1,1.1l-21.8,12.6c-0.6,0.3-1.4,0.4-1.9,0.1l-1.6-0.9
								L547.9,228.3z"/>
							<path class="st12" d="M523.4,241.7l-8.5-4.9c-0.5-0.3-0.4-0.8,0.1-1.1l21.8-12.6c0.6-0.3,1.4-0.4,1.9-0.1l8.5,4.9
								L523.4,241.7z"/>
							<g>
								<polygon class="st12" points="536.3,201.7 542.5,198.1 538,195.5 531.8,199.1 								"/>
								<polygon class="st12" points="537.9,207.5 548.3,201.4 543.9,198.9 533.5,204.9 								"/>
								<polygon class="st12" points="529.8,212.1 536.4,208.3 531.9,205.8 525.4,209.5 								"/>
								<polygon class="st12" points="521.7,216.8 528.2,213 523.8,210.5 517.3,214.2 								"/>
								<polygon class="st12" points="513.6,221.5 520.1,217.7 515.6,215.2 509.1,218.9 								"/>
								<polygon class="st12" points="505.4,226.2 511.9,222.4 507.5,219.9 501,223.6 								"/>
								<polygon class="st12" points="497.3,230.9 503.8,227.1 499.4,224.6 492.8,228.3 								"/>
								<polygon class="st12" points="489.1,235.6 495.7,231.8 491.2,229.3 484.7,233 								"/>
								<polygon class="st12" points="477.6,242.3 487.5,236.5 483.1,234 473.1,239.7 								"/>
								<polygon class="st12" points="539.5,213.2 554.1,204.8 549.6,202.2 535.1,210.6 								"/>
								<polygon class="st12" points="531.4,217.9 538,214.1 533.5,211.5 527,215.3 								"/>
								<polygon class="st12" points="523.3,222.6 529.8,218.8 525.4,216.2 518.8,220 								"/>
								<polygon class="st12" points="515.1,227.3 521.7,223.5 517.2,220.9 510.7,224.7 								"/>
								<polygon class="st12" points="507,232 513.5,228.2 509.1,225.6 502.6,229.4 								"/>
								<polygon class="st12" points="498.9,236.7 505.4,232.9 500.9,230.3 494.4,234.1 								"/>
								<polygon class="st12" points="483.3,245.6 497.2,237.6 492.8,235 478.9,243.1 								"/>
								<polygon class="st12" points="512.8,235.3 543.8,217.4 539.3,214.9 508.4,232.8 								"/>
								<polygon class="st12" points="528.2,206.3 534.4,202.7 530,200.2 523.8,203.8 								"/>
								<polygon class="st12" points="553.7,211.7 559.9,208.1 555.5,205.6 549.2,209.2 								"/>
								<polygon class="st12" points="545.6,216.4 551.8,212.8 547.4,210.2 541.2,213.8 								"/>
								<polygon class="st12" points="520.1,211 526.3,207.4 521.9,204.8 515.7,208.4 								"/>
								<polygon class="st12" points="512.1,215.6 518.3,212 513.8,209.5 507.6,213.1 								"/>
								<polygon class="st12" points="504,220.3 510.2,216.7 505.8,214.1 499.6,217.7 								"/>
								<polygon class="st12" points="495.9,225 502.1,221.4 497.7,218.8 491.5,222.4 								"/>
								<polygon class="st12" points="487.9,229.6 494.1,226 489.6,223.5 483.4,227 								"/>
								<polygon class="st12" points="479.8,234.3 486,230.7 481.6,228.1 475.4,231.7 								"/>
								<polygon class="st12" points="471.7,238.9 477.9,235.3 473.5,232.8 467.3,236.4 								"/>
								<polygon class="st12" points="496.9,244.5 503.1,240.9 498.7,238.3 492.5,241.9 								"/>
								<polygon class="st12" points="489.1,249 495.4,245.4 490.9,242.8 484.7,246.4 								"/>
							</g>
						</g>
					</g>
					<g>
						<polygon class="st13" points="492.6,257.4 497.3,260.1 497.3,261.6 492.6,258.9 						"/>
						<polygon class="st14" points="493.9,258.1 497.3,260.1 497.3,261.6 492.6,258.9 						"/>
					</g>
					<g>
						<polygon class="st13" points="459,237.9 463.6,240.6 463.6,242.1 459,239.4 						"/>
						<polygon class="st14" points="460.3,238.7 463.6,240.6 463.6,242.1 459,239.4 						"/>
					</g>
					<g>
						<polygon class="st13" points="464.4,241 469.1,243.7 469.1,245.3 464.4,242.6 						"/>
						<polygon class="st14" points="465.7,241.8 469.1,243.7 469.1,245.3 464.4,242.6 						"/>
					</g>
				</g>
			</g>
		</g>
		<g>
			
				<linearGradient id="SVGID_1_" gradientUnits="userSpaceOnUse" x1="694.9973" y1="433.9" x2="694.9973" y2="452.2476" gradientTransform="matrix(-1 0 0 -1 1217.9473 610.0001)">
				<stop  offset="0" style="stop-color:#FFFFFF"/>
				<stop  offset="1" style="stop-color:#FFFFFF;stop-opacity:0"/>
			</linearGradient>
			<rect x="520.5" y="157.8" class="st15" width="4.9" height="18.3"/>
			
				<linearGradient id="SVGID_2_" gradientUnits="userSpaceOnUse" x1="700.5973" y1="431.5311" x2="700.5973" y2="449.3311" gradientTransform="matrix(-1 0 0 -1 1217.9473 610.0001)">
				<stop  offset="0" style="stop-color:#FFFFFF"/>
				<stop  offset="1" style="stop-color:#FFFFFF;stop-opacity:0"/>
			</linearGradient>
			<rect x="514.9" y="160.7" class="st16" width="4.9" height="17.8"/>
			
				<linearGradient id="SVGID_3_" gradientUnits="userSpaceOnUse" x1="706.1973" y1="429.1621" x2="706.1973" y2="445.9622" gradientTransform="matrix(-1 0 0 -1 1217.9473 610.0001)">
				<stop  offset="0" style="stop-color:#FFFFFF"/>
				<stop  offset="1" style="stop-color:#FFFFFF;stop-opacity:0"/>
			</linearGradient>
			<rect x="509.3" y="164.1" class="st17" width="4.9" height="16.8"/>
			
				<linearGradient id="SVGID_4_" gradientUnits="userSpaceOnUse" x1="711.8473" y1="426.8" x2="711.8473" y2="443" gradientTransform="matrix(-1 0 0 -1 1217.9473 610.0001)">
				<stop  offset="0" style="stop-color:#FFFFFF"/>
				<stop  offset="1" style="stop-color:#FFFFFF;stop-opacity:0"/>
			</linearGradient>
			<polygon class="st18" points="503.7,167 508.5,167.5 508.5,183.2 503.7,183.2 			"/>
			<g>
				<g>
					<g>
						<g>
							<polygon class="st19" points="523,183.5 525.4,182.1 525.4,174.2 523,175.6 							"/>
							<polygon class="st20" points="520.5,182.1 523,183.5 523,175.6 520.5,174.2 							"/>
						</g>
						<polygon class="st21" points="523,175.6 525.4,174.2 523,172.8 520.5,174.2 						"/>
					</g>
					<g>
						<g>
							<g>
								<polygon class="st22" points="517.3,186.7 519.8,185.3 519.8,173.4 517.3,174.8 								"/>
								<polygon class="st23" points="514.9,185.3 517.3,186.7 517.3,174.8 514.9,173.4 								"/>
							</g>
							<polygon class="st24" points="517.3,174.8 519.8,173.4 517.3,172 514.9,173.4 							"/>
						</g>
					</g>
					<g>
						<g>
							<polygon class="st25" points="511.7,190 514.2,188.6 514.2,180.6 511.7,182 							"/>
							<polygon class="st26" points="509.3,188.6 511.7,190 511.7,182 509.3,180.6 							"/>
						</g>
						<polygon class="st27" points="511.7,182 514.2,180.6 511.7,179.2 509.3,180.6 						"/>
					</g>
					<g>
						<g>
							<polygon class="st28" points="511.7,190 514.2,188.6 514.2,180.7 511.7,182.1 							"/>
							<polygon class="st29" points="509.3,188.6 511.7,190 511.7,182.1 509.3,180.7 							"/>
						</g>
						<polygon class="st30" points="511.7,182.1 514.2,180.7 511.7,179.3 509.3,180.7 						"/>
					</g>
					<g>
						<g>
							<polygon class="st31" points="506.1,193.2 508.5,191.8 508.5,177 506.1,178.4 							"/>
							<polygon class="st32" points="503.7,191.8 506.1,193.2 506.1,178.4 503.7,177 							"/>
						</g>
						<polygon class="st33" points="506.1,178.4 508.5,177 506.1,175.6 503.7,177 						"/>
					</g>
				</g>
				<text transform="matrix(-1.0137 0.5853 0.866 0.5 528.4214 183.384)" class="st34 st35 st36">15%</text>
				<text transform="matrix(-1.0137 0.5853 0.866 0.5 522.7209 186.6608)" class="st34 st35 st36">25%</text>
				<text transform="matrix(-1.0137 0.5853 0.866 0.5 517.0229 189.939)" class="st34 st35 st36">15%</text>
				<text transform="matrix(-1.0137 0.5853 0.866 0.5 511.3236 193.217)" class="st34 st35 st36">45%</text>
			</g>
		</g>
	</g>
	<g>
		<g>
			<g>
				<g>
					<g>
						<path class="st37" d="M252.8,416.5v-5.2h-2.3v5.2h-27.1l-20.8-12c-3.5,2-5.9,4.4-7.3,6.9l-1.4-1.3v6.3c0,4.4,2.9,8.7,8.6,12
							c5.7,3.3,13.3,5,20.8,5s15-1.7,20.8-5C249.8,425.1,252.6,420.8,252.8,416.5L252.8,416.5L252.8,416.5L252.8,416.5L252.8,416.5z
							"/>
						<path class="st38" d="M244.2,404.5c-11.5-6.6-30.1-6.6-41.5,0l20.8,12L244.2,404.5z"/>
					</g>
					
						<linearGradient id="SVGID_5_" gradientUnits="userSpaceOnUse" x1="194.075" y1="199.875" x2="252.8343" y2="199.875" gradientTransform="matrix(1 0 0 -1 0 610.0001)">
						<stop  offset="0" style="stop-color:#4CC194"/>
						<stop  offset="0.2836" style="stop-color:#4CD08B"/>
						<stop  offset="0.6803" style="stop-color:#4CE083"/>
						<stop  offset="1" style="stop-color:#4CE580"/>
					</linearGradient>
					<path class="st39" d="M244.2,398.1c-11.5-6.6-30.1-6.6-41.5,0c-11.5,6.6-11.5,17.4,0,24c5.7,3.3,13.3,5,20.8,5s15-1.7,20.8-5
						c5.7-3.3,8.6-7.7,8.6-12C252.8,405.8,249.9,401.4,244.2,398.1z"/>
				</g>
			</g>
			<g>
				<g>
					<g>
						<path class="st40" d="M249.6,408.3v-4.7h-2v4.7h-24.2l-18.5-10.7c-3.1,1.8-5.3,3.9-6.5,6.2l-1.2-1.2v5.7
							c0,3.9,2.5,7.8,7.7,10.7c5.1,3,11.8,4.4,18.5,4.4s13.4-1.5,18.5-4.4s7.6-6.7,7.7-10.6l0,0V408.3L249.6,408.3L249.6,408.3z"/>
						<path class="st38" d="M241.9,397.6c-10.2-5.9-26.8-5.9-37.1,0l18.5,10.7L241.9,397.6z"/>
					</g>
					<path class="st41" d="M241.9,391.9c-10.2-5.9-26.8-5.9-37.1,0c-10.2,5.9-10.2,15.5,0,21.4c5.1,3,11.8,4.4,18.5,4.4
						s13.4-1.5,18.5-4.4c5.1-3,7.7-6.8,7.7-10.7C249.6,398.7,247.1,394.8,241.9,391.9z"/>
				</g>
			</g>
			<g>
				<g>
					<g>
						<path class="st42" d="M244.6,402v-5.4l-1.6,1.7v1.6l-19.5,2.2l-15-8.6c-2.5,1.4-4.2,0.9-5.2,2.8l-1,0.4v5.5
							c0,3.1,2.1,6.3,6.2,8.7c4.1,2.4,9.6,3.6,15,3.6s10.8-1.2,15-3.6C242.5,408.3,244.5,405.2,244.6,402L244.6,402L244.6,402
							L244.6,402L244.6,402z"/>
						<path class="st38" d="M238.4,393.4c-8.3-4.8-21.7-4.8-30,0l15,8.6L238.4,393.4z"/>
					</g>
					<path class="st43" d="M238.4,387.9c-8.3-4.8-21.7-4.8-30,0s-8.3,12.5,0,17.3c4.1,2.4,9.6,3.6,15,3.6s10.8-1.2,15-3.6
						c4.1-2.4,6.2-5.5,6.2-8.6C244.6,393.4,242.5,390.2,238.4,387.9z"/>
				</g>
			</g>
			<g>
				<g>
					<g>
						<path class="st44" d="M240.6,395.6v-5l-1.3,2v1.2l-15.5,1.8l-12-6.9c-2,1.2-3.4,0.7-4.2,2.2l-0.8-0.3v5c0,2.5,1.6,5,4.9,6.9
							c3.3,1.9,7.6,2.9,11.9,2.9s8.6-1,11.9-2.9C239,400.6,240.6,398.2,240.6,395.6L240.6,395.6L240.6,395.6L240.6,395.6
							L240.6,395.6z"/>
						<path class="st38" d="M235.7,388.7c-6.6-3.8-17.3-3.8-23.9,0l11.9,6.9L235.7,388.7z"/>
					</g>
					<path class="st45" d="M235.7,383.7c-6.6-3.8-17.3-3.8-23.9,0s-6.6,10,0,13.8c3.3,1.9,7.6,2.9,11.9,2.9c4.3,0,8.6-1,11.9-2.9
						s4.9-4.4,4.9-6.9S239,385.6,235.7,383.7z"/>
				</g>
			</g>
		</g>
	</g>
	<polygon class="st46" points="566.3,126 566.3,300 666.2,242.3 666.2,68.3 	"/>
	<g>
		<g>
			<polygon class="st47" points="752.7,360.2 667.5,311.1 667.5,298.8 769.2,338.4 769.2,350.6 			"/>
			<polygon class="st48" points="752.7,360.2 667.5,311.1 667.5,298.8 752.7,348 			"/>
			<polygon class="st49" points="752.7,348 667.5,298.8 684.1,289.3 769.2,338.4 			"/>
		</g>
		<g>
			<polygon class="st47" points="729.5,373.2 644.4,324.1 644.4,311.9 746.1,351.5 746.1,363.7 			"/>
			<polygon class="st48" points="729.5,373.2 644.4,324.1 644.4,311.9 729.5,361 			"/>
			<polygon class="st49" points="729.5,361 644.4,311.9 660.9,302.3 746.1,351.5 			"/>
		</g>
		<g>
			<polygon class="st47" points="706.4,386.3 621.2,337.1 621.2,324.9 723,364.5 723,376.7 			"/>
			<polygon class="st48" points="706.4,386.3 621.2,337.1 621.2,324.9 706.4,374 			"/>
			<polygon class="st49" points="706.4,374 621.2,324.9 637.8,315.3 723,364.5 			"/>
		</g>
		<g>
			<polygon class="st47" points="683.3,399.3 598.1,350.1 598.1,337.9 699.8,377.5 699.8,389.7 			"/>
			<polygon class="st48" points="683.3,399.3 598.1,350.1 598.1,337.9 683.3,387.1 			"/>
			<polygon class="st49" points="683.3,387.1 598.1,337.9 614.7,328.4 699.8,377.5 			"/>
		</g>
		<g>
			<polygon class="st47" points="660.1,412.3 575,363.2 575,351 676.7,390.5 676.7,402.8 			"/>
			<polygon class="st48" points="660.1,412.3 575,363.2 575,351 660.1,400.1 			"/>
			<polygon class="st49" points="660.1,400.1 575,351 591.5,341.4 676.7,390.5 			"/>
		</g>
	</g>
	<g>
		<g>
			<polygon class="st3" points="306.3,280.5 283.6,267.4 306.3,254.3 329,267.4 			"/>
			<polygon class="st4" points="306.3,293.5 283.6,280.4 283.6,267.4 306.3,280.5 			"/>
			<polygon class="st5" points="306.3,293.5 329,280.4 329,267.4 306.3,280.5 			"/>
		</g>
		<g>
			<polygon class="st3" points="279.1,296.4 256.4,283.3 279.1,270.2 301.8,283.3 			"/>
			<polygon class="st4" points="279.2,309.4 256.4,296.3 256.4,283.3 279.2,296.4 			"/>
			<polygon class="st5" points="279.1,309.4 301.8,296.3 301.8,283.3 279.1,296.4 			"/>
		</g>
		<g>
			<polygon class="st3" points="251.9,312.2 229.2,299.1 251.9,286 274.6,299.1 			"/>
			<polygon class="st4" points="252,325.2 229.2,312.1 229.2,299.1 252,312.2 			"/>
			<polygon class="st5" points="251.9,325.2 274.7,312.1 274.7,299.1 251.9,312.2 			"/>
		</g>
	</g>
	<g>
		<g>
			<polygon class="st3" points="212.1,336.9 234.8,323.8 212.1,310.7 189.4,323.8 			"/>
			<polygon class="st4" points="212.1,349.9 234.8,336.8 234.8,323.8 212.1,336.9 			"/>
			<polygon class="st5" points="212.1,349.9 189.4,336.8 189.4,323.8 212.1,336.9 			"/>
		</g>
		<g>
			<polygon class="st3" points="239.3,352.7 262,339.6 239.3,326.5 216.6,339.6 			"/>
			<polygon class="st4" points="239.3,365.7 262,352.6 262,339.6 239.3,352.7 			"/>
			<polygon class="st5" points="239.3,365.7 216.6,352.6 216.6,339.6 239.3,352.7 			"/>
		</g>
		<g>
			<polygon class="st3" points="266.5,368.6 289.2,355.5 266.5,342.3 243.8,355.5 			"/>
			<polygon class="st4" points="266.4,381.6 289.2,368.5 289.2,355.5 266.4,368.6 			"/>
			<polygon class="st5" points="266.5,381.6 243.7,368.5 243.7,355.5 266.5,368.6 			"/>
		</g>
	</g>
	<g>
		<g>
			<g>
				<g>
					<polygon class="st3" points="339.1,188.1 334.8,190.7 338.9,192.6 					"/>
					<polygon class="st5" points="473.9,358.4 478.3,355.7 474.5,353.1 					"/>
					<g>
						<g>
							<path class="st6" d="M338.5,273.1c0,1.6,1.3,3.6,2.8,4.5l134.9,77.9c1.6,0.9,2.8,0.4,2.8-1.2v-83.6c0-1.6-1.3-3.6-2.8-4.5
								l-134.9-77.9c-1.6-0.9-2.8-0.4-2.8,1.2V273.1z"/>
							<path class="st5" d="M479,270.6v83.6c0,1.6-1.3,2.1-2.8,1.2l-72.6-41.9l74.6-45.4C478.7,268.9,479,269.8,479,270.6z"/>
							<path class="st3" d="M341.3,188.3l134.9,77.9c0.8,0.4,1.5,1.1,2,1.9l-74.6,45.4l-62.2-35.9c-1.6-0.9-2.8-2.9-2.8-4.5v-83.6
								C338.5,187.9,339.8,187.4,341.3,188.3z"/>
							<path class="st4" d="M334.2,275.8c0,1.6,1.3,3.6,2.8,4.5l134.9,77.9c1.6,0.9,2.8,0.4,2.8-1.2v-83.6c0-1.6-1.3-3.6-2.8-4.5
								L337,191c-1.6-0.9-2.8-0.4-2.8,1.2V275.8L334.2,275.8z"/>
							<polygon class="st7" points="338.9,271.5 470,347.2 470,277.5 338.9,201.9 							"/>
							<polygon class="st3" points="341.4,203.3 341.4,270.1 470,344.3 470,347.2 338.9,271.5 338.9,201.9 							"/>
							<line class="st8" x1="338.9" y1="201.9" x2="338.9" y2="271.5"/>
							<path class="st6" d="M402.1,233.7c0,1.3,1,2.9,2.3,3.6s2.3,0.3,2.3-1s-1-2.9-2.3-3.6C403.2,232,402.1,232.4,402.1,233.7z"/>
						</g>
					</g>
				</g>
				<g>
					<polygon class="st9" points="261.3,324.8 257.2,327.2 257.2,322.4 					"/>
					<polygon class="st10" points="472,363.9 472,359.1 465.4,359.3 					"/>
					<g>
						<path class="st11" d="M398.6,407c-1.4,0.8-3.7,0.7-5.3-0.2l-134.9-77.9c-1.6-0.9-1.7-2.3-0.4-3.1l72.4-41.8
							c1.4-0.8,3.7-0.7,5.3,0.2l134.9,77.9c1.6,0.9,1.7,2.3,0.4,3.1L398.6,407z"/>
						<path class="st9" d="M258.1,325.9l72.4-41.8c1.4-0.8,3.7-0.7,5.3,0.2l60.5,34.9v88.3c-1,0-2.1-0.3-2.9-0.7l-134.9-77.9
							C256.9,328.1,256.8,326.7,258.1,325.9z"/>
						<path class="st5" d="M470.7,362.2c1.6,0.9,1.7,2.3,0.4,3.1l-72.4,41.8c-0.6,0.4-1.5,0.5-2.4,0.5v-88.3L470.7,362.2z"/>
						<path class="st3" d="M398.6,402.2c-1.4,0.8-3.7,0.7-5.3-0.2l-134.9-77.9c-1.6-0.9-1.7-2.3-0.4-3.1l72.4-41.8
							c1.4-0.8,3.7-0.7,5.3,0.2l134.9,77.9c1.6,0.9,1.7,2.3,0.4,3.1L398.6,402.2z"/>
						<g>
							<path class="st12" d="M313.7,346.1l-2.9,1.7c-0.8,0.5-0.7,1.3,0.2,1.9l38.1,22c1,0.6,2.4,0.6,3.2,0.1l2.8-1.6L313.7,346.1z"
								/>
							<path class="st12" d="M356.4,369.4l14.9-8.6c0.8-0.5,0.7-1.3-0.2-1.9l-38.1-22c-1-0.6-2.4-0.6-3.2-0.1l-14.9,8.6L356.4,369.4
								z"/>
							<g>
								<polygon class="st12" points="334,299.7 323.1,293.4 330.9,288.9 341.7,295.2 								"/>
								<polygon class="st12" points="331.1,309.8 313,299.3 320.7,294.8 338.9,305.3 								"/>
								<polygon class="st12" points="345.2,317.9 333.8,311.3 341.5,306.8 352.9,313.4 								"/>
								<polygon class="st12" points="359.4,326.1 348,319.5 355.7,315 367.1,321.6 								"/>
								<polygon class="st12" points="373.6,334.3 362.2,327.7 369.9,323.2 381.3,329.8 								"/>
								<polygon class="st12" points="387.8,342.5 376.4,335.9 384.1,331.4 395.5,338 								"/>
								<polygon class="st12" points="402,350.7 390.6,344.1 398.3,339.6 409.7,346.2 								"/>
								<polygon class="st12" points="416.2,358.9 404.8,352.3 412.5,347.8 423.9,354.4 								"/>
								<polygon class="st12" points="436.3,370.5 419,360.5 426.7,356 444.1,366.1 								"/>
								<polygon class="st12" points="328.3,319.8 302.9,305.1 310.6,300.6 336.1,315.3 								"/>
								<polygon class="st12" points="342.4,327.9 331,321.4 338.8,316.9 350.2,323.5 								"/>
								<polygon class="st12" points="356.6,336.1 345.2,329.6 353,325.1 364.4,331.7 								"/>
								<polygon class="st12" points="370.8,344.3 359.4,337.7 367.2,333.3 378.6,339.9 								"/>
								<polygon class="st12" points="385,352.5 373.6,345.9 381.4,341.5 392.8,348.1 								"/>
								<polygon class="st12" points="399.2,360.7 387.8,354.1 395.6,349.7 407,356.2 								"/>
								<polygon class="st12" points="426.3,376.3 402,362.3 409.8,357.9 434,371.9 								"/>
								<polygon class="st12" points="374.9,358.4 320.9,327.2 328.6,322.7 382.6,353.9 								"/>
								<polygon class="st12" points="348,307.8 337.2,301.5 344.9,297.1 355.8,303.3 								"/>
								<polygon class="st12" points="303.6,317.2 292.8,311 300.5,306.5 311.3,312.7 								"/>
								<polygon class="st12" points="317.7,325.3 306.8,319.1 314.6,314.6 325.4,320.9 								"/>
								<polygon class="st12" points="362.1,315.9 351.3,309.7 359,305.2 369.9,311.4 								"/>
								<polygon class="st12" points="376.2,324 365.3,317.8 373.1,313.3 383.9,319.6 								"/>
								<polygon class="st12" points="390.2,332.2 379.4,325.9 387.2,321.4 398,327.7 								"/>
								<polygon class="st12" points="404.3,340.3 393.5,334 401.2,329.6 412.1,335.8 								"/>
								<polygon class="st12" points="418.4,348.4 407.5,342.2 415.3,337.7 426.1,343.9 								"/>
								<polygon class="st12" points="432.4,356.5 421.6,350.3 429.4,345.8 440.2,352.1 								"/>
								<polygon class="st12" points="446.5,364.7 435.7,358.4 443.4,353.9 454.3,360.2 								"/>
								<polygon class="st12" points="402.6,374.4 391.7,368.1 399.5,363.6 410.3,369.9 								"/>
								<polygon class="st12" points="416.1,382.2 405.3,375.9 413,371.5 423.9,377.7 								"/>
							</g>
						</g>
					</g>
					<g>
						<polygon class="st13" points="410,396.8 401.9,401.5 401.9,404.2 410,399.5 						"/>
						<polygon class="st14" points="407.8,398.1 401.9,401.5 401.9,404.2 410,399.5 						"/>
					</g>
					<g>
						<polygon class="st13" points="468.7,362.9 460.6,367.6 460.6,370.3 468.7,365.6 						"/>
						<polygon class="st14" points="466.5,364.2 460.6,367.6 460.6,370.3 468.7,365.6 						"/>
					</g>
					<g>
						<polygon class="st13" points="459.3,368.3 451.2,373 451.2,375.7 459.3,371 						"/>
						<polygon class="st14" points="457,369.6 451.2,373 451.2,375.7 459.3,371 						"/>
					</g>
				</g>
			</g>
		</g>
		<g>
			
				<linearGradient id="SVGID_6_" gradientUnits="userSpaceOnUse" x1="357.15" y1="354.8732" x2="357.15" y2="386.8732" gradientTransform="matrix(1 0 0 -1 0 610.0001)">
				<stop  offset="0" style="stop-color:#FFFFFF"/>
				<stop  offset="1" style="stop-color:#FFFFFF;stop-opacity:0"/>
			</linearGradient>
			<rect x="352.9" y="223.2" class="st50" width="8.5" height="32"/>
			
				<linearGradient id="SVGID_7_" gradientUnits="userSpaceOnUse" x1="366.95" y1="350.7311" x2="366.95" y2="381.7311" gradientTransform="matrix(1 0 0 -1 0 610.0001)">
				<stop  offset="0" style="stop-color:#FFFFFF"/>
				<stop  offset="1" style="stop-color:#FFFFFF;stop-opacity:0"/>
			</linearGradient>
			<rect x="362.7" y="228.3" class="st51" width="8.5" height="31"/>
			
				<linearGradient id="SVGID_8_" gradientUnits="userSpaceOnUse" x1="376.75" y1="346.6311" x2="376.75" y2="375.9311" gradientTransform="matrix(1 0 0 -1 0 610.0001)">
				<stop  offset="0" style="stop-color:#FFFFFF"/>
				<stop  offset="1" style="stop-color:#FFFFFF;stop-opacity:0"/>
			</linearGradient>
			<rect x="372.5" y="234.1" class="st52" width="8.5" height="29.3"/>
			
				<linearGradient id="SVGID_9_" gradientUnits="userSpaceOnUse" x1="386.55" y1="342.5" x2="386.55" y2="370.7797" gradientTransform="matrix(1 0 0 -1 0 610.0001)">
				<stop  offset="0" style="stop-color:#FFFFFF"/>
				<stop  offset="1" style="stop-color:#FFFFFF;stop-opacity:0"/>
			</linearGradient>
			<polygon class="st53" points="390.8,239.3 382.3,240.2 382.3,267.5 390.8,267.5 			"/>
			<g>
				<g>
					<g>
						<g>
							<polygon class="st19" points="357.2,268 352.9,265.5 352.9,251.8 357.2,254.3 							"/>
							<polygon class="st20" points="361.4,265.5 357.2,268 357.2,254.3 361.4,251.8 							"/>
						</g>
						<polygon class="st21" points="357.2,254.3 352.9,251.8 357.2,249.4 361.4,251.8 						"/>
					</g>
					<g>
						<g>
							<g>
								<polygon class="st22" points="367,273.7 362.7,271.2 362.7,250.5 367,252.9 								"/>
								<polygon class="st23" points="371.2,271.2 367,273.7 367,252.9 371.2,250.5 								"/>
							</g>
							<polygon class="st24" points="367,252.9 362.7,250.5 367,248 371.2,250.5 							"/>
						</g>
					</g>
					<g>
						<g>
							<polygon class="st25" points="376.8,279.3 372.5,276.8 372.5,263 376.8,265.5 							"/>
							<polygon class="st26" points="381,276.8 376.8,279.3 376.8,265.5 381,263 							"/>
						</g>
						<polygon class="st27" points="376.8,265.5 372.5,263 376.8,260.6 381,263 						"/>
					</g>
					<g>
						<g>
							<polygon class="st28" points="376.8,279.3 372.5,276.9 372.5,263.1 376.8,265.5 							"/>
							<polygon class="st29" points="381,276.9 376.8,279.3 376.8,265.5 381,263.1 							"/>
						</g>
						<polygon class="st30" points="376.8,265.5 372.5,263.1 376.8,260.6 381,263.1 						"/>
					</g>
					<g>
						<g>
							<polygon class="st31" points="386.6,285 382.3,282.5 382.3,256.7 386.6,259.2 							"/>
							<polygon class="st32" points="390.8,282.5 386.6,285 386.6,259.2 390.8,256.7 							"/>
						</g>
						<polygon class="st33" points="386.6,259.2 382.3,256.7 386.6,254.3 390.8,256.7 						"/>
					</g>
				</g>
				<text transform="matrix(1.0137 0.5853 -0.866 0.5 347.7871 267.7886)" class="st34 st35 st54">15%</text>
				<text transform="matrix(1.0137 0.5853 -0.866 0.5 357.7268 273.5052)" class="st34 st35 st54">25%</text>
				<text transform="matrix(1.0137 0.5853 -0.866 0.5 367.6643 279.2211)" class="st34 st35 st54">15%</text>
				<text transform="matrix(1.0137 0.5853 -0.866 0.5 377.607 284.9399)" class="st34 st35 st54">45%</text>
			</g>
		</g>
	</g>
	<g>
		<g>
			<g>
				<g>
					<g>
						<path class="st20" d="M642.6,154C642.6,154.1,642.6,154.1,642.6,154c0,16.8-11.8,37.3-26.3,45.7s-26.3,1.6-26.3-15.2
							c0-16.7,11.7-37,26.1-45.4v-1.4c-15.1,8.9-27.3,30.1-27.3,47.6s12.4,24.7,27.6,15.9S644,171,644,153.5v-0.1L642.6,154z"/>
					</g>
				</g>
				<g>
					<path class="st32" d="M639,156.1L639,156.1c0,14.6-10.2,32.3-22.8,39.5s-22.8,1.4-22.8-13.1c0-14.4,10.1-31.9,22.5-39.3v-1.4
						c-13.1,7.7-23.7,26.2-23.7,41.4c0,15.3,10.8,21.5,24,13.9s24-26.3,24-41.6v-0.1L639,156.1z"/>
				</g>
				<g>
					<path class="st55" d="M635.8,158L635.8,158c0,12.5-8.7,27.6-19.5,33.8c-10.7,6.2-19.5,1.2-19.5-11.3c0-12.3,8.6-27.3,19.2-33.6
						v-1.4c-11.3,6.7-20.4,22.6-20.4,35.7c0,13.2,9.3,18.6,20.7,12s20.7-22.7,20.7-35.9v-0.1L635.8,158z"/>
				</g>
				<path class="st55" d="M633.8,159.2c0,11.2-7.8,24.7-17.5,30.3s-17.5,1.1-17.5-10.1c0-11.2,7.8-24.7,17.5-30.3
					C625.9,143.5,633.8,148,633.8,159.2z"/>
				<path class="st56" d="M616.3,151.4c8.5-4.9,15.5-0.9,15.5,8.9c0,9.9-6.9,21.9-15.5,26.8c-8.5,4.9-15.5,0.9-15.5-8.9
					C600.8,168.4,607.7,156.4,616.3,151.4z"/>
			</g>
			<text transform="matrix(0.866 -0.5 0 1 605.505 180.0432)" class="st6 st35 st57">Sarvatrika</text>
			<text transform="matrix(0.866 -0.5 0 1 617.8273 137.778)" class="st6 st35 st58">75%</text>
			<text transform="matrix(0.866 -0.5 0 1 617.8273 142.0104)" class="st6 st35 st58">50%</text>
			<text transform="matrix(0.866 -0.5 0 1 617.8273 146.2507)" class="st6 st35 st58">25%</text>
		</g>
		<g>
			<text transform="matrix(0.866 -0.5 0 1 607.8832 218.6891)" class="st6 st35 st59">Lorem ipsum dolor sit amet,</text>
			<text transform="matrix(0.866 -0.5 0 1 607.8832 222.3893)" class="st6 st35 st59">consectetur adipiscing elit.</text>
		</g>
		<g>
			<text transform="matrix(0.866 -0.5 0 1 607.8832 229.1423)" class="st6 st35 st59">Lorem ipsum dolor sit amet,</text>
			<text transform="matrix(0.866 -0.5 0 1 607.8832 232.8422)" class="st6 st35 st59">consectetur adipiscing elit.</text>
		</g>
		<g>
			<text transform="matrix(0.866 -0.5 0 1 607.8832 239.5954)" class="st6 st35 st59">Lorem ipsum dolor sit amet,</text>
			<text transform="matrix(0.866 -0.5 0 1 607.8832 243.2953)" class="st6 st35 st59">consectetur adipiscing elit.</text>
		</g>
		<polygon class="st20" points="606,223.5 600.6,226.6 600.6,220.8 606,217.7 		"/>
		<polygon class="st32" points="606,233.6 600.6,236.8 600.6,230.9 606,227.8 		"/>
		<polygon class="st55" points="606,243.7 600.6,246.9 600.6,241.1 606,237.9 		"/>
	</g>
	<g>
		<g>
			<path class="st44" d="M308.2,417.3c-29.1,0.5-57.9,7.1-80.1,19.9c-1.2,0.7-2.3,1.4-3.4,2c-21.7,13.6-32,31-31.2,48.2
				c0.8,16.8,12.3,33.4,34.5,46.3l80.1-46.3v-70.1L308.2,417.3L308.2,417.3z"/>
			<path class="st60" d="M308.2,477.4L308.2,477.4L308.2,477.4z"/>
			<path class="st60" d="M308.2,477.4L308.2,477.4L308.2,477.4z"/>
			<path class="st61" d="M445.4,487.5c0.9-18.1-10.6-36.4-34.5-50.3l-87,40.1v10.1l83.5,48.2c1.2-0.6,2.4-1.3,3.5-1.9
				C433.1,520.9,444.6,504.3,445.4,487.5z"/>
			<path class="st62" d="M308.2,487.5l87-50.3v-10.1c-23.6-12.9-56.7-10.3-87-9.8V487.5L308.2,487.5z"/>
			<path class="st40" d="M308.2,487.5l-80.1,36.1v10.2c22.2,12.8,51,19.5,80.1,19.9c29.9,0.5,60-5.5,83.5-18v-10.1L308.2,487.5z"/>
			
				<linearGradient id="SVGID_10_" gradientUnits="userSpaceOnUse" x1="525.0699" y1="130.8409" x2="621.6671" y2="130.8409" gradientTransform="matrix(0.866 0.5 1 -0.5774 -218.1801 265.246)">
				<stop  offset="0" style="stop-color:#4CC194"/>
				<stop  offset="0.2836" style="stop-color:#4CD08B"/>
				<stop  offset="0.6803" style="stop-color:#4CE083"/>
				<stop  offset="1" style="stop-color:#4CE580"/>
			</linearGradient>
			<path class="st63" d="M445.4,477.4c0.9-18.1-10.6-36.4-34.5-50.3l-87,50.3l83.5,48.2c1.2-0.6,2.4-1.3,3.5-1.9
				C433.1,510.8,444.6,494.2,445.4,477.4z"/>
			<path class="st64" d="M308.2,477.4l87-50.3c-24-13.8-55.6-20.5-87-19.9V477.4L308.2,477.4z"/>
			<path class="st41" d="M308.2,477.4l-80.1,46.3c22.2,12.8,51,19.5,80.1,19.9c29.9,0.5,60-5.5,83.5-18L308.2,477.4z"/>
			<path class="st45" d="M308.2,407.2c-29.1,0.5-57.9,7.1-80.1,19.9c-1.2,0.7-2.3,1.4-3.4,2c-21.7,13.6-32,31-31.2,48.2
				c0.8,16.8,12.3,33.4,34.5,46.3l80.1-46.3v-70.1L308.2,407.2L308.2,407.2z"/>
		</g>
		<text transform="matrix(0.866 0.5 -0.866 0.5 370.4083 477.4657)" class="st6 st35 st65">A</text>
		<text transform="matrix(0.866 0.5 -0.866 0.5 291.4727 516.4033)" class="st6 st35 st65">B</text>
		<text transform="matrix(0.866 0.5 -0.866 0.5 241.8155 463.1059)" class="st6 st35 st65">C</text>
		<text transform="matrix(0.866 0.5 -0.866 0.5 319.1046 435.2899)" class="st6 st35 st65">D</text>
		<path class="st66" d="M352.7,448.6c-8.6,4.9-22.5,4.9-31,0c-8.6-4.9-8.6-13,0-17.9s22.5-4.9,31,0S361.2,443.6,352.7,448.6z"/>
	</g>
	<g>
		<polygon class="st46" points="288.4,197.3 437.8,283.5 437.8,178.4 288.4,92.1 		"/>
		<g>
			<g>
				<g>
					<g>
						<polygon class="st6" points="369.6,220.9 307.9,185.2 307.9,184.4 369.6,220.1 						"/>
					</g>
					<g>
						<polygon class="st6" points="369.6,198.6 307.9,163 307.9,162.2 369.6,197.8 						"/>
					</g>
					<g>
						<polygon class="st6" points="369.6,176.4 307.9,140.7 307.9,139.9 369.6,175.6 						"/>
					</g>
					<g>
						<polygon class="st6" points="369.6,154.1 307.9,118.5 307.9,117.7 369.6,153.3 						"/>
					</g>
				</g>
				<g>
					<g>
						<polygon class="st6" points="369.6,231.8 307.9,196.1 307.9,195.3 369.6,231 						"/>
					</g>
					<g>
						<polygon class="st6" points="369.6,209.5 307.9,173.8 307.9,173.1 369.6,208.7 						"/>
					</g>
					<g>
						<polygon class="st6" points="369.6,187.2 307.9,151.6 307.9,150.8 369.6,186.4 						"/>
					</g>
					<g>
						<polygon class="st6" points="369.6,165 307.9,129.3 307.9,128.5 369.6,164.2 						"/>
					</g>
				</g>
			</g>
			<g>
				<g>
					<polygon class="st3" points="319.1,201.8 311.1,197.2 311.1,143.5 319.1,148.1 					"/>
					<polygon class="st45" points="319.1,201.8 311.1,197.2 311.1,151.1 319.1,155.7 					"/>
				</g>
				<g>
					<polygon class="st3" points="334.8,210.9 326.8,206.2 326.8,132.7 334.8,137.3 					"/>
					<polygon class="st67" points="334.8,210.9 326.8,206.2 326.8,153.9 334.8,158.6 					"/>
				</g>
				<g>
					<polygon class="st3" points="350.6,219.9 342.5,215.3 342.5,148.4 350.6,153 					"/>
					
						<linearGradient id="SVGID_11_" gradientUnits="userSpaceOnUse" x1="346.55" y1="390.1" x2="346.55" y2="453.8" gradientTransform="matrix(1 0 0 -1 0 610.0001)">
						<stop  offset="0" style="stop-color:#4CC194"/>
						<stop  offset="0.2836" style="stop-color:#4CD08B"/>
						<stop  offset="0.6803" style="stop-color:#4CE083"/>
						<stop  offset="1" style="stop-color:#4CE580"/>
					</linearGradient>
					<polygon class="st68" points="350.6,219.9 342.5,215.3 342.5,156.2 350.6,160.9 					"/>
				</g>
				<g>
					<polygon class="st3" points="366.3,229 358.3,224.4 358.3,161.1 366.3,165.7 					"/>
					<polygon class="st41" points="366.3,229 358.3,224.4 358.3,170.7 366.3,175.3 					"/>
				</g>
			</g>
		</g>
		<g>
			<g>
				<polygon class="st56" points="390.7,206 379.4,199.5 379.4,193.2 390.7,199.7 				"/>
				<text transform="matrix(0.866 0.5 0 1 392.3939 205.3747)" class="st6 st35 st69">Lorem ipsum</text>
			</g>
			<g>
				
					<linearGradient id="SVGID_12_" gradientUnits="userSpaceOnUse" x1="379.4338" y1="397.85" x2="390.6895" y2="397.85" gradientTransform="matrix(1 0 0 -1 0 610.0001)">
					<stop  offset="0" style="stop-color:#4CC194"/>
					<stop  offset="0.2836" style="stop-color:#4CD08B"/>
					<stop  offset="0.6803" style="stop-color:#4CE083"/>
					<stop  offset="1" style="stop-color:#4CE580"/>
				</linearGradient>
				<polygon class="st70" points="390.7,218.5 379.4,212 379.4,205.8 390.7,212.3 				"/>
				<text transform="matrix(0.866 0.5 0 1 392.3939 217.8708)" class="st6 st35 st69">Lorem ipsum</text>
			</g>
			<g>
				
					<linearGradient id="SVGID_13_" gradientUnits="userSpaceOnUse" x1="379.4338" y1="385.35" x2="390.691" y2="385.35" gradientTransform="matrix(1 0 0 -1 0 610.0001)">
					<stop  offset="0" style="stop-color:#4CC194"/>
					<stop  offset="0.2836" style="stop-color:#4CD08B"/>
					<stop  offset="0.6803" style="stop-color:#4CE083"/>
					<stop  offset="1" style="stop-color:#4CE580"/>
				</linearGradient>
				<polygon class="st71" points="390.7,231 379.4,224.5 379.4,218.3 390.7,224.8 				"/>
				<text transform="matrix(0.866 0.5 0 1 392.3939 230.3644)" class="st6 st35 st69">Lorem ipsum</text>
			</g>
			<g>
				<polygon class="st41" points="390.7,243.6 379.4,237.1 379.4,230.8 390.7,237.3 				"/>
				<text transform="matrix(0.866 0.5 0 1 392.3939 242.8581)" class="st6 st35 st69">Lorem ipsum</text>
			</g>
		</g>
	</g>
	<polyline class="st72" points="468.7,440.8 500.6,332.2 527.4,358.6 558.9,371.5 572.1,259.3 	"/>
	<path class="st2" d="M472.7,438.5c0,2.6-1.8,5.7-4,7s-4,0.2-4-2.3c0-2.6,1.8-5.7,4-7C470.9,434.8,472.7,435.9,472.7,438.5z"/>
	
		<linearGradient id="SVGID_14_" gradientUnits="userSpaceOnUse" x1="607.9" y1="210.45" x2="607.9" y2="618.55" gradientTransform="matrix(1 0 0 -1 0 610.0001)">
		<stop  offset="0" style="stop-color:#45FFFA"/>
		<stop  offset="0.1642" style="stop-color:#6CFFFB;stop-opacity:0.8358"/>
		<stop  offset="0.4552" style="stop-color:#AAFFFD;stop-opacity:0.5448"/>
		<stop  offset="0.7017" style="stop-color:#D8FFFE;stop-opacity:0.2983"/>
		<stop  offset="0.8908" style="stop-color:#F4FFFF;stop-opacity:0.1092"/>
		<stop  offset="1" style="stop-color:#FFFFFF;stop-opacity:0"/>
	</linearGradient>
	<polygon class="st73" points="717.2,-8.6 498.7,-8.6 498.7,316.1 561.7,399.6 629.8,358 717.2,307.1 	"/>
	<g>
		<g>
			<path class="st74" d="M339.6,440.2c0,0-0.5,3.9-0.2,4.8s2.4,0.7,3.2,0.5c2.6-0.7,8.7-3.8,8.5-6.3c-0.1-1-1.6-0.9-4.1,0.2
				c-2.5,1.2-3.9,1-4.2,0.2C342.5,438.9,339.6,440.2,339.6,440.2z"/>
			<path class="st74" d="M315.8,438.3c0,0-0.5,3.9-0.2,4.8s2.4,0.7,3.2,0.5c2.5-0.7,8.7-3.8,8.5-6.3c-0.1-1-1.6-0.9-4.1,0.2
				c-2.5,1.2-3.9,1-4.2,0.2C318.7,437,315.8,438.3,315.8,438.3z"/>
			<g>
				
					<linearGradient id="SVGID_15_" gradientUnits="userSpaceOnUse" x1="306.8898" y1="258.892" x2="302.7479" y2="293.0943" gradientTransform="matrix(1 0 0 -1 0 610.0001)">
					<stop  offset="0" style="stop-color:#BF2BB5"/>
					<stop  offset="1" style="stop-color:#7614A3"/>
				</linearGradient>
				<path class="st75" d="M305.4,318.1c0,0-5.3,9.5-5.9,29.1c1.1,3.8,11.8,1.6,13,0s0-5.1,0-5.1h-4.7l1.4-9.5L305.4,318.1z"/>
				<g>
					<path class="st76" d="M314.7,438.5c0.1-3.4,1.4-37.1,1.4-38.2c-0.1-9.9-8.3-19.1-8.6-21.3c-1.2-7.7,1.7-17.7,1.7-17.7l17.6,2.4
						c0,0,2.5,17.1,0.9,35.9c-0.3,3.5-7.1,35.8-7.4,39.2L314.7,438.5z"/>
					<path class="st77" d="M332.2,402.5c-1.5-3.5-8.8-14.9-10.3-18.2c-7.1-13.4-5.4-21.4-5.4-21.4l22.1-0.9c0,0,3.9,27.3,5.6,34.3
						c0.3,1.1-0.6,43.1-0.3,44l-4.5,0.4L332.2,402.5z"/>
					
						<rect x="328.1" y="313.7" transform="matrix(0.4919 -0.8707 0.8707 0.4919 -108.7532 464.0237)" class="st78" width="30.1" height="22.9"/>
					
						<linearGradient id="SVGID_16_" gradientUnits="userSpaceOnUse" x1="829.1738" y1="284.9001" x2="862.9233" y2="284.9001" gradientTransform="matrix(-1 0 0 -1 1189.1738 610.0001)">
						<stop  offset="0" style="stop-color:#FFFFFF"/>
						<stop  offset="0.7168" style="stop-color:#F0F0F0"/>
						<stop  offset="1" style="stop-color:#E8E8E8"/>
					</linearGradient>
					<polygon class="st79" points="360,317.8 345.6,343.3 326.3,332.4 340.7,306.9 					"/>
					
						<linearGradient id="SVGID_17_" gradientUnits="userSpaceOnUse" x1="855.8641" y1="301.167" x2="872.9813" y2="301.167" gradientTransform="matrix(-1 0 0 -1 1189.1738 610.0001)">
						<stop  offset="0" style="stop-color:#FFE2C4"/>
						<stop  offset="1" style="stop-color:#FFB870"/>
					</linearGradient>
					<path class="st80" d="M327.3,298.1c0,0,3.5-0.1,5,3.9c0.2,0.6,0.3,1.2,0.1,1.8c-0.3,1.1,0.1,2.8,0.6,4.1
						c0.9,2.3-0.8,6.4-2.4,8.4c-1.9,0.7-3.3-0.8-3.3-0.8l-1.2,4.2l-9.4-2.4c0,0,1.1-3.4,0-8.6s-0.7-7.8,2.7-9.5
						C322.8,297.4,327.3,298.1,327.3,298.1"/>
					<path class="st81" d="M330.9,291.7c0,0-2.5,1.7-10.1,2.2s-7.9,5.8-6.9,8.5c-2.3,0.8,2.6,9.1,2.6,12.3c4.3,1.5,7.7-0.5,7.7-0.5
						s1.6-2.5,0.6-5.4s0.8-5.6,2-4.9c0.2,0.2,0.6,4.7,0.8,4.7c0.1,0,0.5,0,0.6,0c0.3-0.1-0.1-1.2,0.3-3.2c0.2-0.9,1.4-2.9,1.3-3.4
						c-0.1-0.7-0.9-2.8-0.9-2.8l1.6-0.3c0,0,1.8,0.2,1.8-1.5C332.2,294.5,330.9,291.7,330.9,291.7"/>
					
						<linearGradient id="SVGID_18_" gradientUnits="userSpaceOnUse" x1="847.5837" y1="263.6451" x2="885.7938" y2="263.6451" gradientTransform="matrix(-1 0 0 -1 1189.1738 610.0001)">
						<stop  offset="0" style="stop-color:#BF2BB5"/>
						<stop  offset="1" style="stop-color:#7614A3"/>
					</linearGradient>
					<path class="st82" d="M339.3,327.3c0,0-4.2-4.9-12.9-8.2c-4.1-1.5-8.7-2.1-8.7-2.1s-7.9-0.8-11.8,0.8c-2.2,0.9-3.8,11.7-1,18.8
						c2.9,7.1,4.7,15.4,2.6,19.4c-2.2,4-3.5,15.6-3.5,15.6s3.3,2.1,9.6,3.3c0,0,2-10.4,2.3-10.4c0.1,0,1.1,11.1,1.1,11.1
						c6.6,0.8,15.2,0.3,24.7-4.5c-0.9-5.3-4.7-15.4-5.7-20.3C334.9,345.9,339.3,327.3,339.3,327.3"/>
					
						<linearGradient id="SVGID_19_" gradientUnits="userSpaceOnUse" x1="834.2901" y1="273.9216" x2="841.6155" y2="273.9216" gradientTransform="matrix(-1 0 0 -1 1189.1738 610.0001)">
						<stop  offset="0" style="stop-color:#FFE2C4"/>
						<stop  offset="1" style="stop-color:#FFB870"/>
					</linearGradient>
					<path class="st83" d="M348.4,340.1c0,0-0.3-2.7,0-4.3c0.3-1.7-0.3-2.6-0.8-3.2c-0.4-0.6,0.3-2.2,1.6-0.8
						c1.3,1.4,1.5,3.1,1.5,3.1l3.3-5.9c0,0,2.8,6-1.9,13.8C349.1,344.4,348.4,340.1,348.4,340.1z"/>
					
						<linearGradient id="SVGID_20_" gradientUnits="userSpaceOnUse" x1="844.8292" y1="246.7368" x2="849.7298" y2="287.2032" gradientTransform="matrix(-1 0 0 -1 1189.1738 610.0001)">
						<stop  offset="0" style="stop-color:#BF2BB5"/>
						<stop  offset="1" style="stop-color:#7614A3"/>
					</linearGradient>
					<path class="st84" d="M341.2,336.5c1.1-3.3,0.3-7-2.2-9.4c-0.5-0.5-1.1-0.9-1.8-1.3c-4.1-2-6.9,1.4-7.1,8.9
						c-0.2,7.4,0.6,18.3,4.9,25.2c2.6,4,13.1,2.2,18.5-16.9c-1.4-1.9-6.2-3.2-6.2-3.2s-4.8,12.3-6.7,10.6
						C338.2,348.3,339.7,340.9,341.2,336.5"/>
				</g>
			</g>
		</g>
	</g>
	<g>
		<path class="st85" d="M722,294.2c0,0-1.6-2.1-2.2-4c-0.6-1.9-1.4-3.4-2.7-4.3s-4.7-2.9-5.1-3c-0.4-0.1-1.4,0.4-0.3,1.2
			c1.1,0.8,2.8,1.9,2.9,2.6c0.1,0.5-2,3.5-0.6,5.4s0.7,0.4,4.6,4.8C722.1,299.2,722,294.2,722,294.2z"/>
		<path class="st6" d="M721.3,292.2c-2,0.2-4.2,1.6-4.9,3.2c0.6,0.6,1.4,1.6,2.4,2.7c3.8,2.7,3.9-3.8,3.9-3.8S722,293.4,721.3,292.2
			z"/>
		<g>
			
				<linearGradient id="SVGID_21_" gradientUnits="userSpaceOnUse" x1="717.0123" y1="301.7437" x2="756.0493" y2="301.7437" gradientTransform="matrix(1 0 0 -1 0 610.0001)">
				<stop  offset="0" style="stop-color:#BF2BB5"/>
				<stop  offset="1" style="stop-color:#7614A3"/>
			</linearGradient>
			<path class="st86" d="M756,315.2c0,0-16.2-4.6-20.2-7.2c-3.9-2.6-13.5-14.5-13.5-14.5s-4.4-0.2-5.4,4.1
				c4.5,8.6,12,14.3,15.4,17.3c3.5,2.9,15.8,7.7,19.8,8.1C756.3,323.4,756,315.2,756,315.2z"/>
			<g>
				<path class="st85" d="M715.4,346.7c0,0-1.7-0.6-3.7,0.7c-2,1.3-3.8,0.9-5.1,0.7c-1.3-0.2-3.1,2.4-0.6,3.6
					c2.4,1.3,5.7,1.2,7.3,0.8c0.8-0.2,2.5-1.1,3-1.2C716.9,351.1,715.4,346.7,715.4,346.7z"/>
				<polygon class="st45" points="697.6,355.9 689.8,338.3 715.3,327 724.5,344.3 				"/>
				<path class="st87" d="M753.2,377.2c0,0,2.2,7.5,1.1,13.4c-1.1,5.9-3.1,10.3-3.5,14.2c-0.4,3.8,1.1,7.7,0.7,9.8
					c-0.4,2.1-9.6,4.2-9.6,4.2s2.6-1.7,3.5-5.3c0.9-3.6,1.3-4.1,1.3-5.8c0-1.7-0.5-20.1-0.6-27.1C746,373.6,753.2,377.2,753.2,377.2
					z"/>
				<path class="st85" d="M737.7,379.4c0,0,0.1,5,0.7,7c0.6,2.1,1.9,19,1.3,24.2c-0.6,5.2-4.7,12.3-6.3,13.5
					c-1.6,1.3-0.5,1.7,2.1,1.3c2.5-0.3,3.5-4.2,4.6-5.7s5.1-3.4,5.1-3.4s-0.6-2.5-1-3.5s0.9-9.1,2.1-13c1.2-3.9,1.1-9.7,0.6-11.7
					s1.2-8.8,1.2-8.8h-10.4L737.7,379.4L737.7,379.4z"/>
				
					<linearGradient id="SVGID_22_" gradientUnits="userSpaceOnUse" x1="738.3716" y1="191.685" x2="752.2474" y2="191.685" gradientTransform="matrix(1 0 0 -1 0 610.0001)">
					<stop  offset="0" style="stop-color:#BF2BB5"/>
					<stop  offset="1" style="stop-color:#7614A3"/>
				</linearGradient>
				<path class="st88" d="M749.8,424.5h1c0,0,1-6.5,1.3-7.6c0.3-1.2,0.6-3.9-1.4-4.6s-3.2,0.9-3.9,2.3c-0.7,1.5-3.8,5.9-5.8,6.7
					c-1.8,0.9-2.3,1.7-2.3,1.7s-0.8,0.7,1.3,0.7s5.3,0.1,6.5-0.4s1.2-1.6,1.3-2.7c0-1,0.8-2.2,1.3-2.4
					C749.4,421.5,749.8,424.5,749.8,424.5z"/>
				
					<linearGradient id="SVGID_23_" gradientUnits="userSpaceOnUse" x1="729.4687" y1="188.6011" x2="746.2066" y2="188.6011" gradientTransform="matrix(1 0 0 -1 0 610.0001)">
					<stop  offset="0" style="stop-color:#BF2BB5"/>
					<stop  offset="1" style="stop-color:#7614A3"/>
				</linearGradient>
				<path class="st89" d="M746.2,418.6c0,0-0.2-3.4-2.7-3.3s-3.7,2.7-4.5,4.7c-0.7,2.1-1,4.2-3.4,4.5c-2.3,0.3-2.5-0.2-2.5-0.2
					s-2.4,0.1-3.7,1c0.8,1.6,4.2,1.7,6.9,1.7s3.1-0.2,3.6-1.4c0.5-1.2,1.4-5,3-5c0.4,3.2,0.8,6.9,0.8,6.9h0.8c0,0,1.1-4.8,1.3-6.6
					C746.2,419.1,746.3,419.3,746.2,418.6z"/>
				<path class="st90" d="M734.5,359l1.1,20.8c0,0,1.9,3,9,2.5c7.1-0.4,11.3-3.7,11.3-3.7s0.2-4.3,0.9-8c0.6-3.7,2.3-9.9,2.3-9.9
					L734.5,359z"/>
				
					<linearGradient id="SVGID_24_" gradientUnits="userSpaceOnUse" x1="733.4659" y1="272.585" x2="761.6016" y2="272.585" gradientTransform="matrix(1 0 0 -1 0 610.0001)">
					<stop  offset="0" style="stop-color:#BF2BB5"/>
					<stop  offset="1" style="stop-color:#7614A3"/>
				</linearGradient>
				<path class="st91" d="M746.3,311.3c0,0-9,5.3-10.2,10.8c-0.4,1.6-3.2,3.8-1.9,9s3,12.1,3,15s-3.7,10.7-3.7,14.8
					c8.6,6.1,21.8,5.4,28.1,0c-0.1-11.4-2.2-14.9-4.9-20.1s0.3-9.7,1.7-14.5c1.4-4.9,3.9-11.3,0.6-14.7
					C755.8,308.2,749.3,309.9,746.3,311.3z"/>
				<g>
					<path class="st85" d="M741.5,291.2c0,0,0.1,1.5-1,4.2s-1.7,6-0.9,8.6s1.7,3.7,4.1,3.8c1.2,0.3,1.9,1.5,2,3.5
						c3.5,1.4,7.5-0.8,7.5-1.3c-0.5-2.3-0.6-3.4,0.3-5.1c0.9-1.7,1.8-8.9-1.4-11.7C749,290.4,741.5,291.2,741.5,291.2z"/>
					<path class="st92" d="M741.7,296.4c0,0-5.2-3.2-2.4-6.9c2.7-3.7,6.3-4.3,9.6-4.5s9.3,0.8,11,6.1c2,2.3,3.4,9.7,4,15.3
						c0.6,5.6-5.2,11.3-13.4,11.3s-9.4-5.6-9.4-5.6s4.4,0.8,5.3-3.8c0.8-4.5-0.8-10.1-1.3-11.3C743.8,297.6,742.1,296.7,741.7,296.4
						z"/>
				</g>
				<path class="st85" d="M712.8,349.8c0,0-2.9-0.8-3.2-2.1c-0.3-1,1.2-0.4,2,0.1s2.7-1,4.1,0.4C715.4,350,712.8,349.8,712.8,349.8z
					"/>
				<g>
					<path class="st6" d="M717.8,345.7l-2.6,0.4c0,0-1.2,1.5-0.4,3.7s1.4,2.5,1.4,2.5l2.8-0.7L717.8,345.7z"/>
					<path class="st93" d="M738.7,318.1c-3,0.6-4.4,7-3.5,11.3c0.8,4,1.3,8.3-2,10.9c-3.9,0.9-14.4,4.3-16.7,5.4
						c-1,3.2,0.9,5.6,2.4,6.6c4.9-1.4,15.9-4.2,18.1-5.3c0.9-0.4,5.2-2.6,6.4-10.1c0.9-4.1,1.6-10.7,0.4-14.1
						C743.3,321.3,741.7,317.5,738.7,318.1z"/>
				</g>
			</g>
		</g>
	</g>
	<g>
		<g>
			<g class="st1">
				<g>
					<g>
						<g>
							<polygon class="st34" points="608.6,381.4 726.3,313.5 726.3,312.5 608.6,380.5 							"/>
						</g>
						<g>
							<polygon class="st34" points="608.6,370.7 726.3,302.7 726.3,301.7 608.6,369.7 							"/>
						</g>
						<g>
							<polygon class="st34" points="608.6,359.9 726.3,291.9 726.3,290.9 608.6,358.9 							"/>
						</g>
						<g>
							<polygon class="st34" points="608.6,349.1 726.3,281.1 726.3,280.1 608.6,348.1 							"/>
						</g>
						<g>
							<polygon class="st34" points="608.6,338.3 726.3,270.3 726.3,269.3 608.6,337.3 							"/>
						</g>
						<g>
							<polygon class="st34" points="608.6,327.5 726.3,259.5 726.3,258.5 608.6,326.5 							"/>
						</g>
						<g>
							<polygon class="st34" points="608.6,316.7 726.3,248.7 726.3,247.7 608.6,315.7 							"/>
						</g>
						<g>
							<polygon class="st34" points="608.6,305.2 726.3,237.2 726.3,236.3 608.6,304.3 							"/>
						</g>
						<g>
							<polygon class="st34" points="608.6,294.4 726.3,226.5 726.3,225.5 608.6,293.5 							"/>
						</g>
						<g>
							<polygon class="st34" points="608.6,283.6 726.3,215.7 726.3,214.7 608.6,282.7 							"/>
						</g>
					</g>
				</g>
			</g>
			<g>
				
					<linearGradient id="SVGID_25_" gradientUnits="userSpaceOnUse" x1="607.9" y1="293.05" x2="724.2" y2="293.05" gradientTransform="matrix(1 0 0 -1 0 610.0001)">
					<stop  offset="0" style="stop-color:#4CC194"/>
					<stop  offset="0.2836" style="stop-color:#4CD08B"/>
					<stop  offset="0.6803" style="stop-color:#4CE083"/>
					<stop  offset="1" style="stop-color:#4CE580"/>
				</linearGradient>
				<polygon class="st94" points="609.3,381.6 625.9,298.7 640.4,317.6 653.9,287.4 667,278.7 680.2,256.2 692.5,303.7 708.1,274.4 
					722.8,315.3 724.2,314.8 708.3,270.7 693,299.6 680.7,252.3 665.8,277.7 652.7,286.3 640.1,314.7 625.1,295.2 607.9,381.3 				
					"/>
			</g>
			<g>
				<polygon class="st95" points="609.3,381.6 625.8,304.9 640.4,328.9 653.8,299.6 666.8,301.2 680.4,279.2 692.7,303.2 
					708.1,279.8 722.8,315.4 724.2,314.8 708.4,276.6 692.8,300.2 680.5,276.1 666,299.6 652.9,298 640.2,325.7 625.2,300.9 
					607.9,381.3 				"/>
			</g>
			<g>
				<polygon class="st96" points="609.3,381.7 626,336.6 640.7,337.4 653.6,307.6 666.4,321.5 680.7,303.8 692.9,309.2 708.1,293.7 
					722.9,315.5 724.2,314.7 708.3,291.3 692.6,307.4 680.2,302 666.4,319.2 653.1,304.8 639.8,335.8 625,335 607.9,381.2 				"/>
			</g>
			<g>
				<polygon class="st97" points="609.2,381.8 626,351.9 640.8,350.2 653.8,320.6 666.6,324.3 680.5,310.8 692.8,320.7 708.3,305.4 
					723.1,315.7 724,314.5 708.1,303.5 692.7,318.7 680.4,308.8 666.2,322.6 652.9,318.8 639.7,348.8 625,350.5 607.9,381.1 				"/>
			</g>
		</g>
		<ellipse class="st34" cx="723.9" cy="314.7" rx="1.6" ry="2.2"/>
		<ellipse class="st34" cx="708.3" cy="305.2" rx="1.6" ry="2.2"/>
		<ellipse class="st34" cx="708.3" cy="292.2" rx="1.6" ry="2.2"/>
		<ellipse class="st34" cx="708.3" cy="278.3" rx="1.6" ry="2.2"/>
		<ellipse class="st34" cx="708.3" cy="272.5" rx="1.6" ry="2.2"/>
		<ellipse class="st34" cx="680.6" cy="254.5" rx="1.6" ry="2.2"/>
		<ellipse class="st34" cx="680" cy="277.5" rx="1.6" ry="2.2"/>
		<ellipse class="st34" cx="680.6" cy="303" rx="1.6" ry="2.2"/>
		<ellipse class="st34" cx="680.6" cy="310.3" rx="1.6" ry="2.2"/>
		<ellipse class="st34" cx="666.5" cy="323.6" rx="1.6" ry="2.2"/>
		<ellipse class="st34" cx="666.5" cy="319.7" rx="1.6" ry="2.2"/>
		<ellipse class="st34" cx="666.5" cy="300.2" rx="1.6" ry="2.2"/>
		<ellipse class="st34" cx="666.5" cy="278.3" rx="1.6" ry="2.2"/>
		<ellipse class="st34" cx="653.3" cy="287.1" rx="1.6" ry="2.2"/>
		<ellipse class="st34" cx="653.3" cy="298.6" rx="1.6" ry="2.2"/>
		<ellipse class="st34" cx="653.3" cy="306.4" rx="1.6" ry="2.2"/>
		<ellipse class="st34" cx="653.3" cy="320.4" rx="1.6" ry="2.2"/>
		<ellipse class="st34" cx="640.1" cy="349.9" rx="1.6" ry="2.2"/>
		<ellipse class="st34" cx="640.1" cy="336.5" rx="1.6" ry="2.2"/>
		<ellipse class="st34" cx="640.1" cy="326.7" rx="1.6" ry="2.2"/>
		<ellipse class="st34" cx="640.1" cy="316" rx="1.6" ry="2.2"/>
		<ellipse class="st34" cx="625.5" cy="296.6" rx="1.6" ry="2.2"/>
		<ellipse class="st34" cx="625.5" cy="302.4" rx="1.6" ry="2.2"/>
		<ellipse class="st34" cx="625.5" cy="336.2" rx="1.6" ry="2.2"/>
		<ellipse class="st34" cx="625.5" cy="351.3" rx="1.6" ry="2.2"/>
		<ellipse class="st34" cx="608.6" cy="380.9" rx="1.6" ry="2.2"/>
		<ellipse class="st34" cx="692.5" cy="307.8" rx="1.6" ry="2.2"/>
		<ellipse class="st34" cx="693.1" cy="302" rx="1.6" ry="2.2"/>
		<ellipse class="st34" cx="693.1" cy="319.2" rx="1.6" ry="2.2"/>
	</g>
	<g>
		<g>
			<polygon class="st3" points="601.4,415 636.4,394.8 601.4,374.5 566.3,394.8 			"/>
			<polygon class="st4" points="601.3,435.1 636.4,414.8 636.4,394.8 601.3,415 			"/>
			<polygon class="st5" points="601.4,435.1 566.3,414.8 566.3,394.8 601.4,415 			"/>
		</g>
		<g>
			<polygon class="st3" points="643.3,439.4 678.4,419.2 643.3,399 608.3,419.2 			"/>
			<polygon class="st4" points="643.3,459.5 678.4,439.3 678.4,419.2 643.3,439.4 			"/>
			<polygon class="st5" points="643.3,459.5 608.3,439.3 608.3,419.2 643.3,439.4 			"/>
		</g>
		<g>
			<polygon class="st3" points="685.3,463.9 720.4,443.6 685.3,423.4 650.3,443.6 			"/>
			<polygon class="st4" points="685.3,484 720.4,463.7 720.4,443.6 685.3,463.9 			"/>
			<polygon class="st5" points="685.3,484 650.3,463.7 650.3,443.6 685.3,463.9 			"/>
		</g>
	</g>
	<g>
		<g>
			<g>
				<g>
					<g>
						<path class="st37" d="M675.3,482.7v-5.2H673v5.2h-27.1l-20.8-12c-3.5,2-5.9,4.4-7.3,6.9l-1.4-1.3v6.3c0,4.4,2.9,8.7,8.6,12
							c5.7,3.3,13.3,5,20.8,5s15-1.7,20.8-5C672.3,491.3,675.1,487,675.3,482.7L675.3,482.7L675.3,482.7L675.3,482.7L675.3,482.7z"
							/>
						<path class="st38" d="M666.7,470.7c-11.5-6.6-30.1-6.6-41.5,0l20.8,12L666.7,470.7z"/>
					</g>
					
						<linearGradient id="SVGID_26_" gradientUnits="userSpaceOnUse" x1="616.5085" y1="133.675" x2="675.2668" y2="133.675" gradientTransform="matrix(1 0 0 -1 0 610.0001)">
						<stop  offset="0" style="stop-color:#4CC194"/>
						<stop  offset="0.2836" style="stop-color:#4CD08B"/>
						<stop  offset="0.6803" style="stop-color:#4CE083"/>
						<stop  offset="1" style="stop-color:#4CE580"/>
					</linearGradient>
					<path class="st98" d="M666.7,464.3c-11.5-6.6-30.1-6.6-41.5,0c-11.5,6.6-11.5,17.4,0,24c5.7,3.3,13.3,5,20.8,5s15-1.7,20.8-5
						c5.7-3.3,8.6-7.7,8.6-12C675.3,472,672.4,467.6,666.7,464.3z"/>
				</g>
			</g>
			<g>
				<g>
					<g>
						<path class="st40" d="M672.1,474.4v-4.6h-2v4.7h-24.2l-18.5-10.7c-3.1,1.8-5.3,3.9-6.5,6.2l-1.2-1.2v5.7
							c0,3.9,2.5,7.8,7.7,10.7c5.1,3,11.8,4.4,18.5,4.4s13.4-1.5,18.5-4.4s7.6-6.7,7.7-10.6l0,0V474.4
							C672.1,474.5,672.1,474.5,672.1,474.4L672.1,474.4z"/>
						<path class="st38" d="M664.4,463.7c-10.2-5.9-26.8-5.9-37.1,0l18.5,10.7L664.4,463.7z"/>
					</g>
					<path class="st41" d="M664.4,458.1c-10.2-5.9-26.8-5.9-37.1,0c-10.2,5.9-10.2,15.5,0,21.4c5.1,3,11.8,4.4,18.5,4.4
						s13.4-1.5,18.5-4.4c5.1-3,7.7-6.8,7.7-10.7C672.1,464.9,669.5,461,664.4,458.1z"/>
				</g>
			</g>
			<g>
				<g>
					<g>
						<path class="st42" d="M667.1,468.2v-5.4l-1.6,1.7v1.6l-19.5,2.2l-15-8.6c-2.5,1.4-4.2,0.9-5.2,2.8l-1,0.4v5.5
							c0,3.1,2.1,6.3,6.2,8.7c4.1,2.4,9.6,3.6,15,3.6s10.8-1.2,15-3.6C665,474.5,667,471.4,667.1,468.2L667.1,468.2L667.1,468.2
							L667.1,468.2L667.1,468.2z"/>
						<path class="st38" d="M660.9,459.6c-8.3-4.8-21.7-4.8-30,0l15,8.6L660.9,459.6z"/>
					</g>
					<path class="st43" d="M660.9,454c-8.3-4.8-21.7-4.8-30,0s-8.3,12.5,0,17.3c4.1,2.4,9.6,3.6,15,3.6s10.8-1.2,15-3.6
						c4.1-2.4,6.2-5.5,6.2-8.6S665,456.4,660.9,454z"/>
				</g>
			</g>
			<g>
				<g>
					<g>
						<path class="st44" d="M663.1,461.8v-5l-1.3,2v1.2l-15.6,1.8l-11.9-6.9c-2,1.2-3.4,0.7-4.2,2.2l-0.8-0.3v4.9
							c0,2.5,1.6,5,4.9,6.9c3.3,1.9,7.6,2.9,11.9,2.9s8.6-1,11.9-2.9C661.4,466.8,663.1,464.4,663.1,461.8L663.1,461.8L663.1,461.8
							L663.1,461.8L663.1,461.8z"/>
						<path class="st38" d="M658.2,454.9c-6.6-3.8-17.3-3.8-23.9,0l11.9,6.9L658.2,454.9z"/>
					</g>
					<path class="st45" d="M658.2,449.9c-6.6-3.8-17.3-3.8-23.9,0c-6.6,3.8-6.6,10,0,13.8c3.3,1.9,7.6,2.9,11.9,2.9s8.6-1,11.9-2.9
						c3.3-1.9,4.9-4.4,4.9-6.9C663.1,454.3,661.5,451.8,658.2,449.9z"/>
				</g>
			</g>
		</g>
	</g>
	<g>
		<g>
			<g>
				<g>
					<g>
						<path class="st37" d="M716.9,505.7v-5.2h-2.3v5.2h-27.1l-20.8-12c-3.5,2-5.9,4.4-7.3,6.9l-1.3-1.3v6.3c0,4.4,2.9,8.7,8.6,12
							c5.7,3.3,13.3,5,20.8,5s15-1.7,20.8-5C714,514.3,716.8,510,716.9,505.7L716.9,505.7L716.9,505.7L716.9,505.7L716.9,505.7z"/>
						<path class="st38" d="M708.3,493.7c-11.5-6.6-30.1-6.6-41.5,0l20.8,12L708.3,493.7z"/>
					</g>
					
						<linearGradient id="SVGID_27_" gradientUnits="userSpaceOnUse" x1="658.175" y1="110.675" x2="716.9342" y2="110.675" gradientTransform="matrix(1 0 0 -1 0 610.0001)">
						<stop  offset="0" style="stop-color:#4CC194"/>
						<stop  offset="0.2836" style="stop-color:#4CD08B"/>
						<stop  offset="0.6803" style="stop-color:#4CE083"/>
						<stop  offset="1" style="stop-color:#4CE580"/>
					</linearGradient>
					<path class="st99" d="M708.3,487.3c-11.5-6.6-30.1-6.6-41.5,0c-11.5,6.6-11.5,17.4,0,24c5.7,3.3,13.3,5,20.8,5s15-1.7,20.8-5
						c5.7-3.3,8.6-7.7,8.6-12C716.9,495,714.1,490.6,708.3,487.3z"/>
				</g>
			</g>
			<g>
				<g>
					<g>
						<path class="st40" d="M713.8,497.4v-4.6h-2v4.7h-24.2l-18.5-10.7c-3.1,1.8-5.3,3.9-6.5,6.2l-1.2-1.2v5.7
							c0,3.9,2.5,7.8,7.7,10.7c5.1,3,11.8,4.4,18.5,4.4s13.4-1.5,18.5-4.4s7.6-6.7,7.7-10.6l0,0V497.4
							C713.8,497.5,713.8,497.5,713.8,497.4L713.8,497.4z"/>
						<path class="st38" d="M706.1,486.7c-10.2-5.9-26.8-5.9-37.1,0l18.5,10.7L706.1,486.7z"/>
					</g>
					<path class="st41" d="M706.1,481.1c-10.2-5.9-26.8-5.9-37.1,0c-10.2,5.9-10.2,15.5,0,21.4c5.1,3,11.8,4.4,18.5,4.4
						s13.4-1.5,18.5-4.4c5.1-3,7.7-6.8,7.7-10.7C713.8,487.9,711.2,484,706.1,481.1z"/>
				</g>
			</g>
			<g>
				<g>
					<g>
						<path class="st42" d="M708.7,491.2v-5.4l-1.6,1.7v1.6l-19.5,2.2l-15-8.6c-2.5,1.4-4.2,0.9-5.2,2.8l-1,0.4v5.5
							c0,3.1,2.1,6.3,6.2,8.7c4.1,2.4,9.6,3.6,15,3.6s10.8-1.2,15-3.6C706.6,497.5,708.7,494.4,708.7,491.2L708.7,491.2L708.7,491.2
							L708.7,491.2L708.7,491.2z"/>
						<path class="st38" d="M702.5,482.6c-8.3-4.8-21.7-4.8-30,0l15,8.6L702.5,482.6z"/>
					</g>
					<path class="st43" d="M702.5,477c-8.3-4.8-21.7-4.8-30,0s-8.3,12.5,0,17.3c4.1,2.4,9.6,3.6,15,3.6s10.8-1.2,15-3.6
						c4.1-2.4,6.2-5.5,6.2-8.6S706.7,479.4,702.5,477z"/>
				</g>
			</g>
			<g>
				<g>
					<g>
						<path class="st44" d="M704.8,484.8v-5l-1.3,2v1.2l-15.6,1.8l-11.9-6.9c-2,1.2-3.4,0.7-4.2,2.2l-0.8-0.3v4.9
							c0,2.5,1.6,5,4.9,6.9c3.3,1.9,7.6,2.9,11.9,2.9c4.3,0,8.6-1,11.9-2.9C703.1,489.8,704.8,487.4,704.8,484.8L704.8,484.8
							L704.8,484.8L704.8,484.8L704.8,484.8z"/>
						<path class="st38" d="M699.8,477.9c-6.6-3.8-17.3-3.8-23.9,0l11.9,6.9L699.8,477.9z"/>
					</g>
					<path class="st45" d="M699.8,472.9c-6.6-3.8-17.3-3.8-23.9,0c-6.6,3.8-6.6,10,0,13.8c3.3,1.9,7.6,2.9,11.9,2.9
						c4.3,0,8.6-1,11.9-2.9c3.3-1.9,4.9-4.4,4.9-6.9C704.8,477.3,703.1,474.8,699.8,472.9z"/>
				</g>
			</g>
		</g>
	</g>
	<g>
		<g>
			<polygon class="st3" points="587.8,210.8 592.7,213.9 588,216.1 			"/>
			<polygon class="st5" points="430.9,557.6 425.8,554.4 430.2,551.4 			"/>
			<g>
				<g>
					<path class="st6" d="M588.4,458.3c0,1.8-1.5,4.2-3.3,5.2l-156.9,90.6c-1.8,1.1-3.3,0.4-3.3-1.4V306.8c0-1.8,1.5-4.1,3.3-5.2
						L585.1,211c1.8-1.1,3.3-0.4,3.3,1.4L588.4,458.3L588.4,458.3z"/>
					<path class="st5" d="M424.9,306.8v245.9c0,1.8,1.5,2.4,3.3,1.4l84.5-48.8l-80-197.7l-6.7-3.7
						C425.3,304.9,424.9,305.9,424.9,306.8z"/>
					<path class="st3" d="M585.1,211.1l-156.9,90.6c-0.9,0.5-1.7,1.3-2.3,2.2l6.2,3.5l80.5,197.9l72.4-41.8c1.8-1,3.3-3.4,3.3-5.2
						V212.4C588.4,210.6,587,210,585.1,211.1z"/>
					<path class="st4" d="M593.5,461.4c0,1.8-1.5,4.2-3.3,5.2l-156.9,90.6c-1.8,1.1-3.3,0.4-3.3-1.4V310c0-1.8,1.5-4.2,3.3-5.2
						l156.9-90.6c1.8-1.1,3.3-0.4,3.3,1.4V461.4z"/>
					<polygon class="st64" points="588,456.5 435.5,544.6 435.5,314.9 588,226.9 					"/>
					<polygon class="st3" points="585.1,228.5 585.1,454.8 435.5,541.2 435.5,544.6 588,456.5 588,226.9 					"/>
					<line class="st8" x1="588" y1="226.9" x2="588" y2="456.5"/>
					<path class="st6" d="M514.4,263.9c0,1.5-1.2,3.4-2.7,4.2c-1.5,0.9-2.7,0.3-2.7-1.1c0-1.5,1.2-3.4,2.7-4.2
						C513.2,261.9,514.4,262.4,514.4,263.9z"/>
				</g>
			</g>
		</g>
		<g>
			<g>
				<g>
					<path class="st44" d="M545.8,452.8l20.5-83.1c0-6.7-8.3-9.7-14.1-6.4c-5.8,3.3-10.4,11.4-10.4,18.1v69.8L545.8,452.8z"/>
					<g>
						<path class="st100" d="M517,469.4l20.5-112c0-6.7-8.3-9.7-14-6.4c-5.8,3.3-10.4,11.4-10.4,18.1v98.7L517,469.4z"/>
					</g>
					<path class="st61" d="M488.2,486.1L509,336.4c0-6.7-8.6-10-14.4-6.6c-5.8,3.3-10.4,11.4-10.4,18.1v136.6L488.2,486.1z"/>
					<path class="st62" d="M459.4,502.7l20.8-65.4c0-6.7-8.6-9.9-14.4-6.5c-5.8,3.3-10.4,11.4-10.4,18.1v52.2L459.4,502.7z"/>
				</g>
			</g>
			<g>
				<g>
					<path class="st45" d="M566.7,440.7v-69.8c0-6.7-4.7-9.4-10.4-6c-5.8,3.3-10.4,11.4-10.4,18.1v69.8L566.7,440.7z"/>
					<g>
						<path class="st101" d="M537.8,457.4v-98.6c0-6.7-4.7-9.4-10.4-6c-5.8,3.3-10.4,11.4-10.4,18.1v98.6L537.8,457.4z"/>
					</g>
					
						<linearGradient id="SVGID_28_" gradientUnits="userSpaceOnUse" x1="498.6" y1="123.9" x2="498.6" y2="280.0704" gradientTransform="matrix(1 0 0 -1 0 610.0001)">
						<stop  offset="0" style="stop-color:#4CC194"/>
						<stop  offset="0.2836" style="stop-color:#4CD08B"/>
						<stop  offset="0.6803" style="stop-color:#4CE083"/>
						<stop  offset="1" style="stop-color:#4CE580"/>
					</linearGradient>
					<path class="st102" d="M509,474V337.4c0-6.7-4.7-9.4-10.4-6c-5.8,3.3-10.4,11.4-10.4,18.1v136.6L509,474z"/>
					<path class="st67" d="M480.2,490.6v-52.2c0-6.7-4.7-9.4-10.4-6c-5.8,3.3-10.4,11.4-10.4,18.1v52.2L480.2,490.6z"/>
				</g>
			</g>
		</g>
	</g>
	<g>
		<polygon class="st103" points="674.2,516.4 679,519.3 679,513.6 		"/>
		<polygon class="st10" points="429.1,562 429.1,556.4 436.7,556.6 		"/>
		<g>
			<path class="st11" d="M514.4,612.2c1.6,0.9,4.3,0.8,6.2-0.3l156.9-90.6c1.8-1.1,2-2.6,0.4-3.6l-84.2-48.6
				c-1.6-0.9-4.3-0.8-6.2,0.3L430.6,560c-1.8,1.1-2,2.6-0.4,3.6L514.4,612.2z"/>
			<path class="st9" d="M677.9,517.8l-84.2-48.6c-1.6-0.9-4.3-0.8-6.2,0.3l-70.3,40.6v102.7c1.2,0,2.4-0.3,3.4-0.9l156.9-90.6
				C679.3,520.3,679.5,518.7,677.9,517.8z"/>
			<path class="st5" d="M430.6,560c-1.8,1.1-2,2.6-0.4,3.6l84.2,48.6c0.7,0.4,1.7,0.6,2.8,0.6V510L430.6,560z"/>
			<path class="st3" d="M514.4,606.5c1.6,0.9,4.3,0.8,6.2-0.3l156.9-90.6c1.8-1.1,2-2.6,0.4-3.6l-84.2-48.6
				c-1.6-0.9-4.3-0.8-6.2,0.3l-156.9,90.6c-1.8,1.1-2,2.6-0.4,3.6L514.4,606.5z"/>
			<g>
				<path class="st12" d="M613.3,541.3l3.3,1.9c1,0.6,0.9,1.5-0.3,2.2L572,571c-1.1,0.6-2.8,0.7-3.8,0.2l-3.3-1.9L613.3,541.3z"/>
				<path class="st12" d="M563.6,568.4l-17.3-10c-1-0.6-0.8-1.5,0.3-2.2l44.3-25.6c1.1-0.6,2.8-0.7,3.8-0.2l17.3,10L563.6,568.4z"/>
				<g>
					<polygon class="st12" points="589.7,487.2 602.3,479.9 593.3,474.7 580.7,482 					"/>
					<polygon class="st12" points="593,499 614.1,486.8 605.1,481.6 584,493.8 					"/>
					<polygon class="st12" points="576.6,508.4 589.9,500.8 580.9,495.6 567.6,503.2 					"/>
					<polygon class="st12" points="560.1,518 573.4,510.3 564.4,505.1 551.1,512.8 					"/>
					<polygon class="st12" points="543.6,527.5 556.9,519.8 547.8,514.6 534.6,522.3 					"/>
					<polygon class="st12" points="527.1,537 540.3,529.4 531.3,524.2 518.1,531.8 					"/>
					<polygon class="st12" points="510.6,546.6 523.8,538.9 514.8,533.7 501.5,541.4 					"/>
					<polygon class="st12" points="494,556.1 507.3,548.4 498.3,543.2 485,550.9 					"/>
					<polygon class="st12" points="470.6,569.7 490.8,558 481.8,552.8 461.5,564.5 					"/>
					<polygon class="st12" points="596.2,510.6 625.9,493.5 616.8,488.3 587.2,505.4 					"/>
					<polygon class="st12" points="579.8,520.1 593.1,512.4 584.1,507.2 570.8,514.9 					"/>
					<polygon class="st12" points="563.3,529.6 576.6,522 567.6,516.8 554.3,524.4 					"/>
					<polygon class="st12" points="546.8,539.2 560.1,531.5 551.1,526.3 537.8,534 					"/>
					<polygon class="st12" points="530.3,548.7 543.6,541.1 534.5,535.9 521.3,543.5 					"/>
					<polygon class="st12" points="513.8,558.3 527,550.6 518,545.4 504.8,553 					"/>
					<polygon class="st12" points="482.3,576.4 510.5,560.1 501.5,554.9 473.3,571.2 					"/>
					<polygon class="st12" points="542.1,555.5 604.9,519.3 595.9,514 533.1,550.3 					"/>
					<polygon class="st12" points="573.3,496.7 585.9,489.4 576.9,484.2 564.3,491.5 					"/>
					<polygon class="st12" points="625,507.6 637.6,500.4 628.6,495.1 616,502.4 					"/>
					<polygon class="st12" points="608.7,517.1 621.3,509.8 612.3,504.6 599.6,511.9 					"/>
					<polygon class="st12" points="556.9,506.1 569.6,498.8 560.5,493.6 547.9,500.9 					"/>
					<polygon class="st12" points="540.6,515.6 553.2,508.3 544.2,503.1 531.6,510.4 					"/>
					<polygon class="st12" points="524.2,525 536.8,517.7 527.8,512.5 515.2,519.8 					"/>
					<polygon class="st12" points="507.8,534.5 520.5,527.2 511.4,522 498.8,529.3 					"/>
					<polygon class="st12" points="491.5,543.9 504.1,536.6 495.1,531.4 482.5,538.7 					"/>
					<polygon class="st12" points="475.1,553.4 487.7,546.1 478.7,540.9 466.1,548.2 					"/>
					<polygon class="st12" points="458.7,562.8 471.3,555.5 462.3,550.3 449.7,557.6 					"/>
					<polygon class="st12" points="525.6,565.1 538.8,557.4 529.8,552.2 516.5,559.9 					"/>
					<polygon class="st12" points="509.9,574.1 522.5,566.9 513.4,561.6 500.8,568.9 					"/>
					<polygon class="st12" points="494.1,583.2 506.7,576 497.7,570.7 485.1,578 					"/>
				</g>
			</g>
		</g>
		<g>
			<polygon class="st13" points="501.2,600.3 510.6,605.7 510.6,608.8 501.2,603.4 			"/>
			<polygon class="st14" points="503.8,601.8 510.6,605.7 510.6,608.8 501.2,603.4 			"/>
		</g>
		<g>
			<polygon class="st13" points="432.9,560.8 442.3,566.2 442.3,569.3 432.9,563.9 			"/>
			<polygon class="st14" points="435.5,562.3 442.3,566.2 442.3,569.3 432.9,563.9 			"/>
		</g>
		<g>
			<polygon class="st13" points="443.9,567.1 453.3,572.5 453.3,575.7 443.9,570.2 			"/>
			<polygon class="st14" points="446.5,568.6 453.3,572.5 453.3,575.7 443.9,570.2 			"/>
		</g>
	</g>
</g>
</svg>
