<?xml version="1.0" encoding="utf-8"?>
<!-- Generator: Adobe Illustrator 25.1.0, SVG Export Plug-In . SVG Version: 6.00 Build 0)  -->
<svg version="1.1" id="Layer_1" xmlns="http://www.w3.org/2000/svg" xmlns:xlink="http://www.w3.org/1999/xlink" x="0px" y="0px"
	 viewBox="0 0 612 792" style="enable-background:new 0 0 612 792;" xml:space="preserve">
<style type="text/css">
	.st0{opacity:0;fill:#D6D8E5;enable-background:new    ;}
	.st1{opacity:0.85;fill:#5D4EE6;enable-background:new    ;}
	.st2{fill:#8C50FF;}
	.st3{opacity:0.8;fill:#4139E2;enable-background:new    ;}
	.st4{fill:#5D4EE6;}
	.st5{fill:#E9EAF2;}
	.st6{opacity:0.1;enable-background:new    ;}
	.st7{opacity:0.15;enable-background:new    ;}
	.st8{fill:#FFCEA9;}
	.st9{fill:#38226D;}
	.st10{fill:#9C73FF;}
	.st11{fill:#1351A8;}
	.st12{fill:#F4F4F4;}
	.st13{fill:#3A2C6D;}
	.st14{fill:#BFBFBF;}
	.st15{fill:#E5E5E5;}
	.st16{fill:#2C1F6B;}
	.st17{fill:#EDEDED;}
</style>
<polygon class="st0" points="244.8,739.8 147.7,683.5 244.8,627.7 341.9,683.5 "/>
<polygon class="st0" points="398.7,649.9 301.6,594.1 398.7,537.8 495.3,594.1 "/>
<polygon class="st1" points="456.1,113.7 359,57.9 456.1,1.5 553.2,57.9 "/>
<polygon class="st2" points="456.1,617.4 359,561.6 359,57.9 456.1,113.7 "/>
<polygon class="st3" points="456.1,617.4 359,561.6 359,57.9 456.1,113.7 "/>
<polygon class="st2" points="553.2,561.6 456.1,617.4 456.1,113.7 553.2,57.9 "/>
<polygon class="st4" points="553.2,561.6 456.1,617.4 456.1,113.7 553.2,57.9 "/>
<polygon class="st5" points="310.4,365.8 213.8,309.5 310.4,253.7 407.5,309.5 "/>
<polygon class="st5" points="310.4,701.1 213.8,645.3 213.8,309.5 310.4,365.8 "/>
<polygon class="st6" points="310.4,701.1 213.8,645.3 213.8,309.5 310.4,365.8 "/>
<polygon class="st5" points="407.5,645.3 310.4,701.1 310.4,365.8 407.5,309.5 "/>
<polygon class="st7" points="407.5,645.3 310.4,701.1 310.4,365.8 407.5,309.5 "/>
<polygon class="st1" points="155.9,631.3 58.8,575.5 155.9,519.7 252.5,575.5 "/>
<polygon class="st2" points="155.9,792 58.8,736.2 58.8,575.5 155.9,631.3 "/>
<polygon class="st3" points="155.9,792 58.8,736.2 58.8,575.5 155.9,631.3 "/>
<polygon class="st2" points="252.5,736.2 155.9,792 155.9,631.3 252.5,575.5 "/>
<polygon class="st4" points="252.5,736.2 155.9,792 155.9,631.3 252.5,575.5 "/>
<g id="Men_11">
	<path id="_Контур_15" class="st8" d="M319.7,223.7c7.2,13.4,16.5,25.3,26.9,36.7c3.1,3.1,25.3-5.2,20.7-7.8
		c-4.6-2.6-19.1-22.7-26.3-36.2c-6.2-16-11.4-33.1-15.5-49.6c-4.6-16.5-8.8-40.8-11.9-52.7c-1.5-8.8-8.3-15.5-17-17.6
		c-7.8-2.1-13.4,0.5-11.9,9.8C286.6,124,300.1,190.1,319.7,223.7z"/>
	<path class="st9" d="M306.8,483.1c6.7,5.7,17,0.5,17.6,1c8.3,7.8,16.5,14.5,25.3,21.2c4.1,3.1,10.9,7.8,9.8,14.5
		c-2.1,11.9-20.7,8.3-27.9,4.7c-7.2-3.6-12.9-9.3-19.6-13.4c-4.6-3.1-9.3-4.6-10.3-10.3C302.1,497,305.7,483.1,306.8,483.1z"/>
	<path class="st10" d="M302.6,498c1,5.7,5.7,7.2,10.3,10.3c6.7,4.1,12.9,10.3,19.6,13.9c6.7,3.6,22.7,6.7,27.4-1.5
		c-2.6,11.4-20.7,7.7-27.9,4.1c-7.2-3.6-12.9-9.3-19.6-13.4c-4.6-3.1-9.3-4.6-10.3-10.3C302.1,499.6,302.6,498.6,302.6,498z"/>
	<path class="st9" d="M377,442.8c6.7,5.7,19.1-0.5,19.6,0c7.2,7.2,15,14.5,22.7,20.7c4.1,3.6,10.8,7.7,9.8,14.5
		c-2.1,11.9-20.7,8.3-27.9,4.6c-7.2-3.6-12.9-9.3-19.6-13.4c-4.6-3.1-9.3-4.6-10.3-10.3C371.9,452.6,373.9,447.4,377,442.8z"/>
	<path class="st10" d="M371.9,456.7c1,5.7,5.7,7.2,10.3,10.3c6.7,4.1,12.9,10.3,19.6,13.9s22.7,6.7,27.4-1.5
		c-2.6,11.4-20.7,7.7-27.9,4.1c-7.2-3.6-12.9-9.3-19.6-13.4c-4.6-3.1-9.3-4.6-10.3-10.3C371.9,458.3,371.9,457.2,371.9,456.7z"/>
	<path id="_Контур_16" class="st11" d="M214.3,261.4c-7.8,48,13.4,65.6,41.3,75.9c19.6,7.2,48,18.6,48,18.6
		s-0.5,10.3-0.5,34.1c0,20.7,2.6,96.6,2.6,96.6c6.7,3.6,14.5,3.6,21.2,0c0,0,11.4-57.9,13.4-84.2c3.1-35.6,8.8-58.9,6.7-66.6
		c-1.5-6.7-40.3-25.8-52.7-36.2L376,327c-1.5,8.8-2.1,17.6-2.1,26.9c0.5,27.9,2.1,89.4,2.1,89.4s11.4,8.3,20.7,0
		c0,0,20.7-120.9,18.1-136.9c-2.6-15-73.9-46-86.8-56.8c-4.6-3.6-10.3-5.2-16-4.1L214.3,261.4z"/>
	<g id="_Группа_3">
		<g id="_Группа_4">
			<path id="_Контур_17" class="st12" d="M409.6,281.6l-54.8-31.5c-1-0.5-2.1-0.5-3.1,0l-95.6,55.3l55.8,32.5L409.6,281.6z"/>
			<path class="st13" d="M309.4,326.5l-4.1,2.6c-0.5,0-0.5,0.5,0,0.5l4.1,2.1c0.5,0,1,0,1.5,0l4.1-2.6c0.5,0,0.5-0.5,0-0.5l-4.1-2.1
				C310.4,326,309.9,326,309.4,326.5z"/>
			<path class="st13" d="M315.6,322.9l-4.1,2.6c-0.5,0,0,0.5,0,0.5l4.1,2.1c0.5,0,1,0,1.5,0l4.1-2.6c0.5,0,0.5-0.5,0-0.5l-4.1-2.1
				C316.6,322.4,316.1,322.4,315.6,322.9z"/>
			<path class="st13" d="M321.2,319.3l-4.1,2.6c-0.5,0-0.5,0.5,0,0.5l4.1,2.1c0.5,0,1,0,1.6,0l4.1-2.6c0.5,0,0.5-0.5,0-0.5l-4.1-2.1
				C322.3,319.3,321.8,319.3,321.2,319.3z"/>
			<path class="st13" d="M327.4,316.2l-4.1,2.6c-0.5,0-0.5,0.5,0,0.5l4.1,2.1c0.5,0,1,0,1.5,0l4.1-2.6c0.5,0,0-0.5,0-0.5l-4.1-2.1
				C328.5,315.7,327.4,315.7,327.4,316.2z"/>
			<path class="st13" d="M333.1,312.6l-4.1,2.6c-0.5,0-0.5,0.5,0,0.5l4.1,2.1c0.5,0,1,0,1.5,0l4.1-2.6c0.5,0,0.5-0.5,0-0.5l-4.1-2.1
				C334.2,312,333.6,312,333.1,312.6z"/>
			<path class="st13" d="M339.3,308.9l-4.1,2.6c-0.5,0-0.5,0.5,0,0.5l4.1,2.1c0.5,0,1,0,1.5,0l4.1-2.6c0.5,0,0.5-0.5,0-0.5l-4.1-2.1
				C339.8,308.9,339.3,308.9,339.3,308.9z"/>
			<path class="st13" d="M345,305.8l-4.1,2.6c-0.5,0-0.5,0.5,0,0.5l4.1,2.1c0.5,0,1,0,1.5,0l4.1-2.6c0.5,0,0.5-0.5,0-0.5l-4.1-2.1
				C346,305.3,345.5,305.3,345,305.8z"/>
			<path class="st13" d="M350.7,302.2l-4.1,2.6c-0.5,0-0.5,0.5,0,0.5l4.1,2.1c0.5,0,1,0,1.5,0l4.1-2.6c0.5,0,0.5-0.5,0-0.5l-4.1-2.1
				C351.7,302.2,351.2,302.2,350.7,302.2z"/>
			<path class="st13" d="M356.9,298.6l-4.1,2.6c-0.5,0,0,0.5,0,0.5l4.1,2.1c0.5,0,1,0,1.5,0l4.1-2.6c0.5,0,0-0.5,0-0.5l-4.1-2.1
				C357.4,298.6,357.4,298.6,356.9,298.6z"/>
			<path class="st13" d="M362.6,295.5l-4.1,2.1c-0.5,0-0.5,0.5,0,0.5l4.1,2.1c0.5,0,1,0,1.5,0l4.1-2.6c0.5,0,0-0.5,0-0.5l-4.1-2.1
				C363.6,295,363.1,295,362.6,295.5z"/>
			<path class="st13" d="M368.8,291.9l-4.1,2.6c-0.5,0-0.5,0.5,0,0.5l4.1,2.1c0.5,0,1,0,1.5,0l4.1-2.1c0.5,0,0.5-0.5,0-0.5l-4.1-2.1
				C369.3,291.9,368.8,291.9,368.8,291.9z"/>
			<path class="st13" d="M374.5,288.8l-4.1,2.6c-0.5,0-0.5,0.5,0,0.5l4.1,2.1c0.5,0,1,0,1.5,0l4.1-2.6c0.5,0,0.5-0.5,0-0.5l-4.1-2.1
				C375.5,288.3,375,288.3,374.5,288.8z"/>
			<path class="st13" d="M380.1,285.2l-4.1,2.6c-0.5,0-0.5,0.5,0,0.5l4.1,2.1c0.5,0,1,0,1.5,0l4.1-2.6c0.5,0,0.5-0.5,0-0.5l-4.1-2.1
				C381.2,285.2,380.7,285.2,380.1,285.2z"/>
			<path class="st13" d="M389.4,280l-7.2,4.1c-0.5,0-0.5,0.5,0,0.5l4.1,2.1c0.5,0,1,0,1.5,0l6.7-4.1c0.5,0,0.5-0.5,0-0.5l-4.1-2.1
				C390,280,389.4,280,389.4,280z"/>
			<path class="st13" d="M312.5,317.7l-4.1,2.6c-0.5,0-0.5,0.5,0,0.5l4.1,2.1c0.5,0,1,0,1.5,0l4.1-2.6c0.5,0,0.5-0.5,0-0.5l-4.1-2.1
				C313.5,317.7,313,317.7,312.5,317.7z"/>
			<path class="st13" d="M318.7,314.1l-4.1,2.6c-0.5,0-0.5,0.5,0,0.5l4.1,2.1c0.5,0,1,0,1.5,0l4.1-2.6c0.5,0,0.5-0.5,0-0.5l-4.1-2.1
				C319.2,314.1,318.7,314.1,318.7,314.1z"/>
			<path class="st13" d="M324.3,311l-4.1,2.6c-0.5,0-0.5,0.5,0,0.5l4.1,2.1c0.5,0,1,0,1.5,0l4.1-2.6c0.5,0,0-0.5,0-0.5l-4.1-2.1
				C325.4,310.5,324.9,310.5,324.3,311z"/>
			<path class="st13" d="M330.5,307.4l-4.1,2.6c-0.5,0-0.5,0.5,0,0.5l4.1,2.1c0.5,0,1,0,1.5,0l4.1-2.6c0.5,0,0.5-0.5,0-0.5l-4.1-2.1
				C331.1,307.4,330.5,307.4,330.5,307.4z"/>
			<path class="st13" d="M336.2,304.3l-4.1,2.6c-0.5,0,0,0.5,0,0.5l4.1,2.1c0.5,0,1,0,1.6,0l4.1-2.6c0.5,0,0.5-0.5,0-0.5l-4.1-2.1
				C337.3,303.8,336.7,303.8,336.2,304.3z"/>
			<path class="st13" d="M341.9,300.7l-4.1,2.1c-0.5,0-0.5,0.5,0,0.5l4.1,2.1c0.5,0,1,0,1.5,0l4.1-2.6c0.5,0,0.5-0.5,0-0.5l-4.1-2.1
				C342.9,300.2,342.4,300.2,341.9,300.7z"/>
			<path class="st13" d="M348.1,297.1l-4.1,2.6c-0.5,0-0.5,0.5,0,0.5l4.1,2.1c0.5,0,1,0,1.5,0l4.1-2.6c0.5,0,0.5-0.5,0-0.5l-4.1-2.1
				C348.6,297.1,348.1,297.1,348.1,297.1z"/>
			<path class="st13" d="M353.8,294l-4.1,2.6c-0.5,0,0,0.5,0,0.5l4.1,2.1c0.5,0,1,0,1.5,0l4.1-2.6c0.5,0,0.5-0.5,0-0.5l-4.1-2.1
				C354.8,294,354.3,294,353.8,294z"/>
			<path class="st13" d="M360,290.3l-4.1,2.6c-0.5,0-0.5,0.5,0,0.5l4.1,2.1c0.5,0,1,0,1.5,0l4.1-2.6c0.5,0,0.5-0.5,0-0.5l-4.1-2.1
				C360.5,290.3,360,290.3,360,290.3z"/>
			<path class="st13" d="M365.7,287.2l-4.1,2.1c-0.5,0-0.5,0.5,0,0.5l4.1,2.1c0.5,0,1,0,1.5,0l4.1-2.6c0.5,0,0.5-0.5,0-0.5l-4.1-2.1
				C366.7,286.7,366.2,286.7,365.7,287.2z"/>
			<path class="st13" d="M371.9,283.6l-4.1,2.6c-0.5,0,0,0.5,0,0.5l4.1,2.1c0.5,0,1,0,1.5,0l4.1-2.6c0.5,0,0.5-0.5,0-0.5l-4.1-2.1
				C372.4,283.6,371.9,283.6,371.9,283.6z"/>
			<path class="st13" d="M377.6,280l-4.1,2.6c-0.5,0-0.5,0.5,0,0.5l4.1,2.1c0.5,0,1,0,1.5,0l4.1-2.6c0.5,0,0.5-0.5,0-0.5l-4.1-2.1
				C378.6,280,378.1,280,377.6,280z"/>
			<path class="st13" d="M306.8,321.3l-7.2,4.1c-0.5,0,0,0.5,0,0.5l4.1,2.1c0.5,0,1,0,1.5,0l7.2-4.1c0.5,0,0-0.5,0-0.5l-4.1-2.1
				C307.3,320.8,307.3,320.8,306.8,321.3z"/>
			<path class="st13" d="M388.9,280l-4.1,2.6c-0.5,0-1,0-1,0l-4.6-2.6c0,0-0.5-0.5,0-0.5l0,0l0,0c0.5,0,0.5-0.5,0-0.5l-4.6-2.6
				c-0.5,0-0.5-0.5,0-0.5l2.6-1.5c0.5,0,1,0,1,0l4.1,2.6l1,0.5l0.5,0.5l0.5,0.5L388.9,280C389.4,279.5,389.4,280,388.9,280z"/>
			<path class="st13" d="M286.6,313.1l-4.1,2.1c-0.5,0-0.5,0.5,0,0.5l4.1,2.1c0.5,0,1,0,1.5,0l4.1-2.6c0.5,0,0.5-0.5,0-0.5l-4.1-2.1
				C287.7,312.6,287.1,312.6,286.6,313.1z"/>
			<path class="st13" d="M292.8,309.5l-4.1,2.6c-0.5,0-0.5,0.5,0,0.5l4.1,2.1c0.5,0,1,0,1.5,0l4.1-2.6c0.5,0,0.5-0.5,0-0.5l-4.1-2.1
				C293.3,309.5,292.8,309.5,292.8,309.5z"/>
			<path class="st13" d="M298.5,305.8l-4.1,2.6c-0.5,0-0.5,0.5,0,0.5l4.1,2.1c0.5,0,1,0,1.5,0l4.1-2.6c0.5,0,0.5-0.5,0-0.5l-4.1-2.1
				C299.5,305.8,299,305.8,298.5,305.8z"/>
			<path class="st13" d="M348.6,276.9l-4.1,2.6c-0.5,0-0.5,0.5,0,0.5l4.1,2.1c0.5,0,1,0,1.5,0l4.1-2.6c0.5,0,0.5-0.5,0-0.5l-4.1-2.1
				C349.7,276.9,349.1,276.9,348.6,276.9z"/>
			<path class="st13" d="M354.3,273.8l-4.1,2.6c-0.5,0-0.5,0.5,0,0.5l4.1,2.1c0.5,0,1,0,1.5,0l4.1-2.6c0.5,0,0.5-0.5,0-0.5l-4.1-2.1
				C355.3,273.8,354.8,273.8,354.3,273.8z"/>
			<path class="st13" d="M360.5,270.2l-4.1,2.6c-0.5,0-0.5,0.5,0,0.5l4.1,2.1c0.5,0,1,0,1.5,0l4.1-2.6c0.5,0,0.5-0.5,0-0.5l-4.1-2.1
				C361,270.2,360.5,270.2,360.5,270.2z"/>
			<path class="st13" d="M366.2,267.1l-4.1,2.6c-0.5,0-0.5,0.5,0,0.5l4.1,2.1c0.5,0,1,0,1.5,0l4.1-2.6c0.5,0,0-0.5,0-0.5l-4.1-2.1
				C367.2,266.6,366.7,266.6,366.2,267.1z"/>
			<path class="st13" d="M305.7,301.7l-5.7,3.1c-0.5,0,0,0.5,0,0.5l4.1,2.1c0.5,0,1,0,1.5,0l5.7-3.1c0.5,0,0.5-0.5,0-0.5l-4.1-2.1
				C306.8,301.7,306.3,301.7,305.7,301.7z"/>
			<path class="st13" d="M342.9,280.5l-5.7,3.1c-0.5,0-0.5,0.5,0,0.5l4.1,2.1c0.5,0,1,0,1.5,0l5.7-3.1c0.5,0,0.5-0.5,0-0.5l-4.1-2.1
				C343.5,280.5,342.9,280.5,342.9,280.5z"/>
			<path class="st13" d="M335.2,285.2l-27.9,16c-0.5,0-0.5,0.5,0,0.5l4.1,2.1c0.5,0,1,0,1.5,0l27.9-16c0.5,0,0.5-0.5,0-0.5l-4.1-2.1
				C336.2,284.7,335.7,284.7,335.2,285.2z"/>
			<path class="st13" d="M308.3,313.6l-4.1,2.6c-0.5,0-0.5,0.5,0,0.5l4.1,2.1c0.5,0,1,0,1.5,0l4.1-2.6c0.5,0,0.5-0.5,0-0.5l-4.1-2.1
				C309.4,313.1,308.8,313.1,308.3,313.6z"/>
			<path class="st13" d="M314.5,310l-4.1,2.6c-0.5,0-0.5,0.5,0,0.5l4.1,2.1c0.5,0,1,0,1.5,0l4.1-2.6c0.5,0,0.5-0.5,0-0.5l-4.6-2.1
				C315,310,314.5,310,314.5,310z"/>
			<path class="st13" d="M320.2,306.9l-4.1,2.6c-0.5,0,0,0.5,0,0.5l4.1,2.1c0.5,0,1,0,1.6,0l4.1-2.6c0.5,0,0.5-0.5,0-0.5l-4.1-2.1
				C321.2,306.4,320.7,306.4,320.2,306.9z"/>
			<path class="st13" d="M326.4,303.3l-4.1,2.6c-0.5,0,0,0.5,0,0.5l4.1,2.1c0.5,0,1,0,1.5,0l4.1-2.6c0.5,0,0.5-0.5,0-0.5l-4.6-2.1
				C326.9,303.3,326.4,303.3,326.4,303.3z"/>
			<path class="st13" d="M332.1,300.2l-4.1,2.6c-0.5,0,0,0.5,0,0.5l4.1,2.1c0.5,0,1,0,1.5,0l4.1-2.6c0.5,0,0.5-0.5,0-0.5l-4.1-2.1
				C333.1,299.6,332.6,299.6,332.1,300.2z"/>
			<path class="st13" d="M337.8,296.5l-4.1,2.6c-0.5,0,0,0.5,0,0.5l4.1,2.1c0.5,0,1,0,1.5,0l3.6-2.1c0.5,0,0.5-0.5,0-0.5l-4.1-2.1
				C338.8,296.5,338.3,296.5,337.8,296.5z"/>
			<path class="st13" d="M344,292.9l-4.1,2.6c-0.5,0,0,0.5,0,0.5l4.1,2.1c0.5,0,1,0,1.5,0l4.1-2.6c0.5,0,0-0.5,0-0.5l-4.1-2.1
				C344.5,292.9,344.5,292.9,344,292.9z"/>
			<path class="st13" d="M349.7,289.8l-4.1,2.6c-0.5,0,0,0.5,0,0.5l4.1,2.1c0.5,0,1,0,1.5,0l4.1-2.6c0.5,0,0-0.5,0-0.5l-4.1-2.1
				C350.7,289.3,350.2,289.3,349.7,289.8z"/>
			<path class="st13" d="M355.9,286.2l-4.1,2.6c-0.5,0,0,0.5,0,0.5l4.1,2.1c0.5,0,1,0,1.5,0l4.1-2.6c0.5,0,0-0.5,0-0.5l-4.1-2.1
				C356.4,286.2,355.9,286.2,355.9,286.2z"/>
			<path class="st13" d="M361.5,283.1l-4.1,2.6c-0.5,0-0.5,0.5,0,0.5l4.1,2.1c0.5,0,1,0,1.5,0l4.1-2.6c0.5,0,0-0.5,0-0.5l-4.1-2.1
				C362.6,282.6,362.1,282.6,361.5,283.1z"/>
			<path class="st13" d="M367.2,279.5l-4.1,2.6c-0.5,0-0.5,0.5,0,0.5l4.1,2.1c0.5,0,1,0,1.6,0l4.1-2.6c0.5,0,0-0.5,0-0.5l-4.1-1.5
				C368.3,279.5,367.7,279.5,367.2,279.5z"/>
			<path class="st13" d="M373.4,275.9l-4.1,2.6c-0.5,0-0.5,0.5,0,0.5l4.1,2.1c0.5,0,1,0,1.5,0l4.1-2.6c0.5,0,0-0.5,0-0.5l-4.1-2.1
				C374.5,275.9,373.9,275.9,373.4,275.9z"/>
			<path class="st13" d="M302.6,316.7l-8.8,5.2c-0.5,0-0.5,0.5,0,0.5l4.1,2.1c0.5,0,1,0,1.5,0l8.8-5.2c0.5,0,0.5-0.5,0-0.5l-4.1-2.1
				C303.7,316.7,303.2,316.7,302.6,316.7z"/>
			<path class="st13" d="M300.1,312l-4.1,2.6c-0.5,0-0.5,0.5,0,0.5l4.1,2.1c0.5,0,1,0,1.5,0l4.1-2.6c0.5,0,0.5-0.5,0-0.5l-4.1-2.1
				C300.6,311.5,300.1,311.5,300.1,312z"/>
			<path class="st13" d="M305.7,308.4l-4.1,2.6c-0.5,0-0.5,0.5,0,0.5l4.1,2.1c0.5,0,1,0,1.5,0l4.1-2.6c0.5,0,0.5-0.5,0-0.5l-4.6-2.1
				C306.8,308.4,306.3,308.4,305.7,308.4z"/>
			<path class="st13" d="M311.9,305.3l-4.1,2.6c-0.5,0-0.5,0.5,0,0.5l4.1,2.6c0.5,0,1,0,1.5,0l4.1-2.6c0.5,0,0.5-0.5,0-0.5l-4.1-2.1
				C313,304.8,312.5,304.8,311.9,305.3z"/>
			<path class="st13" d="M317.6,301.7l-4.1,2.6c-0.5,0-0.5,0.5,0,0.5l4.1,2.1c0.5,0,1,0,1.5,0l4.1-2.6c0.5,0,0.5-0.5,0-0.5l-4.1-2.1
				C318.7,301.7,318.1,301.7,317.6,301.7z"/>
			<path class="st13" d="M323.3,298.1l-4.1,2.6c-0.5,0-0.5,0.5,0,0.5l4.1,2.1c0.5,0,1,0,1.5,0l4.1-2.6c0.5,0,0.5-0.5,0-0.5l-4.1-2.1
				C324.3,298.1,323.8,298.1,323.3,298.1z"/>
			<path class="st13" d="M329.5,295l-4.1,2.6c-0.5,0-0.5,0.5,0,0.5l4.1,2.1c0.5,0,1,0,1.5,0l4.1-2.6c0.5,0,0.5-0.5,0-0.5L331,295
				C330,294.5,329.5,294.5,329.5,295z"/>
			<path class="st13" d="M335.2,291.4l-4.1,2.6c-0.5,0-0.5,0.5,0,0.5l4.1,2.1c0.5,0,1,0,1.5,0l4.1-2.6c0.5,0,0.5-0.5,0-0.5l-4.1-2.1
				C336.2,291.4,335.7,291.4,335.2,291.4z"/>
			<path class="st13" d="M340.9,288.3l-4.1,2.6c-0.5,0-0.5,0.5,0,0.5l4.1,2.1c0.5,0,1,0,1.5,0l4.1-2.6c0.5,0,0.5-0.5,0-0.5l-4.1-2.1
				C341.9,287.8,341.4,287.8,340.9,288.3z"/>
			<path class="st13" d="M347.1,284.7l-4.1,2.6c-0.5,0-0.5,0.5,0,0.5l4.1,2.1c0.5,0,1,0,1.5,0l4.1-2.6c0.5,0,0.5-0.5,0-0.5l-4.6-2.1
				C348.1,284.7,347.6,284.7,347.1,284.7z"/>
			<path class="st13" d="M353.3,281l-4.1,2.6c-0.5,0-0.5,0.5,0,0.5l4.1,2.1c0.5,0,1,0,1.5,0l3.6-2.1c0.5,0,0.5-0.5,0-0.5l-4.1-2.1
				C353.8,281,353.3,281,353.3,281z"/>
			<path class="st13" d="M359,277.9l-4.1,2.6c-0.5,0-0.5,0.5,0,0.5l4.1,2.1c0.5,0,1,0,1.5,0l4.1-2.6c0.5,0,0.5-0.5,0-0.5l-4.1-2.1
				C359.5,277.9,359,277.9,359,277.9z"/>
			<path class="st13" d="M371.9,270.2l-11.4,6.7c-0.5,0-0.5,0.5,0,0.5l4.1,2.1c0.5,0,1,0,1.5,0l11.4-6.7c0.5,0,0.5-0.5,0-0.5
				l-4.1-2.1C372.9,270.2,372.4,270.2,371.9,270.2z"/>
			<path class="st13" d="M293.9,315.1l-5.7,3.1c-0.5,0-0.5,0.5,0,0.5l4.1,2.1c0.5,0,1,0,1.5,0l5.7-3.1c0.5,0,0.5-0.5,0-0.5l-4.1-2.1
				C294.9,315.1,294.4,315.1,293.9,315.1z"/>
			<path class="st13" d="M395.1,283.6l-83.7,48.6c-0.5,0-0.5,0.5,0,0.5l2.1,1c0.5,0,1,0,1.5,0l83.7-48.6c0.5,0,0.5-0.5,0-0.5l-2.1-1
				C395.6,283.6,395.6,283.6,395.1,283.6z"/>
			<polygon id="_Контур_18" class="st14" points="297,285.7 297.5,286.2 311.9,294.5 337.8,279.5 338.3,279.5 323.3,270.7 			
				"/>
			<polygon id="_Контур_19" class="st15" points="297.5,286.2 311.9,294.5 337.8,279.5 323.3,271.2 			"/>
			<path id="_Контур_20" class="st15" d="M256.1,305.3v1.5c0,2.1,1,3.6,2.6,4.6l51.1,29.4c0.5,0,1.5,0,2.1,0
				c1,0,2.1,0,2.6-0.5l92-53.2c1.5-1,2.6-2.6,2.6-4.6V281L312,337.8L256.1,305.3z"/>
			<path id="_Контур_21" class="st12" d="M313.5,338.4c1.5,0.5,3.6,0.5,5.2-0.5l92-53.2c1.5-1,2.6-2.6,3.1-4.1l10.3-59.9
				c0-0.5,0-0.5,0-1c0-1.6-0.5-3.1-1.5-4.6L327,270.4c-1,0.5-2.1,2.1-2.1,3.1L313.5,338.4z"/>
			<path id="_Контур_22" class="st15" d="M311.9,337.9L311.9,337.9l1.5,1l10.9-65.1c0-1.5,1-2.6,2.1-3.1l95.6-55.3
				c-0.5-0.5-1-0.5-1.5-1l-95.1,55.3c-1,0.5-2.1,2.1-2.1,3.1L311.9,337.9z"/>
		</g>
	</g>
	<path id="_Контур_23" class="st8" d="M242.7,81.1c0,0,1,22.7,0.5,24.8c-0.5,2.1-10.3,8.8-13.4,11.4
		c-3.1,2.6,15.5,20.7,24.8,24.8c9.3,4.1,37.7-6.7,38.2-20.7s-5.2-25.8-9.3-26.9C279.4,93.5,242.7,81.1,242.7,81.1z"/>
	<path id="_Контур_24" class="st12" d="M240.1,110c0,0,16.5,24.8,39.8,26.9c7.2-7.2,7.8-32.5-2.1-40.8c0,0,9.3-7.2,15.5-6.2
		c6.7,4.1,11.9,10.3,14.5,18.1c5.7,17,8.8,34.6,8.3,52.7c-0.5,24.3,0,85.2,0,85.2c-2.6,14.5-11.4,27.4-24.3,35.1
		c-16.5,9.3-36.2,11.9-54.8,7.8c-9.3-2.1-17-8.8-20.1-17.6c1-17,7.8-51.7,5.2-73.4s-7.2-37.2-8.8-54.2s2.1-17,10.8-23.2
		C229.3,116.8,234.4,113.1,240.1,110z"/>
	<path id="_Контур_25" class="st8" d="M267,306.4c-4.1-2.6-8.3-5.2-12.9-7.2c-4.1-1.5-7.8-3.6-10.8-6.7
		c-4.1-4.1-10.8-19.1-15.5-33.6c-4.6-16.5-6.7-33.6-5.7-51.1c2.1-20.7,9.3-49.6,11.4-61c2.1-11.4-2.1-16.5-7.2-20.7
		c-6.7-5.2-15.5-3.1-20.1,13.9c-6.2,22.7-9.3,46.5-10.3,70.3c0,17.6,2.6,35.1,7.8,51.7c5.2,14.5,11.4,27.9,19.6,40.8
		c2.1,3.6,3.1,7.2,6.7,15c3.1,7.8,8.8,15,15,20.1c5.7,4.1,8.8,4.6,9.8,4.1s1.5-3.1-1-5.2c-4.1-3.1-7.8-7.2-10.3-11.4
		c0,0,5.2,5.2,8.3,7.8s6.2,4.6,9.8,6.2c3.6,1.5,8.3-1.5,5.7-3.6s-4.6-3.6-9.8-7.8c-2.6-2.1-5.2-4.6-7.2-7.2
		c3.6,2.6,7.2,5.2,10.8,7.2c3.1,1.5,6.2,2.6,9.8,2.6c1.5,0,4.1-2.6,0.5-5.2c-4.6-2.6-8.8-5.2-12.9-8.8c-3.6-3.6-5.7-6.7-4.6-6.7
		s3.1,2.1,7.2,3.6s8.8,0,9.3-2.1S271.1,308.4,267,306.4z"/>
	<path id="_Контур_26" class="st8" d="M294.4,47.5L294.4,47.5c-2.6-17.6-15.5-31-33.6-30c-19.6,1-34.1,17.6-33.1,37.2l0,0
		c0.5,10.8,6.2,20.7,15.5,26.9c0.5,2.6,1.6,5.2,2.6,7.8c6.2,7.7,25.8,12.4,31.5,11.4c6.7-0.5,12.4-5.2,14.5-11.9
		C298,74.4,295.9,55.8,294.4,47.5z"/>
	<path class="st16" d="M242.7,81.1L242.7,81.1l1.6-15.5c0,0-12.4-32.5,17-26.3c19.6,4.1,24.8,5.7,30.5-7.2S277.3,7.2,252,10.3
		c-18.1,2.1-31.5,17-31,35.1C221.5,55.3,224.1,74.9,242.7,81.1z"/>
	<path class="st17" d="M191.6,170c0,0,16.5,16,35.6,11.4c2.6-2.1,9.3-39.8,9.3-39.8s0-21.2-16-20.7S191.6,170,191.6,170z"/>
	<path class="st17" d="M314.5,138.5c4.6,0,8.8-2.1,11.9-5.2c-0.5-8.3-11.4-40.8-33.6-42.9c6.2,4.1,10.9,9.8,13.4,16.5
		C310.4,117.3,313,127.6,314.5,138.5z"/>
</g>
</svg>
