<?xml version="1.0" encoding="utf-8"?>
<!-- Generator: Adobe Illustrator 25.1.0, SVG Export Plug-In . SVG Version: 6.00 Build 0)  -->
<svg version="1.1" id="Layer_1" xmlns="http://www.w3.org/2000/svg" xmlns:xlink="http://www.w3.org/1999/xlink" x="0px" y="0px"
	 viewBox="0 0 1008 874.1" style="enable-background:new 0 0 1008 874.1;" xml:space="preserve">
<style type="text/css">
	.st0{fill:#162E66;}
	.st1{opacity:0.4;}
	.st2{fill:#B8E1FF;}
	.st3{fill:#E3F4FF;}
	.st4{fill:#A4DCFF;}
	.st5{fill:#77CFF2;}
	.st6{fill:#FFFFFF;}
	.st7{fill:#7A32C6;}
	.st8{fill:none;}
	.st9{fill:#60BCEA;}
	.st10{fill:#E2E2E2;}
	.st11{fill:#EFEFEF;}
	.st12{fill:#4BB3DB;}
	.st13{fill:#107F99;}
	.st14{fill:#279FC4;}
	.st15{fill:url(#SVGID_1_);}
	.st16{fill:url(#SVGID_2_);}
	.st17{fill:url(#SVGID_3_);}
	.st18{fill:url(#SVGID_4_);}
	.st19{fill:#FF7694;}
	.st20{fill:#FF5A85;}
	.st21{fill:#FF9FB8;}
	.st22{fill:#49A3DB;}
	.st23{fill:#2F96C9;}
	.st24{fill:#7DD6F9;}
	.st25{fill:#B26ABF;}
	.st26{fill:#CC75DB;}
	.st27{fill:#DA8CE5;}
	.st28{fill:#4CC194;}
	.st29{fill:#33AA79;}
	.st30{fill:#58E0A9;}
	.st31{fill:#A7FCDF;}
	.st32{fill:#81EAC2;}
	.st33{fill:#CAFFEB;}
	.st34{fill:#FCFCFC;}
	.st35{font-family:'ArialMT';}
	.st36{font-size:2.1942px;}
	.st37{fill:#25A57A;}
	.st38{fill:#9CD1D5;}
	.st39{fill:url(#SVGID_5_);}
	.st40{fill:#FFC952;}
	.st41{fill:#FFEA50;}
	.st42{fill:#59BFC1;}
	.st43{fill:#71E7EA;}
	.st44{fill:#FB3972;}
	.st45{fill:#FF6492;}
	.st46{opacity:0.8;fill:#B8E1FF;enable-background:new    ;}
	.st47{fill:#5424A0;}
	.st48{fill:#6426B5;}
	.st49{fill:#8D4BE2;}
	.st50{fill:url(#SVGID_6_);}
	.st51{fill:url(#SVGID_7_);}
	.st52{fill:url(#SVGID_8_);}
	.st53{fill:url(#SVGID_9_);}
	.st54{font-size:3.8267px;}
	.st55{fill:#F5A856;}
	.st56{fill:#FF1F85;}
	.st57{font-size:7.6692px;}
	.st58{font-size:4.4736px;}
	.st59{font-size:4.04px;}
	.st60{fill:#BCBCBC;}
	.st61{fill:#109B4B;}
	.st62{fill:#2030C4;}
	.st63{fill:url(#SVGID_10_);}
	.st64{fill:#5D4EE6;}
	.st65{font-size:45.0191px;}
	.st66{fill:#EAEAEA;}
	.st67{fill:#313CE3;}
	.st68{fill:url(#SVGID_11_);}
	.st69{font-size:6.0414px;}
	.st70{fill:url(#SVGID_12_);}
	.st71{fill:url(#SVGID_13_);}
	.st72{fill:none;stroke:#B8E1FF;stroke-miterlimit:10;}
	.st73{opacity:0.4;fill:url(#SVGID_14_);enable-background:new    ;}
	.st74{fill:#2D2D2D;}
	.st75{fill:url(#SVGID_15_);}
	.st76{fill:#220296;}
	.st77{fill:#2807A0;}
	.st78{fill:#E8E8E8;}
	.st79{fill:url(#SVGID_16_);}
	.st80{fill:url(#SVGID_17_);}
	.st81{fill:#E8621F;}
	.st82{fill:url(#SVGID_18_);}
	.st83{fill:url(#SVGID_19_);}
	.st84{fill:url(#SVGID_20_);}
	.st85{fill:#FEC7A9;}
	.st86{fill:url(#SVGID_21_);}
	.st87{fill:#F9BB9D;}
	.st88{fill:url(#SVGID_22_);}
	.st89{fill:url(#SVGID_23_);}
	.st90{fill:#220689;}
	.st91{fill:url(#SVGID_24_);}
	.st92{fill:#1F0382;}
	.st93{fill:#BF2BB5;}
	.st94{fill:url(#SVGID_25_);}
	.st95{fill:#F2E941;}
	.st96{fill:#6B79FC;}
	.st97{fill:#F438B1;}
	.st98{fill:url(#SVGID_26_);}
	.st99{fill:url(#SVGID_27_);}
	.st100{fill:#E8A318;}
	.st101{fill:#FFDD15;}
	.st102{fill:url(#SVGID_28_);}
	.st103{fill:#D8D8D8;}
</style>
<g>
	<ellipse class="st0" cx="617.1" cy="505.1" rx="419.9" ry="283.6"/>
	<g>
		<g>
			<g class="st1">
				<polygon class="st2" points="977.8,363.8 947.4,405.3 948.8,405.3 979.3,363.8 945.6,328 979.5,298.6 953.4,278.3 972.1,249.4 
					972.3,249.1 959.3,225.2 958.3,225.7 971,249 951.8,278.5 977.7,298.6 943.9,327.8 				"/>
			</g>
			<g>
				<polygon class="st3" points="948.8,274.5 942.2,284.5 954.1,285.1 960.6,275.1 				"/>
				<polygon class="st4" points="944.2,265.3 937.7,275.3 942.2,284.5 948.8,274.5 				"/>
				<polygon class="st5" points="944.2,265.3 956.1,266.1 960.6,275.1 948.8,274.5 				"/>
			</g>
			<g>
				<polygon class="st3" points="957.8,219.6 951.3,229.6 963.1,230.2 969.7,220.2 				"/>
				<polygon class="st4" points="953.1,210.4 946.6,220.4 951.3,229.6 957.8,219.6 				"/>
				<polygon class="st5" points="953.1,210.4 965,211.1 969.7,220.2 957.8,219.6 				"/>
			</g>
			<g>
				<polygon class="st3" points="972.8,250.8 960.9,251.2 967.2,261.3 979.1,260.9 				"/>
				<polygon class="st4" points="977.6,241.7 965.8,242.1 960.9,251.2 972.8,250.8 				"/>
				<polygon class="st5" points="977.6,241.7 983.9,251.8 979.1,260.9 972.8,250.8 				"/>
			</g>
			<g>
				<polygon class="st3" points="946.5,327.1 934.7,327.5 940.9,337.6 952.8,337.2 				"/>
				<polygon class="st4" points="951.4,318 939.5,318.4 934.7,327.5 946.6,327.1 				"/>
				<polygon class="st5" points="951.4,318 957.6,328.1 952.8,337.2 946.5,327.1 				"/>
			</g>
			<g>
				<polygon class="st3" points="978.1,363.7 966.2,364.1 972.5,374.2 984.4,373.8 				"/>
				<polygon class="st4" points="983,354.8 971.1,355.2 966.2,364.1 978.1,363.7 				"/>
				<polygon class="st5" points="982.9,354.8 989.2,364.9 984.4,373.8 978.1,363.7 				"/>
			</g>
			<g>
				<polygon class="st3" points="978.9,300.3 970.6,308.9 982.2,311.8 990.4,303.1 				"/>
				<polygon class="st4" points="976,290.6 967.7,299.1 970.6,308.9 978.9,300.3 				"/>
				<polygon class="st5" points="976,290.6 987.5,293.4 990.4,303.1 978.9,300.3 				"/>
			</g>
		</g>
		<g>
			<g class="st1">
				<polygon class="st2" points="641.1,148.6 610.6,189.9 612,189.9 642.6,148.5 608.8,112.7 642.7,83.3 616.6,63.1 635.4,34.1 
					635.6,33.8 622.5,9.8 621.6,10.4 634.3,33.8 615,63.3 640.9,83.4 607.3,112.7 				"/>
			</g>
			<g>
				<polygon class="st3" points="612,59.2 605.6,69.1 617.4,69.8 624,59.8 				"/>
				<polygon class="st4" points="607.4,50.1 600.9,60.1 605.6,69.1 612,59.2 				"/>
				<polygon class="st5" points="607.4,50.1 619.3,50.8 624,59.8 612,59.2 				"/>
			</g>
			<g>
				<polygon class="st3" points="621,4.3 614.5,14.2 626.4,14.9 632.9,4.9 				"/>
				<polygon class="st4" points="616.5,-4.8 609.8,5.2 614.5,14.2 621,4.3 				"/>
				<polygon class="st5" points="616.5,-4.8 628.2,-4.1 632.9,4.9 621,4.3 				"/>
			</g>
			<g>
				<polygon class="st3" points="636,35.5 624.2,35.9 630.4,46 642.3,45.6 				"/>
				<polygon class="st4" points="640.9,26.5 629,26.9 624.2,35.9 636.1,35.5 				"/>
				<polygon class="st5" points="640.9,26.5 647.1,36.6 642.3,45.6 636,35.5 				"/>
			</g>
			<g>
				<polygon class="st3" points="609.8,111.7 597.9,112.3 604.2,122.4 616.1,122 				"/>
				<polygon class="st4" points="614.6,102.8 602.7,103.2 597.9,112.3 609.8,111.9 				"/>
				<polygon class="st5" points="614.6,102.8 620.9,112.9 616.1,122 609.8,111.7 				"/>
			</g>
			<g>
				<polygon class="st3" points="641.4,148.5 629.5,148.9 635.7,159 647.7,158.6 				"/>
				<polygon class="st4" points="646.2,139.5 634.3,139.8 629.5,148.9 641.4,148.5 				"/>
				<polygon class="st5" points="646.2,139.5 652.4,149.6 647.7,158.6 641.4,148.5 				"/>
			</g>
			<g>
				<polygon class="st3" points="642.1,85.1 633.9,93.6 645.5,96.5 653.6,87.9 				"/>
				<polygon class="st4" points="639.2,75.2 631.1,83.8 633.9,93.6 642.1,85.1 				"/>
				<polygon class="st5" points="639.2,75.2 650.8,78.1 653.6,87.9 642.1,85.1 				"/>
			</g>
		</g>
		<g>
			<g>
				<g>
					<g>
						<polygon class="st3" points="687,142.4 690.3,144.4 687.3,145.8 						"/>
						<polygon class="st5" points="586.9,268.8 583.7,266.9 586.5,264.9 						"/>
						<g>
							<g>
								<path class="st6" d="M687.5,205.5c0,1.2-0.9,2.6-2.1,3.4l-100.1,57.7c-1.2,0.6-2.1,0.3-2.1-0.9v-62c0-1.2,0.9-2.6,2.1-3.4
									l100.1-57.7c1.2-0.6,2.1-0.3,2.1,0.9V205.5z"/>
								<path class="st5" d="M583.2,203.7v62c0,1.2,0.9,1.6,2.1,0.9l53.9-31.1l-55.4-33.7C583.4,202.4,583.2,203,583.2,203.7z"/>
								<path class="st3" d="M685.3,142.6l-100.1,57.7c-0.5,0.4-1,0.9-1.4,1.4l55.4,33.7l46.2-26.7c1.2-0.6,2.1-2.2,2.1-3.4v-62
									C687.5,142.3,686.5,141.9,685.3,142.6z"/>
								<path class="st4" d="M690.6,207.6c0,1.2-0.9,2.6-2.1,3.4l-100.1,57.7c-1.2,0.6-2.1,0.3-2.1-0.9v-62c0-1.2,0.9-2.6,2.1-3.4
									l100.1-57.7c1.2-0.6,2.1-0.3,2.1,0.9V207.6L690.6,207.6z"/>
								<polygon class="st7" points="687.1,204.3 589.9,260.5 589.9,208.9 687.1,152.7 								"/>
								<polygon class="st3" points="685.3,153.7 685.3,203.3 589.9,258.4 589.9,260.5 687.1,204.3 687.1,152.7 								"/>
								<path class="st6" d="M640.3,176.2c0,0.9-0.8,2.2-1.7,2.7c-0.9,0.5-1.7,0.3-1.7-0.8c0-0.9,0.8-2.2,1.7-2.7
									C639.5,174.9,640.3,175.3,640.3,176.2z"/>
							</g>
						</g>
					</g>
					<g>
						<polygon class="st9" points="744.8,243.9 747.9,245.8 747.9,242.1 						"/>
						<polygon class="st10" points="588.4,272.9 588.4,269.5 593.3,269.5 						"/>
						<g>
							<path class="st11" d="M642.9,304.9c1,0.5,2.7,0.5,3.9-0.1l100.1-57.7c1.2-0.6,1.3-1.7,0.3-2.3l-53.7-31.1
								c-1-0.5-2.7-0.5-3.9,0.1l-100.1,57.7c-1.2,0.6-1.3,1.7-0.3,2.3L642.9,304.9z"/>
							<path class="st9" d="M747.2,244.7l-53.7-31.1c-1-0.5-2.7-0.5-3.9,0.1l-44.9,25.9v65.5c0.8,0,1.6-0.1,2.2-0.5L747,246.9
								C748,246.3,748.1,245.4,747.2,244.7z"/>
							<path class="st5" d="M589.4,271.7c-1.2,0.6-1.3,1.7-0.3,2.3l53.7,31.1c0.5,0.3,1.2,0.4,1.8,0.4v-65.5L589.4,271.7z"/>
							<path class="st3" d="M642.9,301.3c1,0.5,2.7,0.5,3.9-0.1l100.1-57.7c1.2-0.6,1.3-1.7,0.3-2.3L693.4,210
								c-1-0.5-2.7-0.5-3.9,0.1l-100.1,57.7c-1.2,0.6-1.3,1.7-0.3,2.3L642.9,301.3z"/>
							<g>
								<path class="st12" d="M705.9,259.7l2.1,1.2c0.6,0.4,0.5,1-0.1,1.4l-28.2,16.3c-0.8,0.4-1.8,0.5-2.5,0.1l-2.1-1.2
									L705.9,259.7z"/>
								<path class="st12" d="M674.2,277.1l-11-6.3c-0.6-0.4-0.5-1,0.1-1.4l28.2-16.3c0.8-0.4,1.8-0.5,2.5-0.1l11,6.3L674.2,277.1z"
									/>
								<g>
									<polygon class="st12" points="690.9,225.3 698.9,220.6 693.1,217.3 685.1,221.9 									"/>
									<polygon class="st12" points="693,232.8 706.4,224.9 700.7,221.7 687.3,229.4 									"/>
									<polygon class="st12" points="682.5,238.8 691,233.8 685.2,230.6 676.8,235.4 									"/>
									<polygon class="st12" points="672,244.8 680.4,239.9 674.7,236.7 666.3,241.5 									"/>
									<polygon class="st12" points="661.5,250.9 669.9,246 664.1,242.8 655.7,247.6 									"/>
									<polygon class="st12" points="650.9,257 659.3,252.1 653.6,248.9 645.2,253.7 									"/>
									<polygon class="st12" points="640.4,263.1 648.8,258.2 643.1,254.9 634.6,259.7 									"/>
									<polygon class="st12" points="629.8,269.2 638.3,264.3 632.5,261 624.1,265.8 									"/>
									<polygon class="st12" points="614.9,277.9 627.7,270.4 622,267.1 609.1,274.5 									"/>
									<polygon class="st12" points="695,240.2 713.9,229.3 708.1,225.9 689.3,236.8 									"/>
									<polygon class="st12" points="684.6,246.3 693.1,241.4 687.3,238 678.9,242.9 									"/>
									<polygon class="st12" points="674.1,252.4 682.5,247.4 676.8,244.1 668.2,249 									"/>
									<polygon class="st12" points="663.5,258.4 672,253.5 666.2,250.2 657.8,255.1 									"/>
									<polygon class="st12" points="653,264.5 661.4,259.6 655.7,256.2 647.3,261.2 									"/>
									<polygon class="st12" points="642.5,270.6 650.9,265.7 645.1,262.3 636.6,267.2 									"/>
									<polygon class="st12" points="622.3,282.1 640.3,271.8 634.6,268.4 616.6,278.9 									"/>
									<polygon class="st12" points="660.5,268.8 700.6,245.6 694.8,242.4 654.8,265.6 									"/>
									<polygon class="st12" points="680.4,231.3 688.4,226.6 682.7,223.4 674.7,228 									"/>
									<polygon class="st12" points="713.4,238.2 721.5,233.6 715.8,230.3 707.6,235 									"/>
									<polygon class="st12" points="702.9,244.3 711,239.7 705.3,236.3 697.2,241 									"/>
									<polygon class="st12" points="669.9,237.3 678,232.7 672.3,229.3 664.2,234 									"/>
									<polygon class="st12" points="659.6,243.3 667.6,238.6 661.8,235.4 653.7,240.1 									"/>
									<polygon class="st12" points="649.1,249.4 657.1,244.7 651.4,241.4 643.4,246 									"/>
									<polygon class="st12" points="638.6,255.5 646.6,250.8 640.9,247.4 632.9,252.1 									"/>
									<polygon class="st12" points="628.2,261.4 636.3,256.8 630.4,253.5 622.4,258.1 									"/>
									<polygon class="st12" points="617.7,267.5 625.8,262.8 620.1,259.5 612,264.1 									"/>
									<polygon class="st12" points="607.3,273.5 615.3,268.8 609.6,265.6 601.6,270.2 									"/>
									<polygon class="st12" points="639.9,280.7 647.9,276.1 642.2,272.7 634.2,277.3 									"/>
									<polygon class="st12" points="629.8,286.5 637.9,281.9 632.1,278.5 624.1,283.2 									"/>
								</g>
							</g>
						</g>
						<g>
							<polygon class="st13" points="634.3,297.4 640.4,300.9 640.4,302.9 634.3,299.4 							"/>
							<polygon class="st14" points="636,298.3 640.4,300.9 640.4,302.9 634.3,299.4 							"/>
						</g>
						<g>
							<polygon class="st13" points="590.8,272.2 596.8,275.7 596.8,277.6 590.8,274.1 							"/>
							<polygon class="st14" points="592.5,273.2 596.8,275.7 596.8,277.6 590.8,274.1 							"/>
						</g>
						<g>
							<polygon class="st13" points="597.8,276.2 603.9,279.7 603.9,281.8 597.8,278.3 							"/>
							<polygon class="st14" points="599.5,277.2 603.9,279.7 603.9,281.8 597.8,278.3 							"/>
						</g>
					</g>
				</g>
			</g>
			<g>
				
					<linearGradient id="SVGID_1_" gradientUnits="userSpaceOnUse" x1="294.3314" y1="346.0869" x2="294.3314" y2="322.3305" gradientTransform="matrix(-1 0 0 1 967.9473 -153.8898)">
					<stop  offset="0" style="stop-color:#FFFFFF"/>
					<stop  offset="1" style="stop-color:#FFFFFF;stop-opacity:0"/>
				</linearGradient>
				<rect x="670.4" y="168.5" class="st15" width="6.3" height="23.7"/>
				
					<linearGradient id="SVGID_2_" gradientUnits="userSpaceOnUse" x1="301.5822" y1="349.1484" x2="301.5822" y2="326.1011" gradientTransform="matrix(-1 0 0 1 967.9473 -153.8898)">
					<stop  offset="0" style="stop-color:#FFFFFF"/>
					<stop  offset="1" style="stop-color:#FFFFFF;stop-opacity:0"/>
				</linearGradient>
				<rect x="663.2" y="172.2" class="st16" width="6.3" height="23"/>
				
					<linearGradient id="SVGID_3_" gradientUnits="userSpaceOnUse" x1="308.8331" y1="352.2158" x2="308.8331" y2="330.4632" gradientTransform="matrix(-1 0 0 1 967.9473 -153.8898)">
					<stop  offset="0" style="stop-color:#FFFFFF"/>
					<stop  offset="1" style="stop-color:#FFFFFF;stop-opacity:0"/>
				</linearGradient>
				<rect x="655.9" y="176.6" class="st17" width="6.3" height="21.8"/>
				
					<linearGradient id="SVGID_4_" gradientUnits="userSpaceOnUse" x1="316.1487" y1="355.2782" x2="316.1487" y2="334.3026" gradientTransform="matrix(-1 0 0 1 967.9473 -153.8898)">
					<stop  offset="0" style="stop-color:#FFFFFF"/>
					<stop  offset="1" style="stop-color:#FFFFFF;stop-opacity:0"/>
				</linearGradient>
				<polygon class="st18" points="648.7,180.4 654.9,181 654.9,201.3 648.7,201.3 				"/>
				<g>
					<g>
						<g>
							<g>
								<polygon class="st19" points="673.7,201.7 676.8,199.9 676.8,189.7 673.7,191.5 								"/>
								<polygon class="st20" points="670.4,199.9 673.7,201.7 673.7,191.5 670.4,189.7 								"/>
							</g>
							<polygon class="st21" points="673.7,191.5 676.8,189.7 673.7,187.9 670.4,189.7 							"/>
						</g>
						<g>
							<g>
								<g>
									<polygon class="st22" points="666.3,205.9 669.5,204.1 669.5,188.7 666.3,190.5 									"/>
									<polygon class="st23" points="663.2,204.1 666.3,205.9 666.3,190.5 663.2,188.7 									"/>
								</g>
								<polygon class="st24" points="666.3,190.5 669.5,188.7 666.3,186.8 663.2,188.7 								"/>
							</g>
						</g>
						<g>
							<g>
								<polygon class="st25" points="659,210.1 662.3,208.3 662.3,198 659,199.8 								"/>
								<polygon class="st26" points="655.9,208.3 659,210.1 659,199.8 655.9,198 								"/>
							</g>
							<polygon class="st27" points="659,199.8 662.3,198 659,196.2 655.9,198 							"/>
						</g>
						<g>
							<g>
								<polygon class="st28" points="659,210.1 662.3,208.3 662.3,198.1 659,199.9 								"/>
								<polygon class="st29" points="655.9,208.3 659,210.1 659,199.9 655.9,198.1 								"/>
							</g>
							<polygon class="st30" points="659,199.9 662.3,198.1 659,196.3 655.9,198.1 							"/>
						</g>
						<g>
							<g>
								<polygon class="st31" points="651.8,214.3 654.9,212.5 654.9,193.3 651.8,195.1 								"/>
								<polygon class="st32" points="648.7,212.5 651.8,214.3 651.8,195.1 648.7,193.3 								"/>
							</g>
							<polygon class="st33" points="651.8,195.1 654.9,193.3 651.8,191.5 648.7,193.3 							"/>
						</g>
					</g>
					<text transform="matrix(-1.0137 0.5853 0.866 0.5 680.703 201.6239)" class="st34 st35 st36">15%</text>
					<text transform="matrix(-1.0137 0.5853 0.866 0.5 673.322 205.8661)" class="st34 st35 st36">25%</text>
					<text transform="matrix(-1.0137 0.5853 0.866 0.5 665.9446 210.111)" class="st34 st35 st36">15%</text>
					<text transform="matrix(-1.0137 0.5853 0.866 0.5 658.5648 214.3555)" class="st34 st35 st36">45%</text>
				</g>
			</g>
		</g>
		<g>
			<g>
				<g>
					<g>
						<g>
							<path class="st37" d="M323.8,503.4v-6.7h-3v6.7h-35.1l-26.9-15.5c-4.5,2.6-7.6,5.7-9.5,8.9l-1.8-1.7v8.2
								c0,5.7,3.8,11.3,11.1,15.5c7.4,4.3,17.2,6.5,26.9,6.5c9.7,0,19.4-2.2,26.9-6.5C319.9,514.6,323.6,509,323.8,503.4
								L323.8,503.4L323.8,503.4L323.8,503.4L323.8,503.4z"/>
							<path class="st38" d="M312.7,487.9c-14.9-8.5-39-8.5-53.7,0l26.9,15.5L312.7,487.9z"/>
						</g>
						
							<linearGradient id="SVGID_5_" gradientUnits="userSpaceOnUse" x1="247.7904" y1="649.0552" x2="323.8716" y2="649.0552" gradientTransform="matrix(1 0 0 1 0 -153.8898)">
							<stop  offset="0" style="stop-color:#4CC194"/>
							<stop  offset="0.2836" style="stop-color:#4CD08B"/>
							<stop  offset="0.6803" style="stop-color:#4CE083"/>
							<stop  offset="1" style="stop-color:#4CE580"/>
						</linearGradient>
						<path class="st39" d="M312.7,479.6c-14.9-8.5-39-8.5-53.7,0c-14.9,8.5-14.9,22.5,0,31.1c7.4,4.3,17.2,6.5,26.9,6.5
							c9.7,0,19.4-2.2,26.9-6.5c7.4-4.3,11.1-10,11.1-15.5C323.8,489.6,320.1,483.9,312.7,479.6z"/>
					</g>
				</g>
				<g>
					<g>
						<g>
							<path class="st40" d="M319.7,492.8v-6.1h-2.6v6.1h-31.3l-24-13.9c-4,2.3-6.9,5-8.4,8l-1.6-1.6v7.4c0,5,3.2,10.1,10,13.9
								c6.6,3.9,15.3,5.7,24,5.7c8.7,0,17.4-1.9,24-5.7c6.6-3.8,9.8-8.7,10-13.7l0,0V492.8L319.7,492.8L319.7,492.8z"/>
							<path class="st38" d="M309.7,478.9c-13.2-7.6-34.7-7.6-48,0l24,13.9L309.7,478.9z"/>
						</g>
						<path class="st41" d="M309.7,471.6c-13.2-7.6-34.7-7.6-48,0c-13.2,7.6-13.2,20.1,0,27.7c6.6,3.9,15.3,5.7,24,5.7
							s17.4-1.9,24-5.7c6.6-3.9,10-8.8,10-13.9C319.7,480.4,316.4,475.3,309.7,471.6z"/>
					</g>
				</g>
				<g>
					<g>
						<g>
							<path class="st42" d="M313.2,484.6v-7l-2.1,2.2v2.1l-25.2,2.8l-19.4-11.1c-3.2,1.8-5.4,1.2-6.7,3.6l-1.3,0.5v7.1
								c0,4,2.7,8.2,8,11.3s12.4,4.7,19.4,4.7c7,0,14-1.6,19.4-4.7C310.5,492.8,313.1,488.8,313.2,484.6L313.2,484.6L313.2,484.6
								L313.2,484.6L313.2,484.6z"/>
							<path class="st38" d="M305.2,473.5c-10.7-6.2-28.1-6.2-38.8,0l19.4,11.1L305.2,473.5z"/>
						</g>
						<path class="st43" d="M305.2,466.4c-10.7-6.2-28.1-6.2-38.8,0c-10.7,6.2-10.7,16.2,0,22.4c5.3,3.1,12.4,4.7,19.4,4.7
							c7,0,14-1.6,19.4-4.7c5.3-3.1,8-7.1,8-11.1C313.2,473.5,310.5,469.4,305.2,466.4z"/>
					</g>
				</g>
				<g>
					<g>
						<g>
							<path class="st44" d="M308,476.4v-6.5l-1.7,2.6v1.6l-20.1,2.3l-15.5-8.9c-2.6,1.6-4.4,0.9-5.4,2.8l-1-0.4v6.5
								c0,3.2,2.1,6.5,6.3,8.9c4.3,2.5,9.8,3.8,15.4,3.8c5.6,0,11.1-1.3,15.4-3.8C306,482.8,308,479.7,308,476.4L308,476.4
								L308,476.4L308,476.4L308,476.4z"/>
							<path class="st38" d="M301.7,467.4c-8.5-4.9-22.4-4.9-30.9,0l15.4,8.9L301.7,467.4z"/>
						</g>
						<path class="st45" d="M301.7,461c-8.5-4.9-22.4-4.9-30.9,0s-8.5,12.9,0,17.9c4.3,2.5,9.8,3.8,15.4,3.8s11.1-1.3,15.4-3.8
							c4.3-2.5,6.3-5.7,6.3-8.9C307.9,466.6,306,463.4,301.7,461z"/>
					</g>
				</g>
			</g>
		</g>
		<polygon class="st46" points="729.7,127.3 729.7,352.6 859.1,277.9 859.1,52.6 		"/>
		<g>
			<g>
				<polygon class="st47" points="971.1,430.5 860.8,366.9 860.8,351 992.5,402.3 992.5,418.1 				"/>
				<polygon class="st48" points="971.1,430.5 860.8,366.9 860.8,351 971.1,414.7 				"/>
				<polygon class="st49" points="971.1,414.7 860.8,351 882.3,338.7 992.5,402.3 				"/>
			</g>
			<g>
				<polygon class="st47" points="941.1,447.4 830.9,383.8 830.9,368 962.5,419.3 962.5,435.1 				"/>
				<polygon class="st48" points="941.1,447.4 830.9,383.8 830.9,368 941.1,431.6 				"/>
				<polygon class="st49" points="941.1,431.6 830.9,368 852.2,355.6 962.5,419.3 				"/>
			</g>
			<g>
				<polygon class="st47" points="911.1,464.3 800.8,400.6 800.8,384.8 932.6,436.1 932.6,451.9 				"/>
				<polygon class="st48" points="911.1,464.3 800.8,400.6 800.8,384.8 911.1,448.4 				"/>
				<polygon class="st49" points="911.1,448.4 800.8,384.8 822.3,372.4 932.6,436.1 				"/>
			</g>
			<g>
				<polygon class="st47" points="881.2,481.1 770.9,417.4 770.9,401.6 902.6,452.9 902.6,468.7 				"/>
				<polygon class="st48" points="881.2,481.1 770.9,417.4 770.9,401.6 881.2,465.4 				"/>
				<polygon class="st49" points="881.2,465.4 770.9,401.6 792.4,389.3 902.6,452.9 				"/>
			</g>
			<g>
				<polygon class="st47" points="851.2,498 741,434.4 741,418.6 872.7,469.8 872.7,485.7 				"/>
				<polygon class="st48" points="851.2,498 741,434.4 741,418.6 851.2,482.2 				"/>
				<polygon class="st49" points="851.2,482.2 741,418.6 762.4,406.2 872.7,469.8 				"/>
			</g>
		</g>
		<g>
			<g>
				<polygon class="st3" points="393.1,327.3 363.7,310.4 393.1,293.4 422.5,310.4 				"/>
				<polygon class="st4" points="393.1,344.2 363.7,327.2 363.7,310.4 393.1,327.3 				"/>
				<polygon class="st5" points="393.1,344.2 422.5,327.2 422.5,310.4 393.1,327.3 				"/>
			</g>
			<g>
				<polygon class="st3" points="357.9,347.9 328.5,331 357.9,314 387.3,331 				"/>
				<polygon class="st4" points="358,364.7 328.5,347.8 328.5,331 358,347.9 				"/>
				<polygon class="st5" points="357.9,364.7 387.3,347.8 387.3,331 357.9,347.9 				"/>
			</g>
			<g>
				<polygon class="st3" points="322.7,368.4 293.3,351.4 322.7,334.4 352.1,351.4 				"/>
				<polygon class="st4" points="322.8,385.2 293.3,368.2 293.3,351.4 322.8,368.4 				"/>
				<polygon class="st5" points="322.7,385.2 352.2,368.2 352.2,351.4 322.7,368.4 				"/>
			</g>
		</g>
		<g>
			<g>
				<polygon class="st3" points="271.1,400.4 300.5,383.4 271.1,366.4 241.7,383.4 				"/>
				<polygon class="st4" points="271.1,417.2 300.5,400.2 300.5,383.4 271.1,400.4 				"/>
				<polygon class="st5" points="271.1,417.2 241.7,400.2 241.7,383.4 271.1,400.4 				"/>
			</g>
			<g>
				<polygon class="st3" points="306.3,420.8 335.7,403.8 306.3,386.9 277,403.8 				"/>
				<polygon class="st4" points="306.3,437.6 335.7,420.7 335.7,403.8 306.3,420.8 				"/>
				<polygon class="st5" points="306.3,437.6 277,420.7 277,403.8 306.3,420.8 				"/>
			</g>
			<g>
				<polygon class="st3" points="341.6,441.4 371,424.4 341.6,407.3 312.2,424.4 				"/>
				<polygon class="st4" points="341.4,458.2 371,441.3 371,424.4 341.4,441.4 				"/>
				<polygon class="st5" points="341.6,458.2 312,441.3 312,424.4 341.6,441.4 				"/>
			</g>
		</g>
		<g>
			<g>
				<g>
					<g>
						<polygon class="st3" points="435.6,207.7 430,211.1 435.3,213.5 						"/>
						<polygon class="st5" points="610.1,428.2 615.8,424.7 610.9,421.3 						"/>
						<g>
							<g>
								<path class="st6" d="M434.8,317.7c0,2.1,1.7,4.7,3.6,5.8l174.7,100.9c2.1,1.2,3.6,0.5,3.6-1.6V314.6c0-2.1-1.7-4.7-3.6-5.8
									L438.4,207.9c-2.1-1.2-3.6-0.5-3.6,1.6V317.7z"/>
								<path class="st5" d="M616.7,314.5v108.2c0,2.1-1.7,2.7-3.6,1.6l-94-54.3l96.6-58.8C616.3,312.3,616.7,313.5,616.7,314.5z"/>
								<path class="st3" d="M438.4,207.9l174.7,100.9c1,0.5,1.9,1.4,2.6,2.5l-96.6,58.8l-80.5-46.5c-2.1-1.2-3.6-3.8-3.6-5.8V209.5
									C434.8,207.4,436.5,206.8,438.4,207.9z"/>
								<path class="st4" d="M429.2,321.2c0,2.1,1.7,4.7,3.6,5.8l174.7,100.9c2.1,1.2,3.6,0.5,3.6-1.6V318.1c0-2.1-1.7-4.7-3.6-5.8
									L432.8,211.4c-2.1-1.2-3.6-0.5-3.6,1.6V321.2L429.2,321.2z"/>
								<polygon class="st7" points="435.3,315.7 605.1,413.7 605.1,323.4 435.3,225.6 								"/>
								<polygon class="st3" points="438.5,227.4 438.5,313.9 605.1,409.9 605.1,413.7 435.3,315.7 435.3,225.6 								"/>
								<path class="st6" d="M517.1,266.7c0,1.7,1.3,3.8,3,4.7s3,0.4,3-1.3c0-1.7-1.3-3.8-3-4.7C518.6,264.5,517.1,265,517.1,266.7z
									"/>
							</g>
						</g>
					</g>
					<g>
						<polygon class="st9" points="334.8,384.7 329.5,387.8 329.5,381.6 						"/>
						<polygon class="st10" points="607.6,435.3 607.6,429.1 599.1,429.4 						"/>
						<g>
							<path class="st11" d="M512.6,491.1c-1.8,1-4.8,0.9-6.9-0.3L331.1,390c-2.1-1.2-2.2-3-0.5-4l93.7-54.1c1.8-1,4.8-0.9,6.9,0.3
								L605.8,433c2.1,1.2,2.2,3,0.5,4L512.6,491.1z"/>
							<path class="st9" d="M330.7,386.1l93.7-54.1c1.8-1,4.8-0.9,6.9,0.3l78.3,45.2v114.3c-1.3,0-2.7-0.4-3.8-0.9L331.2,390
								C329.1,389,329,387.1,330.7,386.1z"/>
							<path class="st5" d="M606,433.1c2.1,1.2,2.2,3,0.5,4l-93.7,54.1c-0.8,0.5-1.9,0.6-3.1,0.6V377.6L606,433.1z"/>
							<path class="st3" d="M512.6,484.9c-1.8,1-4.8,0.9-6.9-0.3L331.1,383.8c-2.1-1.2-2.2-3-0.5-4l93.7-54.1c1.8-1,4.8-0.9,6.9,0.3
								l174.7,100.9c2.1,1.2,2.2,3,0.5,4L512.6,484.9z"/>
							<g>
								<path class="st12" d="M402.7,412.3l-3.8,2.2c-1,0.6-0.9,1.7,0.3,2.5l49.3,28.5c1.3,0.8,3.1,0.8,4.1,0.1l3.6-2.1L402.7,412.3
									z"/>
								<path class="st12" d="M458,442.4l19.3-11.1c1-0.6,0.9-1.7-0.3-2.5l-49.3-28.5c-1.3-0.8-3.1-0.8-4.1-0.1l-19.3,11.1
									L458,442.4z"/>
								<g>
									<polygon class="st12" points="429,352.2 414.9,344 425,338.2 438.9,346.4 									"/>
									<polygon class="st12" points="425.2,365.3 401.8,351.7 411.7,345.8 435.3,359.4 									"/>
									<polygon class="st12" points="443.5,375.8 428.7,367.2 438.7,361.4 453.4,369.9 									"/>
									<polygon class="st12" points="461.9,386.4 447.1,377.8 457.1,372 471.8,380.5 									"/>
									<polygon class="st12" points="480.2,397 465.5,388.4 475.4,382.6 490.2,391.2 									"/>
									<polygon class="st12" points="498.6,407.6 483.9,399.1 493.8,393.2 508.6,401.8 									"/>
									<polygon class="st12" points="517,418.2 502.2,409.7 512.2,403.8 527,412.4 									"/>
									<polygon class="st12" points="535.4,428.8 520.6,420.3 530.6,414.5 545.4,423 									"/>
									<polygon class="st12" points="561.4,443.9 539,430.9 549,425.1 571.5,438.2 									"/>
									<polygon class="st12" points="421.6,378.2 388.7,359.2 398.7,353.4 431.7,372.4 									"/>
									<polygon class="st12" points="439.8,388.7 425.1,380.3 435.2,374.5 449.9,383 									"/>
									<polygon class="st12" points="458.2,399.3 443.5,390.9 453.6,385.1 468.3,393.6 									"/>
									<polygon class="st12" points="476.6,409.9 461.9,401.4 472,395.7 486.7,404.2 									"/>
									<polygon class="st12" points="495,420.6 480.2,412 490.3,406.3 505.1,414.9 									"/>
									<polygon class="st12" points="513.4,431.2 498.6,422.6 508.7,416.9 523.5,425.3 									"/>
									<polygon class="st12" points="548.5,451.4 517,433.2 527.1,427.5 558.4,445.7 									"/>
									<polygon class="st12" points="481.9,428.2 412,387.8 422,382 491.9,422.4 									"/>
									<polygon class="st12" points="447.1,362.7 433.1,354.5 443.1,348.8 457.2,356.8 									"/>
									<polygon class="st12" points="389.6,374.8 375.6,366.8 385.6,361 399.6,369 									"/>
									<polygon class="st12" points="407.9,385.3 393.7,377.3 403.8,371.5 417.8,379.6 									"/>
									<polygon class="st12" points="465.3,373.2 451.4,365.1 461.3,359.3 475.4,367.3 									"/>
									<polygon class="st12" points="483.6,383.7 469.5,375.6 479.6,369.8 493.6,378 									"/>
									<polygon class="st12" points="501.7,394.3 487.7,386.1 497.8,380.3 511.8,388.4 									"/>
									<polygon class="st12" points="520,404.8 506,396.6 516,390.9 530.1,398.9 									"/>
									<polygon class="st12" points="538.2,415.2 524.1,407.2 534.2,401.4 548.2,409.4 									"/>
									<polygon class="st12" points="556.4,425.7 542.4,417.7 552.5,411.9 566.5,420 									"/>
									<polygon class="st12" points="574.6,436.3 560.6,428.2 570.6,422.4 584.7,430.5 									"/>
									<polygon class="st12" points="517.8,448.9 503.7,440.8 513.8,434.9 527.8,443.1 									"/>
									<polygon class="st12" points="535.3,459 521.3,450.9 531.3,445.2 545.4,453.2 									"/>
								</g>
							</g>
						</g>
						<g>
							<polygon class="st13" points="527.4,477.9 516.9,484 516.9,487.5 527.4,481.4 							"/>
							<polygon class="st14" points="524.5,479.6 516.9,484 516.9,487.5 527.4,481.4 							"/>
						</g>
						<g>
							<polygon class="st13" points="603.4,434 592.9,440.1 592.9,443.6 603.4,437.5 							"/>
							<polygon class="st14" points="600.5,435.7 592.9,440.1 592.9,443.6 603.4,437.5 							"/>
						</g>
						<g>
							<polygon class="st13" points="591.2,441 580.7,447.1 580.7,450.6 591.2,444.5 							"/>
							<polygon class="st14" points="588.2,442.7 580.7,447.1 580.7,450.6 591.2,444.5 							"/>
						</g>
					</g>
				</g>
			</g>
			<g>
				
					<linearGradient id="SVGID_6_" gradientUnits="userSpaceOnUse" x1="458.9391" y1="448.4047" x2="458.9391" y2="406.9712" gradientTransform="matrix(1 0 0 1 0 -153.8898)">
					<stop  offset="0" style="stop-color:#FFFFFF"/>
					<stop  offset="1" style="stop-color:#FFFFFF;stop-opacity:0"/>
				</linearGradient>
				<rect x="453.4" y="253.1" class="st50" width="11" height="41.4"/>
				
					<linearGradient id="SVGID_7_" gradientUnits="userSpaceOnUse" x1="471.628" y1="453.7678" x2="471.628" y2="413.6292" gradientTransform="matrix(1 0 0 1 0 -153.8898)">
					<stop  offset="0" style="stop-color:#FFFFFF"/>
					<stop  offset="1" style="stop-color:#FFFFFF;stop-opacity:0"/>
				</linearGradient>
				<rect x="466.1" y="259.7" class="st51" width="11" height="40.1"/>
				
					<linearGradient id="SVGID_8_" gradientUnits="userSpaceOnUse" x1="484.317" y1="459.0765" x2="484.317" y2="421.139" gradientTransform="matrix(1 0 0 1 0 -153.8898)">
					<stop  offset="0" style="stop-color:#FFFFFF"/>
					<stop  offset="1" style="stop-color:#FFFFFF;stop-opacity:0"/>
				</linearGradient>
				<rect x="478.8" y="267.2" class="st52" width="11" height="37.9"/>
				
					<linearGradient id="SVGID_9_" gradientUnits="userSpaceOnUse" x1="497.006" y1="464.4342" x2="497.006" y2="427.8178" gradientTransform="matrix(1 0 0 1 0 -153.8898)">
					<stop  offset="0" style="stop-color:#FFFFFF"/>
					<stop  offset="1" style="stop-color:#FFFFFF;stop-opacity:0"/>
				</linearGradient>
				<polygon class="st53" points="502.5,274 491.5,275.1 491.5,310.5 502.5,310.5 				"/>
				<g>
					<g>
						<g>
							<g>
								<polygon class="st19" points="459,311.1 453.4,307.9 453.4,290.2 459,293.4 								"/>
								<polygon class="st20" points="464.4,307.9 459,311.1 459,293.4 464.4,290.2 								"/>
							</g>
							<polygon class="st21" points="459,293.4 453.4,290.2 459,287.1 464.4,290.2 							"/>
						</g>
						<g>
							<g>
								<g>
									<polygon class="st22" points="471.7,318.5 466.1,315.3 466.1,288.5 471.7,291.6 									"/>
									<polygon class="st23" points="477.1,315.3 471.7,318.5 471.7,291.6 477.1,288.5 									"/>
								</g>
								<polygon class="st24" points="471.7,291.6 466.1,288.5 471.7,285.2 477.1,288.5 								"/>
							</g>
						</g>
						<g>
							<g>
								<polygon class="st25" points="484.4,325.8 478.8,322.5 478.8,304.7 484.4,307.9 								"/>
								<polygon class="st26" points="489.8,322.5 484.4,325.8 484.4,307.9 489.8,304.7 								"/>
							</g>
							<polygon class="st27" points="484.4,307.9 478.8,304.7 484.4,301.6 489.8,304.7 							"/>
						</g>
						<g>
							<g>
								<polygon class="st28" points="484.4,325.8 478.8,322.7 478.8,304.8 484.4,307.9 								"/>
								<polygon class="st29" points="489.8,322.7 484.4,325.8 484.4,307.9 489.8,304.8 								"/>
							</g>
							<polygon class="st30" points="484.4,307.9 478.8,304.8 484.4,301.6 489.8,304.8 							"/>
						</g>
						<g>
							<g>
								<polygon class="st31" points="497.1,333.2 491.5,329.9 491.5,296.5 497.1,299.7 								"/>
								<polygon class="st32" points="502.5,329.9 497.1,333.2 497.1,299.7 502.5,296.5 								"/>
							</g>
							<polygon class="st33" points="497.1,299.7 491.5,296.5 497.1,293.4 502.5,296.5 							"/>
						</g>
					</g>
					<text transform="matrix(1.0137 0.5853 -0.866 0.5 446.8151 310.9095)" class="st34 st35 st54">15%</text>
					<text transform="matrix(1.0137 0.5853 -0.866 0.5 459.6843 318.3108)" class="st34 st35 st54">25%</text>
					<text transform="matrix(1.0137 0.5853 -0.866 0.5 472.5518 325.7121)" class="st34 st35 st54">15%</text>
					<text transform="matrix(1.0137 0.5853 -0.866 0.5 485.4238 333.1157)" class="st34 st35 st54">45%</text>
				</g>
			</g>
		</g>
		<g>
			<g>
				<g>
					<g>
						<g>
							<path class="st20" d="M828.5,163.5C828.5,163.7,828.5,163.7,828.5,163.5c0,21.8-15.3,48.3-34.1,59.2
								c-18.8,10.9-34.1,2.1-34.1-19.7c0-21.6,15.1-47.9,33.8-58.8v-1.8c-19.6,11.5-35.3,39-35.3,61.6s16.1,32,35.7,20.6
								c19.7-11.4,35.7-39.1,35.7-61.8v-0.1L828.5,163.5z"/>
						</g>
					</g>
					<g>
						<path class="st32" d="M823.9,166.3L823.9,166.3c0,18.9-13.2,41.8-29.5,51.1c-16.3,9.3-29.5,1.8-29.5-17
							c0-18.6,13.1-41.3,29.1-50.9v-1.8c-17,10-30.7,33.9-30.7,53.6c0,19.8,14,27.8,31.1,18s31.1-34.1,31.1-53.9v-0.1L823.9,166.3z"
							/>
					</g>
					<g>
						<path class="st55" d="M819.7,168.7L819.7,168.7c0,16.2-11.3,35.7-25.2,43.8c-13.9,8-25.2,1.6-25.2-14.6
							c0-15.9,11.1-35.3,24.9-43.5v-1.8c-14.6,8.7-26.4,29.3-26.4,46.2c0,17.1,12,24.1,26.8,15.5s26.8-29.4,26.8-46.5v-0.1
							L819.7,168.7z"/>
					</g>
					<path class="st55" d="M817.1,170.3c0,14.5-10.1,32-22.7,39.2c-12.6,7.3-22.7,1.4-22.7-13.1c0-14.5,10.1-32,22.7-39.2
						C806.9,149.9,817.1,155.8,817.1,170.3z"/>
					<path class="st56" d="M794.5,160.2c11-6.3,20.1-1.2,20.1,11.5c0,12.8-8.9,28.4-20.1,34.7c-11,6.3-20.1,1.2-20.1-11.5
						C774.4,182.2,783.3,166.6,794.5,160.2z"/>
				</g>
				<text transform="matrix(0.866 -0.5 0 1 785.3199 186.9918)" class="st6 st35 st57">Lorem</text>
				<text transform="matrix(0.866 -0.5 0 1 785.6557 195.9903)" class="st6 st35 st57">ipsum</text>
				<text transform="matrix(0.866 -0.5 0 1 796.4632 142.5736)" class="st6 st35 st58">75%</text>
				<text transform="matrix(0.866 -0.5 0 1 796.4632 148.0541)" class="st6 st35 st58">50%</text>
				<text transform="matrix(0.866 -0.5 0 1 796.4632 153.5443)" class="st6 st35 st58">25%</text>
			</g>
			<g>
				<text transform="matrix(0.866 -0.5 0 1 783.5879 247.3365)" class="st6 st35 st59">Lorem ipsum dolor sit amet,</text>
				<text transform="matrix(0.866 -0.5 0 1 783.5879 252.1285)" class="st6 st35 st59">consectetur adipiscing elit.</text>
			</g>
			<g>
				<text transform="matrix(0.866 -0.5 0 1 783.5879 260.8707)" class="st6 st35 st59">Lorem ipsum dolor sit amet,</text>
				<text transform="matrix(0.866 -0.5 0 1 783.5879 265.6627)" class="st6 st35 st59">consectetur adipiscing elit.</text>
			</g>
			<g>
				<text transform="matrix(0.866 -0.5 0 1 783.5879 274.4059)" class="st6 st35 st59">Lorem ipsum dolor sit amet,</text>
				<text transform="matrix(0.866 -0.5 0 1 783.5879 279.1959)" class="st6 st35 st59">consectetur adipiscing elit.</text>
			</g>
			<polygon class="st20" points="781.1,253.5 774.2,257.5 774.2,250 781.1,246 			"/>
			<polygon class="st32" points="781.1,266.6 774.2,270.7 774.2,263.1 781.1,259.1 			"/>
			<polygon class="st55" points="781.1,279.7 774.2,283.8 774.2,276.3 781.1,272.2 			"/>
		</g>
		<g>
			<g>
				<path class="st44" d="M395.6,504.5c-37.7,0.6-75,9.2-103.7,25.8c-1.6,0.9-3,1.8-4.4,2.6C259.3,550.4,246,573,247,595.2
					c1,21.8,15.9,43.2,44.7,59.9l103.7-59.9v-90.8L395.6,504.5L395.6,504.5z"/>
				<path class="st61" d="M573.2,595.4c1.2-23.4-13.7-47.1-44.7-65.1l-112.6,51.9v13.1L524,657.6c1.6-0.8,3.1-1.7,4.5-2.5
					C557.3,638.6,572.2,617.1,573.2,595.4z"/>
				<path class="st62" d="M395.6,595.4l112.6-65.1v-13.1c-30.6-16.7-73.4-13.3-112.6-12.7V595.4L395.6,595.4z"/>
				<path class="st40" d="M395.6,595.4l-103.7,46.7v13.2c28.7,16.6,66,25.2,103.7,25.8c38.7,0.6,77.7-7.1,108.1-23.3v-13.1
					L395.6,595.4z"/>
				
					<linearGradient id="SVGID_10_" gradientUnits="userSpaceOnUse" x1="481.4989" y1="622.4745" x2="606.5724" y2="622.4745" gradientTransform="matrix(0.866 0.5 -1 0.5774 677.67 -50.479)">
					<stop  offset="0" style="stop-color:#4CC194"/>
					<stop  offset="0.2836" style="stop-color:#4CD08B"/>
					<stop  offset="0.6803" style="stop-color:#4CE083"/>
					<stop  offset="1" style="stop-color:#4CE580"/>
				</linearGradient>
				<path class="st63" d="M573.2,582.3c1.2-23.4-13.7-47.1-44.7-65.1l-112.6,65.1L524,644.7c1.6-0.8,3.1-1.7,4.5-2.5
					C557.3,625.5,572.2,604,573.2,582.3z"/>
				<path class="st64" d="M395.6,582.3l112.6-65.1c-31.1-17.9-72-26.5-112.6-25.8V582.3L395.6,582.3z"/>
				<path class="st41" d="M395.6,582.3l-103.7,59.9c28.7,16.6,66,25.2,103.7,25.8c38.7,0.6,77.7-7.1,108.1-23.3L395.6,582.3z"/>
				<path class="st45" d="M395.6,491.4c-37.7,0.6-75,9.2-103.7,25.8c-1.6,0.9-3,1.8-4.4,2.6c-28.1,17.6-41.4,40.1-40.4,62.4
					c1,21.8,15.9,43.2,44.7,59.9l103.7-59.9v-90.8H395.6z"/>
			</g>
			<text transform="matrix(0.866 0.5 -0.866 0.5 476.1076 582.3988)" class="st6 st35 st65">A</text>
			<text transform="matrix(0.866 0.5 -0.866 0.5 373.9017 632.8152)" class="st6 st35 st65">B</text>
			<text transform="matrix(0.866 0.5 -0.866 0.5 309.6048 563.8049)" class="st6 st35 st65">C</text>
			<text transform="matrix(0.866 0.5 -0.866 0.5 409.6787 527.7897)" class="st6 st35 st65">D</text>
			<path class="st66" d="M453.2,545c-11.1,6.3-29.1,6.3-40.1,0c-11.1-6.3-11.1-16.8,0-23.2c11.1-6.3,29.1-6.3,40.1,0
				C464.2,528.2,464.2,538.5,453.2,545z"/>
		</g>
		<g>
			<polygon class="st46" points="369.9,219.6 563.4,331.2 563.4,195.1 369.9,83.4 			"/>
			<g>
				<g>
					<g>
						<g>
							<polygon class="st6" points="475.1,250.2 395.2,203.9 395.2,202.9 475.1,249.1 							"/>
						</g>
						<g>
							<polygon class="st6" points="475.1,221.3 395.2,175.2 395.2,174.2 475.1,220.2 							"/>
						</g>
						<g>
							<polygon class="st6" points="475.1,192.5 395.2,146.3 395.2,145.3 475.1,191.5 							"/>
						</g>
						<g>
							<polygon class="st6" points="475.1,163.7 395.2,117.6 395.2,116.5 475.1,162.6 							"/>
						</g>
					</g>
					<g>
						<g>
							<polygon class="st6" points="475.1,264.3 395.2,218 395.2,217 475.1,263.2 							"/>
						</g>
						<g>
							<polygon class="st6" points="475.1,235.4 395.2,189.2 395.2,188.3 475.1,234.4 							"/>
						</g>
						<g>
							<polygon class="st6" points="475.1,206.5 395.2,160.4 395.2,159.4 475.1,205.5 							"/>
						</g>
						<g>
							<polygon class="st6" points="475.1,177.8 395.2,131.6 395.2,130.5 475.1,176.7 							"/>
						</g>
					</g>
				</g>
				<g>
					<g>
						<polygon class="st3" points="409.7,225.4 399.3,219.5 399.3,149.9 409.7,155.9 						"/>
						<polygon class="st45" points="409.7,225.4 399.3,219.5 399.3,159.8 409.7,165.7 						"/>
					</g>
					<g>
						<polygon class="st3" points="430,237.2 419.6,231.1 419.6,136 430,141.9 						"/>
						<polygon class="st67" points="430,237.2 419.6,231.1 419.6,163.4 430,169.5 						"/>
					</g>
					<g>
						<polygon class="st3" points="450.5,248.9 440,242.9 440,156.3 450.5,162.2 						"/>
						
							<linearGradient id="SVGID_11_" gradientUnits="userSpaceOnUse" x1="445.2142" y1="402.7529" x2="445.2142" y2="320.2745" gradientTransform="matrix(1 0 0 1 0 -153.8898)">
							<stop  offset="0" style="stop-color:#4CC194"/>
							<stop  offset="0.2836" style="stop-color:#4CD08B"/>
							<stop  offset="0.6803" style="stop-color:#4CE083"/>
							<stop  offset="1" style="stop-color:#4CE580"/>
						</linearGradient>
						<polygon class="st68" points="450.5,248.9 440,242.9 440,166.4 450.5,172.5 						"/>
					</g>
					<g>
						<polygon class="st3" points="470.8,260.6 460.4,254.7 460.4,172.7 470.8,178.7 						"/>
						<polygon class="st41" points="470.8,260.6 460.4,254.7 460.4,185.2 470.8,191.1 						"/>
					</g>
				</g>
			</g>
			<g>
				<g>
					<polygon class="st56" points="502.4,230.9 487.7,222.4 487.7,214.3 502.4,222.7 					"/>
					<text transform="matrix(0.866 0.5 0 1 504.5742 230.0965)" class="st6 st35 st69">Lorem ipsum</text>
				</g>
				<g>
					
						<linearGradient id="SVGID_12_" gradientUnits="userSpaceOnUse" x1="487.792" y1="392.7183" x2="502.3658" y2="392.7183" gradientTransform="matrix(1 0 0 1 0 -153.8898)">
						<stop  offset="0" style="stop-color:#4CC194"/>
						<stop  offset="0.2836" style="stop-color:#4CD08B"/>
						<stop  offset="0.6803" style="stop-color:#4CE083"/>
						<stop  offset="1" style="stop-color:#4CE580"/>
					</linearGradient>
					<polygon class="st70" points="502.4,247.1 487.7,238.6 487.7,230.6 502.4,239 					"/>
					<text transform="matrix(0.866 0.5 0 1 504.5742 246.2764)" class="st6 st35 st69">Lorem ipsum</text>
				</g>
				<g>
					
						<linearGradient id="SVGID_13_" gradientUnits="userSpaceOnUse" x1="487.792" y1="408.9032" x2="502.3677" y2="408.9032" gradientTransform="matrix(1 0 0 1 0 -153.8898)">
						<stop  offset="0" style="stop-color:#4CC194"/>
						<stop  offset="0.2836" style="stop-color:#4CD08B"/>
						<stop  offset="0.6803" style="stop-color:#4CE083"/>
						<stop  offset="1" style="stop-color:#4CE580"/>
					</linearGradient>
					<polygon class="st71" points="502.4,263.2 487.7,254.8 487.7,246.8 502.4,255.2 					"/>
					<text transform="matrix(0.866 0.5 0 1 504.5742 262.4529)" class="st6 st35 st69">Lorem ipsum</text>
				</g>
				<g>
					<polygon class="st41" points="502.4,279.5 487.7,271.1 487.7,263 502.4,271.4 					"/>
					<text transform="matrix(0.866 0.5 0 1 504.5742 278.6302)" class="st6 st35 st69">Lorem ipsum</text>
				</g>
			</g>
		</g>
		<polyline class="st72" points="603.4,534.9 644.7,394.3 679.4,428.5 720.2,445.2 737.3,299.9 		"/>
		<path class="st2" d="M608.6,531.9c0,3.4-2.3,7.4-5.2,9.1c-2.8,1.7-5.2,0.3-5.2-3c0-3.4,2.3-7.4,5.2-9.1
			C606.2,527.1,608.6,528.5,608.6,531.9z"/>
		
			<linearGradient id="SVGID_14_" gradientUnits="userSpaceOnUse" x1="800.8943" y1="646.5627" x2="800.8943" y2="118.1571" gradientTransform="matrix(1 0 0 1 0 -153.8898)">
			<stop  offset="0" style="stop-color:#45FFFA"/>
			<stop  offset="0.1642" style="stop-color:#6CFFFB;stop-opacity:0.8358"/>
			<stop  offset="0.4552" style="stop-color:#AAFFFD;stop-opacity:0.5448"/>
			<stop  offset="0.7017" style="stop-color:#D8FFFE;stop-opacity:0.2983"/>
			<stop  offset="0.8908" style="stop-color:#F4FFFF;stop-opacity:0.1092"/>
			<stop  offset="1" style="stop-color:#FFFFFF;stop-opacity:0"/>
		</linearGradient>
		<polygon class="st73" points="942.4,-35.7 659.4,-35.7 659.4,384.6 741,492.7 829.2,438.8 942.4,373 		"/>
		<g>
			<g>
				<path class="st74" d="M436.2,534.1c0,0-0.6,5-0.3,6.2c0.4,1.2,3.1,0.9,4.1,0.6c3.4-0.9,11.3-4.9,11-8.2
					c-0.1-1.3-2.1-1.2-5.3,0.3c-3.2,1.6-5,1.3-5.4,0.3C440,532.4,436.2,534.1,436.2,534.1z"/>
				<path class="st74" d="M405.4,531.6c0,0-0.6,5-0.3,6.2c0.4,1.2,3.1,0.9,4.1,0.6c3.2-0.9,11.3-4.9,11-8.2
					c-0.1-1.3-2.1-1.2-5.3,0.3c-3.2,1.6-5,1.3-5.4,0.3C409.2,530,405.4,531.6,405.4,531.6z"/>
				<g>
					
						<linearGradient id="SVGID_15_" gradientUnits="userSpaceOnUse" x1="393.8672" y1="572.6801" x2="388.5043" y2="528.3951" gradientTransform="matrix(1 0 0 1 0 -153.8898)">
						<stop  offset="0" style="stop-color:#BF2BB5"/>
						<stop  offset="1" style="stop-color:#7614A3"/>
					</linearGradient>
					<path class="st75" d="M391.9,376c0,0-6.9,12.3-7.6,37.7c1.4,4.9,15.3,2.1,16.8,0c1.6-2.1,0-6.6,0-6.6H395l1.8-12.3L391.9,376z"
						/>
					<g>
						<path class="st76" d="M404,531.9c0.1-4.4,1.8-48,1.8-49.5c-0.1-12.8-10.7-24.7-11.1-27.6c-1.6-10,2.2-22.9,2.2-22.9l22.8,3.1
							c0,0,3.2,22.1,1.2,46.5c-0.4,4.5-9.2,46.4-9.6,50.8L404,531.9z"/>
						<path class="st77" d="M426.6,485.3c-1.9-4.5-11.4-19.3-13.3-23.6c-9.2-17.4-7-27.7-7-27.7l28.6-1.2c0,0,5,35.3,7.3,44.4
							c0.4,1.4-0.8,55.8-0.4,57l-5.8,0.5L426.6,485.3z"/>
						
							<rect x="421.3" y="370.4" transform="matrix(0.4919 -0.8707 0.8707 0.4919 -111.4818 579.5076)" class="st78" width="39" height="29.7"/>
						
							<linearGradient id="SVGID_16_" gradientUnits="userSpaceOnUse" x1="476.5446" y1="538.9653" x2="520.2433" y2="538.9653" gradientTransform="matrix(-1 0 0 1 939.1738 -153.8898)">
							<stop  offset="0" style="stop-color:#FFFFFF"/>
							<stop  offset="0.7168" style="stop-color:#F0F0F0"/>
							<stop  offset="1" style="stop-color:#E8E8E8"/>
						</linearGradient>
						<polygon class="st79" points="462.6,375.6 444,408.6 419,394.5 437.6,361.5 						"/>
						
							<linearGradient id="SVGID_17_" gradientUnits="userSpaceOnUse" x1="511.1031" y1="517.9029" x2="533.2663" y2="517.9029" gradientTransform="matrix(-1 0 0 1 939.1738 -153.8898)">
							<stop  offset="0" style="stop-color:#FFE2C4"/>
							<stop  offset="1" style="stop-color:#FFB870"/>
						</linearGradient>
						<path class="st80" d="M420.3,350.1c0,0,4.5-0.1,6.5,5c0.3,0.8,0.4,1.6,0.1,2.3c-0.4,1.4,0.1,3.6,0.8,5.3c1.2,3-1,8.3-3.1,10.9
							c-2.5,0.9-4.3-1-4.3-1l-1.6,5.4l-12.2-3.1c0,0,1.4-4.4,0-11.1s-0.9-10.1,3.5-12.3C414.5,349.2,420.3,350.1,420.3,350.1"/>
						<path class="st81" d="M425,341.8c0,0-3.2,2.2-13.1,2.8s-10.2,7.5-8.9,11c-3,1,3.4,11.8,3.4,15.9c5.6,1.9,10-0.6,10-0.6
							s2.1-3.2,0.8-7s1-7.3,2.6-6.3c0.3,0.3,0.8,6.1,1,6.1c0.1,0,0.6,0,0.8,0c0.4-0.1-0.1-1.6,0.4-4.1c0.3-1.2,1.8-3.8,1.7-4.4
							c-0.1-0.9-1.2-3.6-1.2-3.6l2.1-0.4c0,0,2.3,0.3,2.3-1.9C426.6,345.5,425,341.8,425,341.8"/>
						
							<linearGradient id="SVGID_18_" gradientUnits="userSpaceOnUse" x1="500.3817" y1="566.486" x2="549.8559" y2="566.486" gradientTransform="matrix(-1 0 0 1 939.1738 -153.8898)">
							<stop  offset="0" style="stop-color:#BF2BB5"/>
							<stop  offset="1" style="stop-color:#7614A3"/>
						</linearGradient>
						<path class="st82" d="M435.8,387.9c0,0-5.4-6.3-16.7-10.6c-5.3-1.9-11.3-2.7-11.3-2.7s-10.2-1-15.3,1
							c-2.8,1.2-4.9,15.1-1.3,24.3c3.8,9.2,6.1,19.9,3.4,25.1c-2.8,5.2-4.5,20.2-4.5,20.2s4.3,2.7,12.4,4.3c0,0,2.6-13.5,3-13.5
							c0.1,0,1.4,14.4,1.4,14.4c8.5,1,19.7,0.4,32-5.8c-1.2-6.9-6.1-19.9-7.4-26.3C430.1,412,435.8,387.9,435.8,387.9"/>
						
							<linearGradient id="SVGID_19_" gradientUnits="userSpaceOnUse" x1="483.1691" y1="553.1801" x2="492.6541" y2="553.1801" gradientTransform="matrix(-1 0 0 1 939.1738 -153.8898)">
							<stop  offset="0" style="stop-color:#FFE2C4"/>
							<stop  offset="1" style="stop-color:#FFB870"/>
						</linearGradient>
						<path class="st83" d="M447.6,404.5c0,0-0.4-3.5,0-5.6c0.4-2.2-0.4-3.4-1-4.1c-0.5-0.8,0.4-2.8,2.1-1c1.7,1.8,1.9,4,1.9,4
							l4.3-7.6c0,0,3.6,7.8-2.5,17.9C448.5,410.1,447.6,404.5,447.6,404.5z"/>
						
							<linearGradient id="SVGID_20_" gradientUnits="userSpaceOnUse" x1="496.8103" y1="588.4186" x2="503.1556" y2="536.0229" gradientTransform="matrix(-1 0 0 1 939.1738 -153.8898)">
							<stop  offset="0" style="stop-color:#BF2BB5"/>
							<stop  offset="1" style="stop-color:#7614A3"/>
						</linearGradient>
						<path class="st84" d="M438.3,399.8c1.4-4.3,0.4-9.1-2.8-12.2c-0.6-0.6-1.4-1.2-2.3-1.7c-5.3-2.6-8.9,1.8-9.2,11.5
							c-0.3,9.6,0.8,23.7,6.3,32.6c3.4,5.2,17,2.8,24-21.9c-1.8-2.5-8-4.1-8-4.1s-6.2,15.9-8.7,13.7
							C434.4,415.1,436.3,405.5,438.3,399.8"/>
					</g>
				</g>
			</g>
		</g>
		<g>
			<path class="st85" d="M931.3,345.1c0,0-2.1-2.7-2.8-5.2c-0.8-2.5-1.8-4.4-3.5-5.6c-1.7-1.2-6.1-3.8-6.6-3.9
				c-0.5-0.1-1.8,0.5-0.4,1.6c1.4,1,3.6,2.5,3.8,3.4c0.1,0.6-2.6,4.5-0.8,7c1.8,2.5,0.9,0.5,6,6.2
				C931.5,351.5,931.3,345.1,931.3,345.1z"/>
			<path class="st6" d="M930.4,342.5c-2.6,0.3-5.4,2.1-6.3,4.1c0.8,0.8,1.8,2.1,3.1,3.5c4.9,3.5,5-4.9,5-4.9S931.3,344,930.4,342.5z
				"/>
			<g>
				
					<linearGradient id="SVGID_21_" gradientUnits="userSpaceOnUse" x1="924.8867" y1="517.1562" x2="975.4316" y2="517.1562" gradientTransform="matrix(1 0 0 1 0 -153.8898)">
					<stop  offset="0" style="stop-color:#BF2BB5"/>
					<stop  offset="1" style="stop-color:#7614A3"/>
				</linearGradient>
				<path class="st86" d="M975.4,372.3c0,0-21-6-26.2-9.3c-5-3.4-17.5-18.8-17.5-18.8s-5.7-0.3-7,5.3c5.8,11.1,15.5,18.5,19.9,22.4
					c4.5,3.8,20.5,10,25.6,10.5C975.8,382.9,975.4,372.3,975.4,372.3z"/>
				<g>
					<path class="st85" d="M922.8,413c0,0-2.2-0.8-4.8,0.9c-2.6,1.7-4.9,1.2-6.6,0.9c-1.7-0.3-4,3.1-0.8,4.7c3.1,1.7,7.4,1.6,9.5,1
						c1-0.3,3.2-1.4,3.9-1.6C924.7,418.7,922.8,413,922.8,413z"/>
					<polygon class="st45" points="899.8,425 889.7,402.2 922.7,387.5 934.6,409.9 					"/>
					<path class="st87" d="M971.7,452.5c0,0,2.8,9.7,1.4,17.4c-1.4,7.6-4,13.3-4.5,18.4c-0.5,4.9,1.4,10,0.9,12.7
						c-0.5,2.7-12.4,5.4-12.4,5.4s3.4-2.2,4.5-6.9c1.2-4.7,1.7-5.3,1.7-7.5c0-2.2-0.6-26-0.8-35.1
						C962.4,447.9,971.7,452.5,971.7,452.5z"/>
					<path class="st85" d="M951.7,455.4c0,0,0.1,6.5,0.9,9.1c0.8,2.7,2.5,24.6,1.7,31.3c-0.8,6.7-6.1,15.9-8.2,17.5
						c-2.1,1.7-0.6,2.2,2.7,1.7c3.2-0.4,4.5-5.4,6-7.4c1.4-1.9,6.6-4.4,6.6-4.4s-0.8-3.2-1.3-4.5s1.2-11.8,2.7-16.8
						c1.6-5,1.4-12.6,0.8-15.1s1.6-11.4,1.6-11.4h-13.5L951.7,455.4L951.7,455.4z"/>
					
						<linearGradient id="SVGID_22_" gradientUnits="userSpaceOnUse" x1="952.5427" y1="659.6596" x2="970.5089" y2="659.6596" gradientTransform="matrix(1 0 0 1 0 -153.8898)">
						<stop  offset="0" style="stop-color:#BF2BB5"/>
						<stop  offset="1" style="stop-color:#7614A3"/>
					</linearGradient>
					<path class="st88" d="M967.3,513.8h1.3c0,0,1.3-8.4,1.7-9.8c0.4-1.6,0.8-5-1.8-6c-2.6-0.9-4.1,1.2-5,3
						c-0.9,1.9-4.9,7.6-7.5,8.7c-2.3,1.2-3,2.2-3,2.2s-1,0.9,1.7,0.9c2.7,0,6.9,0.1,8.4-0.5s1.6-2.1,1.7-3.5c0-1.3,1-2.8,1.7-3.1
						C966.8,509.9,967.3,513.8,967.3,513.8z"/>
					
						<linearGradient id="SVGID_23_" gradientUnits="userSpaceOnUse" x1="941.0152" y1="663.6526" x2="962.6874" y2="663.6526" gradientTransform="matrix(1 0 0 1 0 -153.8898)">
						<stop  offset="0" style="stop-color:#BF2BB5"/>
						<stop  offset="1" style="stop-color:#7614A3"/>
					</linearGradient>
					<path class="st89" d="M962.7,506.1c0,0-0.3-4.4-3.5-4.3c-3.2,0.1-4.8,3.5-5.8,6.1c-0.9,2.7-1.3,5.4-4.4,5.8
						c-3,0.4-3.2-0.3-3.2-0.3s-3.1,0.1-4.8,1.3c1,2.1,5.4,2.2,8.9,2.2s4-0.3,4.7-1.8c0.6-1.6,1.8-6.5,3.9-6.5c0.5,4.1,1,8.9,1,8.9h1
						c0,0,1.4-6.2,1.7-8.5C962.7,506.8,962.8,507,962.7,506.1z"/>
					<path class="st90" d="M947.5,429l1.4,26.9c0,0,2.5,3.9,11.7,3.2c9.2-0.5,14.6-4.8,14.6-4.8s0.3-5.6,1.2-10.4
						c0.8-4.8,3-12.8,3-12.8L947.5,429z"/>
					
						<linearGradient id="SVGID_24_" gradientUnits="userSpaceOnUse" x1="946.1907" y1="554.9107" x2="982.6207" y2="554.9107" gradientTransform="matrix(1 0 0 1 0 -153.8898)">
						<stop  offset="0" style="stop-color:#BF2BB5"/>
						<stop  offset="1" style="stop-color:#7614A3"/>
					</linearGradient>
					<path class="st91" d="M962.8,367.2c0,0-11.7,6.9-13.2,14c-0.5,2.1-4.1,4.9-2.5,11.7s3.9,15.7,3.9,19.4c0,3.8-4.8,13.9-4.8,19.2
						c11.1,7.9,28.2,7,36.4,0c-0.1-14.8-2.8-19.3-6.3-26s0.4-12.6,2.2-18.8c1.8-6.3,5-14.6,0.8-19
						C975.1,363.2,966.7,365.4,962.8,367.2z"/>
					<g>
						<path class="st85" d="M956.6,341.2c0,0,0.1,1.9-1.3,5.4c-1.4,3.5-2.2,7.8-1.2,11.1c1,3.4,2.2,4.8,5.3,4.9
							c1.6,0.4,2.5,1.9,2.6,4.5c4.5,1.8,9.7-1,9.7-1.7c-0.6-3-0.8-4.4,0.4-6.6c1.2-2.2,2.3-11.5-1.8-15.1
							C966.3,340.1,956.6,341.2,956.6,341.2z"/>
						<path class="st92" d="M956.9,347.9c0,0-6.7-4.1-3.1-8.9c3.5-4.8,8.2-5.6,12.4-5.8c4.3-0.3,12,1,14.2,7.9
							c2.6,3,4.4,12.6,5.2,19.8c0.8,7.3-6.7,14.6-17.4,14.6c-10.6,0-12.2-7.3-12.2-7.3s5.7,1,6.9-4.9c1-5.8-1-13.1-1.7-14.6
							C959.6,349.5,957.4,348.3,956.9,347.9z"/>
					</g>
					<path class="st85" d="M919.4,417.1c0,0-3.8-1-4.1-2.7c-0.4-1.3,1.6-0.5,2.6,0.1s3.5-1.3,5.3,0.5
						C922.8,417.3,919.4,417.1,919.4,417.1z"/>
					<g>
						<path class="st6" d="M925.9,411.7l-3.4,0.5c0,0-1.6,1.9-0.5,4.8s1.8,3.2,1.8,3.2l3.6-0.9L925.9,411.7z"/>
						<path class="st93" d="M953,376c-3.9,0.8-5.7,9.1-4.5,14.6c1,5.2,1.7,10.7-2.6,14.1c-5,1.2-18.6,5.6-21.6,7
							c-1.3,4.1,1.2,7.3,3.1,8.5c6.3-1.8,20.6-5.4,23.4-6.9c1.2-0.5,6.7-3.4,8.3-13.1c1.2-5.3,2.1-13.9,0.5-18.3
							C958.9,380.2,956.9,375.2,953,376z"/>
					</g>
				</g>
			</g>
		</g>
		<g>
			<g>
				<g class="st1">
					<g>
						<g>
							<g>
								<polygon class="st34" points="784.5,458 936.9,370.1 936.9,368.8 784.5,456.8 								"/>
							</g>
							<g>
								<polygon class="st34" points="784.5,444.1 936.9,356.1 936.9,354.8 784.5,442.8 								"/>
							</g>
							<g>
								<polygon class="st34" points="784.5,430.1 936.9,342.1 936.9,340.8 784.5,428.8 								"/>
							</g>
							<g>
								<polygon class="st34" points="784.5,416.2 936.9,328.1 936.9,326.8 784.5,414.9 								"/>
							</g>
							<g>
								<polygon class="st34" points="784.5,402.2 936.9,314.1 936.9,312.8 784.5,400.9 								"/>
							</g>
							<g>
								<polygon class="st34" points="784.5,388.2 936.9,300.1 936.9,298.8 784.5,386.9 								"/>
							</g>
							<g>
								<polygon class="st34" points="784.5,374.2 936.9,286.2 936.9,284.9 784.5,372.9 								"/>
							</g>
							<g>
								<polygon class="st34" points="784.5,359.3 936.9,271.3 936.9,270.1 784.5,358.1 								"/>
							</g>
							<g>
								<polygon class="st34" points="784.5,345.3 936.9,257.4 936.9,256.1 784.5,344.2 								"/>
							</g>
							<g>
								<polygon class="st34" points="784.5,331.3 936.9,243.4 936.9,242.1 784.5,330.2 								"/>
							</g>
						</g>
					</g>
				</g>
				<g>
					
						<linearGradient id="SVGID_25_" gradientUnits="userSpaceOnUse" x1="783.6088" y1="528.4127" x2="934.1934" y2="528.4127" gradientTransform="matrix(1 0 0 1 0 -153.8898)">
						<stop  offset="0" style="stop-color:#4CC194"/>
						<stop  offset="0.2836" style="stop-color:#4CD08B"/>
						<stop  offset="0.6803" style="stop-color:#4CE083"/>
						<stop  offset="1" style="stop-color:#4CE580"/>
					</linearGradient>
					<polygon class="st94" points="785.4,458.2 806.9,350.9 825.7,375.4 843.2,336.3 860.1,325 877.2,295.9 893.1,357.4 
						913.3,319.4 932.4,372.4 934.2,371.7 913.6,314.6 893.8,352.1 877.9,290.8 858.6,323.7 841.6,334.8 825.3,371.6 805.9,346.4 
						783.6,457.8 					"/>
				</g>
				<g>
					<polygon class="st95" points="785.4,458.2 806.8,358.9 825.7,390 843,352.1 859.9,354.1 877.5,325.6 893.4,356.7 913.3,326.4 
						932.4,372.5 934.2,371.7 913.7,322.3 893.5,352.8 877.6,321.6 858.8,352.1 841.9,350 825.4,385.9 806,353.7 783.6,457.8 					
						"/>
				</g>
				<g>
					<polygon class="st96" points="785.4,458.4 807,400 826.1,401 842.8,362.4 859.4,380.4 877.9,357.5 893.7,364.5 913.3,344.4 
						932.5,372.6 934.2,371.6 913.6,341.3 893.3,362.2 877.2,355.2 859.4,377.4 842.1,358.8 824.9,398.9 805.7,397.9 783.6,457.7 
											"/>
				</g>
				<g>
					<polygon class="st97" points="785.3,458.5 807,419.8 826.2,417.6 843,379.2 859.6,384 877.6,366.6 893.5,379.4 913.6,359.6 
						932.8,372.9 933.9,371.4 913.3,357.1 893.4,376.8 877.5,364 859.1,381.8 841.9,376.9 824.8,415.8 805.7,418 783.6,457.6 					
						"/>
				</g>
			</g>
			<ellipse class="st34" cx="933.8" cy="371.6" rx="2.1" ry="2.8"/>
			<ellipse class="st34" cx="913.6" cy="359.3" rx="2.1" ry="2.8"/>
			<ellipse class="st34" cx="913.6" cy="342.5" rx="2.1" ry="2.8"/>
			<ellipse class="st34" cx="913.6" cy="324.5" rx="2.1" ry="2.8"/>
			<ellipse class="st34" cx="913.6" cy="317" rx="2.1" ry="2.8"/>
			<ellipse class="st34" cx="877.7" cy="293.7" rx="2.1" ry="2.8"/>
			<ellipse class="st34" cx="877" cy="323.4" rx="2.1" ry="2.8"/>
			<ellipse class="st34" cx="877.7" cy="356.5" rx="2.1" ry="2.8"/>
			<ellipse class="st34" cx="877.7" cy="365.9" rx="2.1" ry="2.8"/>
			<ellipse class="st34" cx="859.5" cy="383.1" rx="2.1" ry="2.8"/>
			<ellipse class="st34" cx="859.5" cy="378.1" rx="2.1" ry="2.8"/>
			<ellipse class="st34" cx="859.5" cy="352.8" rx="2.1" ry="2.8"/>
			<ellipse class="st34" cx="859.5" cy="324.5" rx="2.1" ry="2.8"/>
			<ellipse class="st34" cx="842.4" cy="335.9" rx="2.1" ry="2.8"/>
			<ellipse class="st34" cx="842.4" cy="350.8" rx="2.1" ry="2.8"/>
			<ellipse class="st34" cx="842.4" cy="360.9" rx="2.1" ry="2.8"/>
			<ellipse class="st34" cx="842.4" cy="379" rx="2.1" ry="2.8"/>
			<ellipse class="st34" cx="825.3" cy="417.2" rx="2.1" ry="2.8"/>
			<ellipse class="st34" cx="825.3" cy="399.8" rx="2.1" ry="2.8"/>
			<ellipse class="st34" cx="825.3" cy="387.1" rx="2.1" ry="2.8"/>
			<ellipse class="st34" cx="825.3" cy="373.3" rx="2.1" ry="2.8"/>
			<ellipse class="st34" cx="806.4" cy="348.2" rx="2.1" ry="2.8"/>
			<ellipse class="st34" cx="806.4" cy="355.7" rx="2.1" ry="2.8"/>
			<ellipse class="st34" cx="806.4" cy="399.4" rx="2.1" ry="2.8"/>
			<ellipse class="st34" cx="806.4" cy="419" rx="2.1" ry="2.8"/>
			<ellipse class="st34" cx="784.5" cy="457.3" rx="2.1" ry="2.8"/>
			<ellipse class="st34" cx="893.1" cy="362.7" rx="2.1" ry="2.8"/>
			<ellipse class="st34" cx="893.9" cy="355.2" rx="2.1" ry="2.8"/>
			<ellipse class="st34" cx="893.9" cy="377.4" rx="2.1" ry="2.8"/>
		</g>
		<g>
			<g>
				<polygon class="st3" points="775.2,501.5 820.5,475.3 775.2,449 729.7,475.3 				"/>
				<polygon class="st4" points="775.1,527.5 820.5,501.2 820.5,475.3 775.1,501.5 				"/>
				<polygon class="st5" points="775.2,527.5 729.7,501.2 729.7,475.3 775.2,501.5 				"/>
			</g>
			<g>
				<polygon class="st3" points="829.4,533.1 874.9,506.9 829.4,480.8 784.1,506.9 				"/>
				<polygon class="st4" points="829.4,559.1 874.9,532.9 874.9,506.9 829.4,533.1 				"/>
				<polygon class="st5" points="829.4,559.1 784.1,532.9 784.1,506.9 829.4,533.1 				"/>
			</g>
			<g>
				<polygon class="st3" points="883.8,564.8 929.3,538.5 883.8,512.4 838.5,538.5 				"/>
				<polygon class="st4" points="883.8,590.8 929.3,564.5 929.3,538.5 883.8,564.8 				"/>
				<polygon class="st5" points="883.8,590.8 838.5,564.5 838.5,538.5 883.8,564.8 				"/>
			</g>
		</g>
		<g>
			<g>
				<g>
					<g>
						<g>
							<path class="st37" d="M870.9,589.1v-6.7h-3v6.7h-35.1l-26.9-15.5c-4.5,2.6-7.6,5.7-9.5,8.9l-1.8-1.7v8.2
								c0,5.7,3.8,11.3,11.1,15.5c7.4,4.3,17.2,6.5,26.9,6.5c9.7,0,19.4-2.2,26.9-6.5C867,600.3,870.6,594.7,870.9,589.1
								L870.9,589.1L870.9,589.1L870.9,589.1L870.9,589.1z"/>
							<path class="st38" d="M859.7,573.6c-14.9-8.5-39-8.5-53.7,0l26.9,15.5L859.7,573.6z"/>
						</g>
						
							<linearGradient id="SVGID_26_" gradientUnits="userSpaceOnUse" x1="794.7551" y1="734.7706" x2="870.8349" y2="734.7706" gradientTransform="matrix(1 0 0 1 0 -153.8898)">
							<stop  offset="0" style="stop-color:#4CC194"/>
							<stop  offset="0.2836" style="stop-color:#4CD08B"/>
							<stop  offset="0.6803" style="stop-color:#4CE083"/>
							<stop  offset="1" style="stop-color:#4CE580"/>
						</linearGradient>
						<path class="st98" d="M859.7,565.3c-14.9-8.5-39-8.5-53.7,0c-14.9,8.5-14.9,22.5,0,31.1c7.4,4.3,17.2,6.5,26.9,6.5
							s19.4-2.2,26.9-6.5c7.4-4.3,11.1-10,11.1-15.5C870.9,575.3,867.1,569.6,859.7,565.3z"/>
					</g>
				</g>
				<g>
					<g>
						<g>
							<path class="st40" d="M866.7,578.4v-6h-2.6v6.1h-31.3l-24-13.9c-4,2.3-6.9,5-8.4,8l-1.6-1.6v7.4c0,5,3.2,10.1,10,13.9
								c6.6,3.9,15.3,5.7,24,5.7c8.7,0,17.4-1.9,24-5.7c6.6-3.8,9.8-8.7,10-13.7l0,0V578.4C866.7,578.5,866.7,578.5,866.7,578.4
								L866.7,578.4z"/>
							<path class="st38" d="M856.8,564.5c-13.2-7.6-34.7-7.6-48,0l24,13.9L856.8,564.5z"/>
						</g>
						<path class="st41" d="M856.8,557.3c-13.2-7.6-34.7-7.6-48,0c-13.2,7.6-13.2,20.1,0,27.7c6.6,3.9,15.3,5.7,24,5.7
							s17.4-1.9,24-5.7c6.6-3.9,10-8.8,10-13.9C866.7,566.1,863.4,561,856.8,557.3z"/>
					</g>
				</g>
				<g>
					<g>
						<g>
							<path class="st42" d="M860.3,570.4v-7l-2.1,2.2v2.1l-25.2,2.8l-19.4-11.1c-3.2,1.8-5.4,1.2-6.7,3.6l-1.3,0.5v7.1
								c0,4,2.7,8.2,8,11.3s12.4,4.7,19.4,4.7c7,0,14-1.6,19.4-4.7C857.5,578.5,860.1,574.5,860.3,570.4L860.3,570.4L860.3,570.4
								L860.3,570.4L860.3,570.4z"/>
							<path class="st38" d="M852.2,559.2c-10.7-6.2-28.1-6.2-38.8,0l19.4,11.1L852.2,559.2z"/>
						</g>
						<path class="st43" d="M852.2,552c-10.7-6.2-28.1-6.2-38.8,0c-10.7,6.2-10.7,16.2,0,22.4c5.3,3.1,12.4,4.7,19.4,4.7
							s14-1.6,19.4-4.7c5.3-3.1,8-7.1,8-11.1C860.3,559.2,857.5,555.1,852.2,552z"/>
					</g>
				</g>
				<g>
					<g>
						<g>
							<path class="st44" d="M855.1,562.1v-6.5l-1.7,2.6v1.6l-20.2,2.3l-15.4-8.9c-2.6,1.6-4.4,0.9-5.4,2.8l-1-0.4v6.3
								c0,3.2,2.1,6.5,6.3,8.9c4.3,2.5,9.8,3.8,15.4,3.8c5.6,0,11.1-1.3,15.4-3.8C852.9,568.5,855.1,565.4,855.1,562.1L855.1,562.1
								L855.1,562.1L855.1,562.1L855.1,562.1z"/>
							<path class="st38" d="M848.7,553.1c-8.5-4.9-22.4-4.9-30.9,0l15.4,8.9L848.7,553.1z"/>
						</g>
						<path class="st45" d="M848.7,546.7c-8.5-4.9-22.4-4.9-30.9,0c-8.5,4.9-8.5,12.9,0,17.9c4.3,2.5,9.8,3.8,15.4,3.8
							s11.1-1.3,15.4-3.8c4.3-2.5,6.3-5.7,6.3-8.9C855.1,552.4,853,549.1,848.7,546.7z"/>
					</g>
				</g>
			</g>
		</g>
		<g>
			<g>
				<g>
					<g>
						<g>
							<path class="st37" d="M924.7,618.9v-6.7h-3v6.7h-35.1l-26.9-15.5c-4.5,2.6-7.6,5.7-9.5,8.9l-1.7-1.7v8.2
								c0,5.7,3.8,11.3,11.1,15.5c7.4,4.3,17.2,6.5,26.9,6.5c9.7,0,19.4-2.2,26.9-6.5C921,630.1,924.6,624.5,924.7,618.9
								L924.7,618.9L924.7,618.9L924.7,618.9L924.7,618.9z"/>
							<path class="st38" d="M913.6,603.4c-14.9-8.5-39-8.5-53.7,0l26.9,15.5L913.6,603.4z"/>
						</g>
						
							<linearGradient id="SVGID_27_" gradientUnits="userSpaceOnUse" x1="848.7045" y1="764.5508" x2="924.7856" y2="764.5508" gradientTransform="matrix(1 0 0 1 0 -153.8898)">
							<stop  offset="0" style="stop-color:#4CC194"/>
							<stop  offset="0.2836" style="stop-color:#4CD08B"/>
							<stop  offset="0.6803" style="stop-color:#4CE083"/>
							<stop  offset="1" style="stop-color:#4CE580"/>
						</linearGradient>
						<path class="st99" d="M913.6,595.1c-14.9-8.5-39-8.5-53.7,0c-14.9,8.5-14.9,22.5,0,31.1c7.4,4.3,17.2,6.5,26.9,6.5
							c9.7,0,19.4-2.2,26.9-6.5c7.4-4.3,11.1-10,11.1-15.5C924.7,605.1,921.1,599.4,913.6,595.1z"/>
					</g>
				</g>
				<g>
					<g>
						<g>
							<path class="st40" d="M920.7,608.2v-6h-2.6v6.1h-31.3l-24-13.9c-4,2.3-6.9,5-8.4,8l-1.6-1.6v7.4c0,5,3.2,10.1,10,13.9
								c6.6,3.9,15.3,5.7,24,5.7c8.7,0,17.4-1.9,24-5.7c6.6-3.8,9.8-8.7,10-13.7l0,0V608.2C920.7,608.3,920.7,608.3,920.7,608.2
								L920.7,608.2z"/>
							<path class="st38" d="M910.8,594.3c-13.2-7.6-34.7-7.6-48,0l24,13.9L910.8,594.3z"/>
						</g>
						<path class="st41" d="M910.8,587.1c-13.2-7.6-34.7-7.6-48,0c-13.2,7.6-13.2,20.1,0,27.7c6.6,3.9,15.3,5.7,24,5.7
							c8.7,0,17.4-1.9,24-5.7c6.6-3.9,10-8.8,10-13.9C920.7,595.9,917.4,590.8,910.8,587.1z"/>
					</g>
				</g>
				<g>
					<g>
						<g>
							<path class="st42" d="M914.1,600.1v-7l-2.1,2.2v2.1l-25.2,2.8l-19.4-11.1c-3.2,1.8-5.4,1.2-6.7,3.6l-1.3,0.5v7.1
								c0,4,2.7,8.2,8,11.3c5.3,3.1,12.4,4.7,19.4,4.7c7,0,14-1.6,19.4-4.7C911.4,608.3,914.1,604.3,914.1,600.1L914.1,600.1
								L914.1,600.1L914.1,600.1L914.1,600.1z"/>
							<path class="st38" d="M906.1,589c-10.7-6.2-28.1-6.2-38.8,0l19.4,11.1L906.1,589z"/>
						</g>
						<path class="st43" d="M906.1,581.8c-10.7-6.2-28.1-6.2-38.8,0c-10.7,6.2-10.7,16.2,0,22.4c5.3,3.1,12.4,4.7,19.4,4.7
							c7,0,14-1.6,19.4-4.7c5.3-3.1,8-7.1,8-11.1C914.1,589,911.5,584.9,906.1,581.8z"/>
					</g>
				</g>
				<g>
					<g>
						<g>
							<path class="st44" d="M909.1,591.9v-6.5l-1.7,2.6v1.6l-20.2,2.3l-15.4-8.9c-2.6,1.6-4.4,0.9-5.4,2.8l-1-0.4v6.3
								c0,3.2,2.1,6.5,6.3,8.9c4.3,2.5,9.8,3.8,15.4,3.8c5.6,0,11.1-1.3,15.4-3.8C906.9,598.3,909.1,595.2,909.1,591.9L909.1,591.9
								L909.1,591.9L909.1,591.9L909.1,591.9z"/>
							<path class="st38" d="M902.6,582.9c-8.5-4.9-22.4-4.9-30.9,0l15.4,8.9L902.6,582.9z"/>
						</g>
						<path class="st45" d="M902.6,576.4c-8.5-4.9-22.4-4.9-30.9,0c-8.5,4.9-8.5,12.9,0,17.9c4.3,2.5,9.8,3.8,15.4,3.8
							c5.6,0,11.1-1.3,15.4-3.8c4.3-2.5,6.3-5.7,6.3-8.9C909.1,582.1,906.9,578.9,902.6,576.4z"/>
					</g>
				</g>
			</g>
		</g>
		<g>
			<g>
				<polygon class="st3" points="757.6,237.1 763.9,241.1 757.8,243.9 				"/>
				<polygon class="st5" points="554.4,686.1 547.8,682 553.5,678.1 				"/>
				<g>
					<g>
						<path class="st6" d="M758.4,557.5c0,2.3-1.9,5.4-4.3,6.7L550.9,681.6c-2.3,1.4-4.3,0.5-4.3-1.8V361.4c0-2.3,1.9-5.3,4.3-6.7
							l203.2-117.3c2.3-1.4,4.3-0.5,4.3,1.8V557.5z"/>
						<path class="st5" d="M546.7,361.4v318.4c0,2.3,1.9,3.1,4.3,1.8l109.4-63.2l-103.6-256l-8.7-4.8
							C547.2,358.9,546.7,360.2,546.7,361.4z"/>
						<path class="st3" d="M754.1,237.5L550.9,354.8c-1.2,0.6-2.2,1.7-3,2.8l8,4.5l104.2,256.2l93.7-54.1c2.3-1.3,4.3-4.4,4.3-6.7
							V239.2C758.4,236.8,756.5,236,754.1,237.5z"/>
						<path class="st4" d="M765,561.6c0,2.3-1.9,5.4-4.3,6.7L557.5,685.6c-2.3,1.4-4.3,0.5-4.3-1.8V365.5c0-2.3,1.9-5.4,4.3-6.7
							l203.2-117.3c2.3-1.4,4.3-0.5,4.3,1.8V561.6z"/>
						<polygon class="st64" points="757.8,555.2 560.4,669.3 560.4,371.9 757.8,257.9 						"/>
						<polygon class="st3" points="754.1,260 754.1,553 560.4,664.9 560.4,669.3 757.8,555.2 757.8,257.9 						"/>
						<path class="st6" d="M662.5,305.8c0,1.9-1.6,4.4-3.5,5.4c-1.9,1.2-3.5,0.4-3.5-1.4c0-1.9,1.6-4.4,3.5-5.4
							C661,303.2,662.5,303.9,662.5,305.8z"/>
					</g>
				</g>
			</g>
			<g>
				<g>
					<g>
						<path class="st44" d="M703.2,550.4l26.5-107.6c0-8.7-10.7-12.6-18.3-8.3S698,449.3,698,458v90.4L703.2,550.4z"/>
						<g>
							<path class="st100" d="M665.9,571.9l26.5-145c0-8.7-10.7-12.6-18.1-8.3c-7.5,4.3-13.5,14.8-13.5,23.4v127.8L665.9,571.9z"/>
						</g>
						<path class="st61" d="M628.6,593.5l26.9-193.8c0-8.7-11.1-12.9-18.6-8.5c-7.5,4.3-13.5,14.8-13.5,23.4v176.9L628.6,593.5z"/>
						<path class="st62" d="M591.3,615l26.9-84.7c0-8.7-11.1-12.8-18.6-8.4c-7.5,4.3-13.5,14.8-13.5,23.4V613L591.3,615z"/>
					</g>
				</g>
				<g>
					<g>
						<path class="st45" d="M730.3,534.8v-90.4c0-8.7-6.1-12.2-13.5-7.8c-7.5,4.3-13.5,14.8-13.5,23.4v90.4L730.3,534.8z"/>
						<g>
							<path class="st101" d="M692.8,556.4V428.7c0-8.7-6.1-12.2-13.5-7.8c-7.5,4.3-13.5,14.8-13.5,23.4V572L692.8,556.4z"/>
						</g>
						
							<linearGradient id="SVGID_28_" gradientUnits="userSpaceOnUse" x1="642.0877" y1="747.4272" x2="642.0877" y2="545.2186" gradientTransform="matrix(1 0 0 1 0 -153.8898)">
							<stop  offset="0" style="stop-color:#4CC194"/>
							<stop  offset="0.2836" style="stop-color:#4CD08B"/>
							<stop  offset="0.6803" style="stop-color:#4CE083"/>
							<stop  offset="1" style="stop-color:#4CE580"/>
						</linearGradient>
						<path class="st102" d="M655.6,577.9V401c0-8.7-6.1-12.2-13.5-7.8c-7.5,4.3-13.5,14.8-13.5,23.4v176.9L655.6,577.9z"/>
						<path class="st67" d="M618.3,599.4v-67.6c0-8.7-6.1-12.2-13.5-7.8c-7.5,4.3-13.5,14.8-13.5,23.4V615L618.3,599.4z"/>
					</g>
				</g>
			</g>
		</g>
		<g>
			<polygon class="st103" points="869.5,632.8 875.7,636.5 875.7,629.1 			"/>
			<polygon class="st10" points="552.1,691.8 552.1,684.6 561.9,684.8 			"/>
			<g>
				<path class="st11" d="M662.5,756.8c2.1,1.2,5.6,1,8-0.4l203.2-117.3c2.3-1.4,2.6-3.4,0.5-4.7l-109-62.9c-2.1-1.2-5.6-1-8,0.4
					L554,689.2c-2.3,1.4-2.6,3.4-0.5,4.7L662.5,756.8z"/>
				<path class="st9" d="M874.2,634.6l-109-62.9c-2.1-1.2-5.6-1-8,0.4l-91,52.6v133c1.6,0,3.1-0.4,4.4-1.2l203.2-117.3
					C876.1,637.8,876.3,635.7,874.2,634.6z"/>
				<path class="st5" d="M554,689.2c-2.3,1.4-2.6,3.4-0.5,4.7l109,62.9c0.9,0.5,2.2,0.8,3.6,0.8V624.5L554,689.2z"/>
				<path class="st3" d="M662.5,749.4c2.1,1.2,5.6,1,8-0.4l203.2-117.3c2.3-1.4,2.6-3.4,0.5-4.7l-109-62.9c-2.1-1.2-5.6-1-8,0.4
					L554,681.8c-2.3,1.4-2.6,3.4-0.5,4.7L662.5,749.4z"/>
				<g>
					<path class="st12" d="M790.6,665l4.3,2.5c1.3,0.8,1.2,1.9-0.4,2.8l-57.4,33.1c-1.4,0.8-3.6,0.9-4.9,0.3l-4.3-2.5L790.6,665z"/>
					<path class="st12" d="M726.2,700.1l-22.4-12.9c-1.3-0.8-1-1.9,0.4-2.8l57.4-33.1c1.4-0.8,3.6-0.9,4.9-0.3l22.4,12.9
						L726.2,700.1z"/>
					<g>
						<polygon class="st12" points="760,595 776.4,585.5 764.7,578.8 748.4,588.2 						"/>
						<polygon class="st12" points="764.3,610.2 791.6,594.4 780,587.7 752.7,603.5 						"/>
						<polygon class="st12" points="743.1,622.4 760.3,612.6 748.6,605.8 731.4,615.7 						"/>
						<polygon class="st12" points="721.7,634.8 738.9,624.9 727.3,618.1 710.1,628.1 						"/>
						<polygon class="st12" points="700.4,647.1 717.6,637.2 705.8,630.4 688.7,640.4 						"/>
						<polygon class="st12" points="679,659.4 696.1,649.6 684.4,642.9 667.3,652.7 						"/>
						<polygon class="st12" points="657.6,671.9 674.7,661.9 663.1,655.2 645.8,665.1 						"/>
						<polygon class="st12" points="636.1,684.2 653.4,674.2 641.7,667.5 624.5,677.4 						"/>
						<polygon class="st12" points="605.8,701.8 632,686.6 620.3,679.9 594.1,695 						"/>
						<polygon class="st12" points="768.5,625.3 806.9,603.1 795.1,596.4 756.8,618.5 						"/>
						<polygon class="st12" points="747.2,637.6 764.4,627.6 752.8,620.9 735.6,630.8 						"/>
						<polygon class="st12" points="725.9,649.9 743.1,640 731.4,633.3 714.2,643.1 						"/>
						<polygon class="st12" points="704.5,662.3 721.7,652.3 710.1,645.6 692.8,655.6 						"/>
						<polygon class="st12" points="683.1,674.6 700.4,664.8 688.6,658 671.5,667.9 						"/>
						<polygon class="st12" points="661.8,687 678.9,677.1 667.2,670.3 650.1,680.2 						"/>
						<polygon class="st12" points="621,710.5 657.5,689.4 645.8,682.6 609.3,703.7 						"/>
						<polygon class="st12" points="698.4,683.4 779.7,636.5 768.1,629.7 686.8,676.7 						"/>
						<polygon class="st12" points="738.8,607.3 755.1,597.8 743.5,591.1 727.2,600.5 						"/>
						<polygon class="st12" points="805.7,621.4 822.1,612.1 810.4,605.2 794.1,614.6 						"/>
						<polygon class="st12" points="784.6,633.7 801,624.2 789.3,617.5 772.9,626.9 						"/>
						<polygon class="st12" points="717.6,619.4 734,610 722.2,603.2 705.9,612.7 						"/>
						<polygon class="st12" points="696.5,631.7 712.8,622.3 701.1,615.5 684.8,625 						"/>
						<polygon class="st12" points="675.2,643.9 691.5,634.5 679.9,627.7 663.6,637.2 						"/>
						<polygon class="st12" points="654,656.2 670.4,646.8 658.7,640 642.3,649.5 						"/>
						<polygon class="st12" points="632.9,668.4 649.2,658.9 637.6,652.2 621.2,661.6 						"/>
						<polygon class="st12" points="611.7,680.7 628,671.2 616.3,664.5 600,673.9 						"/>
						<polygon class="st12" points="590.4,692.8 606.7,683.4 595.1,676.7 578.8,686.1 						"/>
						<polygon class="st12" points="677,695.8 694.1,685.9 682.5,679.1 665.3,689.1 						"/>
						<polygon class="st12" points="656.7,707.5 673,698.2 661.3,691.3 644.9,700.7 						"/>
						<polygon class="st12" points="636.3,719.3 652.6,709.9 640.9,703.1 624.6,712.5 						"/>
					</g>
				</g>
			</g>
			<g>
				<polygon class="st13" points="645.5,741.4 657.6,748.4 657.6,752.4 645.5,745.4 				"/>
				<polygon class="st14" points="648.8,743.3 657.6,748.4 657.6,752.4 645.5,745.4 				"/>
			</g>
			<g>
				<polygon class="st13" points="557,690.3 569.2,697.3 569.2,701.3 557,694.3 				"/>
				<polygon class="st14" points="560.4,692.2 569.2,697.3 569.2,701.3 557,694.3 				"/>
			</g>
			<g>
				<polygon class="st13" points="571.3,698.4 583.4,705.4 583.4,709.6 571.3,702.4 				"/>
				<polygon class="st14" points="574.6,700.4 583.4,705.4 583.4,709.6 571.3,702.4 				"/>
			</g>
		</g>
	</g>
</g>
</svg>
