<svg id="Layer_1" enable-background="new 0 0 510.028 510.028" height="512" viewBox="0 0 510.028 510.028" width="512" xmlns="http://www.w3.org/2000/svg"><g id="XMLID_1680_"><path id="XMLID_2093_" d="m105 255.014c0 82.71 67.29 150 150 150l10-153-10-147c-82.71 0-150 67.289-150 150z" fill="#ffda2d"/><path id="XMLID_2143_" d="m255 105.014v300c82.71 0 150-67.29 150-150 0-82.711-67.29-150-150-150z" fill="#fdbf00"/><path id="XMLID_2025_" d="m240 135.95c-54.2 6.789-97.275 49.865-104.064 104.064l11.064 15-11.064 15c6.789 54.199 49.864 97.276 104.064 104.065l15-29.064 10-102.5-10-77.5z" fill="#f4f1f1"/><path id="XMLID_2066_" d="m374.064 240.014c-6.789-54.199-49.865-97.275-104.064-104.064l-15 29.064v180l15 29.064c54.199-6.789 97.275-49.865 104.064-104.064l-14.532-15z" fill="#eae7ea"/><path id="XMLID_2103_" d="m374.064 240.014h-29.064v30h29.064c.615-4.915.936-9.921.936-15s-.32-10.085-.936-15z" fill="#dddadf"/><path id="XMLID_2119_" d="m165 240.014h-29.064c-1.247 9.96-1.247 20.037 0 30h29.064z" fill="#eae7ea"/><path id="XMLID_2019_" d="m240 135.95v29.064h15l10-15-10-15c-5.079 0-10.085.32-15 .936z" fill="#eae7ea"/><path id="XMLID_2067_" d="m270 135.95c-4.915-.615-9.921-.936-15-.936v30h15z" fill="#dddadf"/><path id="XMLID_2068_" d="m240 374.079c4.915.615 9.921.936 15 .936l10-15-10-15h-15z" fill="#eae7ea"/><path id="XMLID_2069_" d="m270 374.079v-29.064h-15v30c5.079-.001 10.085-.321 15-.936z" fill="#dddadf"/><path id="XMLID_2078_" d="m240 195.014v68.028l15 10 10-39.014-10-39.014z" fill="#263442"/><path id="XMLID_2070_" d="m308.32 272.534-38.32-25.547v-51.973h-15v78.028l36.68 24.453z" fill="#22222b"/><path id="XMLID_2022_" d="m30 255.014c0-124.065 100.935-225 225-225v-30c-140.931 0-255 114.05-255 255 0 140.929 114.049 255 255 255l15-15-15-15c-124.065 0-225-100.934-225-225z" fill="#76e2f8"/><path id="XMLID_2072_" d="m459.348 102.45 41.591 2.537 1.826-29.945-92.02-5.612-5.711 84.504 29.932 2.022 2.228-32.982c106.688 146.818 2.405 357.04-182.194 357.04v30c68.112 0 132.148-26.524 180.311-74.689 91.511-91.508 98.29-233.673 24.037-332.875z" fill="#4bb9ec"/></g></svg>